<?xml version="1.0" encoding="utf-8" standalone="no"?>
<!DOCTYPE svg PUBLIC "-//W3C//DTD SVG 1.1//EN"
  "http://www.w3.org/Graphics/SVG/1.1/DTD/svg11.dtd">
<svg xmlns:xlink="http://www.w3.org/1999/xlink" width="661.623438pt" height="286.2175pt" viewBox="0 0 661.623438 286.2175" xmlns="http://www.w3.org/2000/svg" version="1.1">
 <metadata>
  <rdf:RDF xmlns:dc="http://purl.org/dc/elements/1.1/" xmlns:cc="http://creativecommons.org/ns#" xmlns:rdf="http://www.w3.org/1999/02/22-rdf-syntax-ns#">
   <cc:Work>
    <dc:type rdf:resource="http://purl.org/dc/dcmitype/StillImage"/>
    <dc:date>2023-09-04T02:25:30.701031</dc:date>
    <dc:format>image/svg+xml</dc:format>
    <dc:creator>
     <cc:Agent>
      <dc:title>Matplotlib v3.7.1, https://matplotlib.org/</dc:title>
     </cc:Agent>
    </dc:creator>
   </cc:Work>
  </rdf:RDF>
 </metadata>
 <defs>
  <style type="text/css">*{stroke-linejoin: round; stroke-linecap: butt}</style>
 </defs>
 <g id="figure_1">
  <g id="patch_1">
   <path d="M 0 286.2175 
L 661.623438 286.2175 
L 661.623438 0 
L 0 0 
z
" style="fill: #ffffff"/>
  </g>
  <g id="axes_1">
   <g id="patch_2">
    <path d="M 48.415938 242.559375 
L 383.215937 242.559375 
L 383.215937 25.119375 
L 48.415938 25.119375 
z
" style="fill: #ffffff"/>
   </g>
   <g id="matplotlib.axis_1">
    <g id="xtick_1">
     <g id="line2d_1">
      <defs>
       <path id="m74ff4090d8" d="M 0 0 
L 0 3.5 
" style="stroke: #000000; stroke-width: 0.8"/>
      </defs>
      <g>
       <use xlink:href="#m74ff4090d8" x="63.634119" y="242.559375" style="stroke: #000000; stroke-width: 0.8"/>
      </g>
     </g>
     <g id="text_1">
      <!-- 25% -->
      <g transform="translate(50.803338 259.280625) scale(0.14 -0.14)">
       <defs>
        <path id="TimesNewRomanPSMT-32" d="M 2934 816 
L 2638 0 
L 138 0 
L 138 116 
Q 1241 1122 1691 1759 
Q 2141 2397 2141 2925 
Q 2141 3328 1894 3587 
Q 1647 3847 1303 3847 
Q 991 3847 742 3664 
Q 494 3481 375 3128 
L 259 3128 
Q 338 3706 661 4015 
Q 984 4325 1469 4325 
Q 1984 4325 2329 3994 
Q 2675 3663 2675 3213 
Q 2675 2891 2525 2569 
Q 2294 2063 1775 1497 
Q 997 647 803 472 
L 1909 472 
Q 2247 472 2383 497 
Q 2519 522 2628 598 
Q 2738 675 2819 816 
L 2934 816 
z
" transform="scale(0.015625)"/>
        <path id="TimesNewRomanPSMT-35" d="M 2778 4238 
L 2534 3706 
L 1259 3706 
L 981 3138 
Q 1809 3016 2294 2522 
Q 2709 2097 2709 1522 
Q 2709 1188 2573 903 
Q 2438 619 2231 419 
Q 2025 219 1772 97 
Q 1413 -75 1034 -75 
Q 653 -75 479 54 
Q 306 184 306 341 
Q 306 428 378 495 
Q 450 563 559 563 
Q 641 563 702 538 
Q 763 513 909 409 
Q 1144 247 1384 247 
Q 1750 247 2026 523 
Q 2303 800 2303 1197 
Q 2303 1581 2056 1914 
Q 1809 2247 1375 2428 
Q 1034 2569 447 2591 
L 1259 4238 
L 2778 4238 
z
" transform="scale(0.015625)"/>
        <path id="TimesNewRomanPSMT-25" d="M 4350 4334 
L 1263 -175 
L 984 -175 
L 4072 4334 
L 4350 4334 
z
M 1138 4334 
Q 1559 4334 1792 3984 
Q 2025 3634 2025 3181 
Q 2025 2638 1762 2341 
Q 1500 2044 1131 2044 
Q 884 2044 678 2180 
Q 472 2316 348 2584 
Q 225 2853 225 3181 
Q 225 3509 350 3786 
Q 475 4063 692 4198 
Q 909 4334 1138 4334 
z
M 1128 4159 
Q 969 4159 845 3971 
Q 722 3784 722 3184 
Q 722 2750 791 2522 
Q 844 2350 956 2256 
Q 1022 2200 1119 2200 
Q 1269 2200 1375 2363 
Q 1531 2603 1531 3166 
Q 1531 3759 1378 4000 
Q 1278 4159 1128 4159 
z
M 4206 2103 
Q 4428 2103 4648 1962 
Q 4869 1822 4989 1553 
Q 5109 1284 5109 963 
Q 5109 409 4843 117 
Q 4578 -175 4216 -175 
Q 3988 -175 3773 -34 
Q 3559 106 3436 367 
Q 3313 628 3313 963 
Q 3313 1291 3436 1562 
Q 3559 1834 3773 1968 
Q 3988 2103 4206 2103 
z
M 4209 1938 
Q 4059 1938 3950 1769 
Q 3809 1550 3809 941 
Q 3809 381 3953 159 
Q 4059 0 4209 0 
Q 4353 0 4466 172 
Q 4616 400 4616 956 
Q 4616 1544 4466 1778 
Q 4363 1938 4209 1938 
z
" transform="scale(0.015625)"/>
       </defs>
       <use xlink:href="#TimesNewRomanPSMT-32"/>
       <use xlink:href="#TimesNewRomanPSMT-35" x="50"/>
       <use xlink:href="#TimesNewRomanPSMT-25" x="100"/>
      </g>
     </g>
    </g>
    <g id="xtick_2">
     <g id="line2d_2">
      <g>
       <use xlink:href="#m74ff4090d8" x="165.088665" y="242.559375" style="stroke: #000000; stroke-width: 0.8"/>
      </g>
     </g>
     <g id="text_2">
      <!-- 50% -->
      <g transform="translate(152.257884 259.280625) scale(0.14 -0.14)">
       <defs>
        <path id="TimesNewRomanPSMT-30" d="M 231 2094 
Q 231 2819 450 3342 
Q 669 3866 1031 4122 
Q 1313 4325 1613 4325 
Q 2100 4325 2488 3828 
Q 2972 3213 2972 2159 
Q 2972 1422 2759 906 
Q 2547 391 2217 158 
Q 1888 -75 1581 -75 
Q 975 -75 572 641 
Q 231 1244 231 2094 
z
M 844 2016 
Q 844 1141 1059 588 
Q 1238 122 1591 122 
Q 1759 122 1940 273 
Q 2122 425 2216 781 
Q 2359 1319 2359 2297 
Q 2359 3022 2209 3506 
Q 2097 3866 1919 4016 
Q 1791 4119 1609 4119 
Q 1397 4119 1231 3928 
Q 1006 3669 925 3112 
Q 844 2556 844 2016 
z
" transform="scale(0.015625)"/>
       </defs>
       <use xlink:href="#TimesNewRomanPSMT-35"/>
       <use xlink:href="#TimesNewRomanPSMT-30" x="50"/>
       <use xlink:href="#TimesNewRomanPSMT-25" x="100"/>
      </g>
     </g>
    </g>
    <g id="xtick_3">
     <g id="line2d_3">
      <g>
       <use xlink:href="#m74ff4090d8" x="266.54321" y="242.559375" style="stroke: #000000; stroke-width: 0.8"/>
      </g>
     </g>
     <g id="text_3">
      <!-- 75% -->
      <g transform="translate(253.712429 259.280625) scale(0.14 -0.14)">
       <defs>
        <path id="TimesNewRomanPSMT-37" d="M 644 4238 
L 2916 4238 
L 2916 4119 
L 1503 -88 
L 1153 -88 
L 2419 3728 
L 1253 3728 
Q 900 3728 750 3644 
Q 488 3500 328 3200 
L 238 3234 
L 644 4238 
z
" transform="scale(0.015625)"/>
       </defs>
       <use xlink:href="#TimesNewRomanPSMT-37"/>
       <use xlink:href="#TimesNewRomanPSMT-35" x="50"/>
       <use xlink:href="#TimesNewRomanPSMT-25" x="100"/>
      </g>
     </g>
    </g>
    <g id="xtick_4">
     <g id="line2d_4">
      <g>
       <use xlink:href="#m74ff4090d8" x="367.997756" y="242.559375" style="stroke: #000000; stroke-width: 0.8"/>
      </g>
     </g>
     <g id="text_4">
      <!-- 100% -->
      <g transform="translate(351.666974 259.280625) scale(0.14 -0.14)">
       <defs>
        <path id="TimesNewRomanPSMT-31" d="M 750 3822 
L 1781 4325 
L 1884 4325 
L 1884 747 
Q 1884 391 1914 303 
Q 1944 216 2037 169 
Q 2131 122 2419 116 
L 2419 0 
L 825 0 
L 825 116 
Q 1125 122 1212 167 
Q 1300 213 1334 289 
Q 1369 366 1369 747 
L 1369 3034 
Q 1369 3497 1338 3628 
Q 1316 3728 1258 3775 
Q 1200 3822 1119 3822 
Q 1003 3822 797 3725 
L 750 3822 
z
" transform="scale(0.015625)"/>
       </defs>
       <use xlink:href="#TimesNewRomanPSMT-31"/>
       <use xlink:href="#TimesNewRomanPSMT-30" x="50"/>
       <use xlink:href="#TimesNewRomanPSMT-30" x="100"/>
       <use xlink:href="#TimesNewRomanPSMT-25" x="150"/>
      </g>
     </g>
    </g>
    <g id="text_5">
     <!-- Percent of Chat Messages (Chronological) -->
     <g transform="translate(96.843281 275.996562) scale(0.14 -0.14)">
      <defs>
       <path id="TimesNewRomanPSMT-50" d="M 1313 1984 
L 1313 750 
Q 1313 350 1400 253 
Q 1519 116 1759 116 
L 1922 116 
L 1922 0 
L 106 0 
L 106 116 
L 266 116 
Q 534 116 650 291 
Q 713 388 713 750 
L 713 3488 
Q 713 3888 628 3984 
Q 506 4122 266 4122 
L 106 4122 
L 106 4238 
L 1659 4238 
Q 2228 4238 2556 4120 
Q 2884 4003 3109 3725 
Q 3334 3447 3334 3066 
Q 3334 2547 2992 2222 
Q 2650 1897 2025 1897 
Q 1872 1897 1694 1919 
Q 1516 1941 1313 1984 
z
M 1313 2163 
Q 1478 2131 1606 2115 
Q 1734 2100 1825 2100 
Q 2150 2100 2386 2351 
Q 2622 2603 2622 3003 
Q 2622 3278 2509 3514 
Q 2397 3750 2190 3867 
Q 1984 3984 1722 3984 
Q 1563 3984 1313 3925 
L 1313 2163 
z
" transform="scale(0.015625)"/>
       <path id="TimesNewRomanPSMT-65" d="M 681 1784 
Q 678 1147 991 784 
Q 1303 422 1725 422 
Q 2006 422 2214 576 
Q 2422 731 2563 1106 
L 2659 1044 
Q 2594 616 2278 264 
Q 1963 -88 1488 -88 
Q 972 -88 605 314 
Q 238 716 238 1394 
Q 238 2128 614 2539 
Q 991 2950 1559 2950 
Q 2041 2950 2350 2633 
Q 2659 2316 2659 1784 
L 681 1784 
z
M 681 1966 
L 2006 1966 
Q 1991 2241 1941 2353 
Q 1863 2528 1708 2628 
Q 1553 2728 1384 2728 
Q 1125 2728 920 2526 
Q 716 2325 681 1966 
z
" transform="scale(0.015625)"/>
       <path id="TimesNewRomanPSMT-72" d="M 1038 2947 
L 1038 2303 
Q 1397 2947 1775 2947 
Q 1947 2947 2059 2842 
Q 2172 2738 2172 2600 
Q 2172 2478 2090 2393 
Q 2009 2309 1897 2309 
Q 1788 2309 1652 2417 
Q 1516 2525 1450 2525 
Q 1394 2525 1328 2463 
Q 1188 2334 1038 2041 
L 1038 669 
Q 1038 431 1097 309 
Q 1138 225 1241 169 
Q 1344 113 1538 113 
L 1538 0 
L 72 0 
L 72 113 
Q 291 113 397 181 
Q 475 231 506 341 
Q 522 394 522 644 
L 522 1753 
Q 522 2253 501 2348 
Q 481 2444 426 2487 
Q 372 2531 291 2531 
Q 194 2531 72 2484 
L 41 2597 
L 906 2947 
L 1038 2947 
z
" transform="scale(0.015625)"/>
       <path id="TimesNewRomanPSMT-63" d="M 2631 1088 
Q 2516 522 2178 217 
Q 1841 -88 1431 -88 
Q 944 -88 581 321 
Q 219 731 219 1428 
Q 219 2103 620 2525 
Q 1022 2947 1584 2947 
Q 2006 2947 2278 2723 
Q 2550 2500 2550 2259 
Q 2550 2141 2473 2067 
Q 2397 1994 2259 1994 
Q 2075 1994 1981 2113 
Q 1928 2178 1911 2362 
Q 1894 2547 1784 2644 
Q 1675 2738 1481 2738 
Q 1169 2738 978 2506 
Q 725 2200 725 1697 
Q 725 1184 976 792 
Q 1228 400 1656 400 
Q 1963 400 2206 609 
Q 2378 753 2541 1131 
L 2631 1088 
z
" transform="scale(0.015625)"/>
       <path id="TimesNewRomanPSMT-6e" d="M 1034 2341 
Q 1538 2947 1994 2947 
Q 2228 2947 2397 2830 
Q 2566 2713 2666 2444 
Q 2734 2256 2734 1869 
L 2734 647 
Q 2734 375 2778 278 
Q 2813 200 2889 156 
Q 2966 113 3172 113 
L 3172 0 
L 1756 0 
L 1756 113 
L 1816 113 
Q 2016 113 2095 173 
Q 2175 234 2206 353 
Q 2219 400 2219 647 
L 2219 1819 
Q 2219 2209 2117 2386 
Q 2016 2563 1775 2563 
Q 1403 2563 1034 2156 
L 1034 647 
Q 1034 356 1069 288 
Q 1113 197 1189 155 
Q 1266 113 1500 113 
L 1500 0 
L 84 0 
L 84 113 
L 147 113 
Q 366 113 442 223 
Q 519 334 519 647 
L 519 1709 
Q 519 2225 495 2337 
Q 472 2450 423 2490 
Q 375 2531 294 2531 
Q 206 2531 84 2484 
L 38 2597 
L 900 2947 
L 1034 2947 
L 1034 2341 
z
" transform="scale(0.015625)"/>
       <path id="TimesNewRomanPSMT-74" d="M 1031 3803 
L 1031 2863 
L 1700 2863 
L 1700 2644 
L 1031 2644 
L 1031 788 
Q 1031 509 1111 412 
Q 1191 316 1316 316 
Q 1419 316 1516 380 
Q 1613 444 1666 569 
L 1788 569 
Q 1678 263 1478 108 
Q 1278 -47 1066 -47 
Q 922 -47 784 33 
Q 647 113 581 261 
Q 516 409 516 719 
L 516 2644 
L 63 2644 
L 63 2747 
Q 234 2816 414 2980 
Q 594 3144 734 3369 
Q 806 3488 934 3803 
L 1031 3803 
z
" transform="scale(0.015625)"/>
       <path id="TimesNewRomanPSMT-20" transform="scale(0.015625)"/>
       <path id="TimesNewRomanPSMT-6f" d="M 1600 2947 
Q 2250 2947 2644 2453 
Q 2978 2031 2978 1484 
Q 2978 1100 2793 706 
Q 2609 313 2286 112 
Q 1963 -88 1566 -88 
Q 919 -88 538 428 
Q 216 863 216 1403 
Q 216 1797 411 2186 
Q 606 2575 925 2761 
Q 1244 2947 1600 2947 
z
M 1503 2744 
Q 1338 2744 1170 2645 
Q 1003 2547 900 2300 
Q 797 2053 797 1666 
Q 797 1041 1045 587 
Q 1294 134 1700 134 
Q 2003 134 2200 384 
Q 2397 634 2397 1244 
Q 2397 2006 2069 2444 
Q 1847 2744 1503 2744 
z
" transform="scale(0.015625)"/>
       <path id="TimesNewRomanPSMT-66" d="M 1319 2638 
L 1319 756 
Q 1319 356 1406 250 
Q 1522 113 1716 113 
L 1975 113 
L 1975 0 
L 266 0 
L 266 113 
L 394 113 
Q 519 113 622 175 
Q 725 238 764 344 
Q 803 450 803 756 
L 803 2638 
L 247 2638 
L 247 2863 
L 803 2863 
L 803 3050 
Q 803 3478 940 3775 
Q 1078 4072 1361 4255 
Q 1644 4438 1997 4438 
Q 2325 4438 2600 4225 
Q 2781 4084 2781 3909 
Q 2781 3816 2700 3733 
Q 2619 3650 2525 3650 
Q 2453 3650 2373 3701 
Q 2294 3753 2178 3923 
Q 2063 4094 1966 4153 
Q 1869 4213 1750 4213 
Q 1606 4213 1506 4136 
Q 1406 4059 1362 3898 
Q 1319 3738 1319 3069 
L 1319 2863 
L 2056 2863 
L 2056 2638 
L 1319 2638 
z
" transform="scale(0.015625)"/>
       <path id="TimesNewRomanPSMT-43" d="M 3853 4334 
L 3950 2894 
L 3853 2894 
Q 3659 3541 3300 3825 
Q 2941 4109 2438 4109 
Q 2016 4109 1675 3895 
Q 1334 3681 1139 3212 
Q 944 2744 944 2047 
Q 944 1472 1128 1050 
Q 1313 628 1683 403 
Q 2053 178 2528 178 
Q 2941 178 3256 354 
Q 3572 531 3950 1056 
L 4047 994 
Q 3728 428 3303 165 
Q 2878 -97 2294 -97 
Q 1241 -97 663 684 
Q 231 1266 231 2053 
Q 231 2688 515 3219 
Q 800 3750 1298 4042 
Q 1797 4334 2388 4334 
Q 2847 4334 3294 4109 
Q 3425 4041 3481 4041 
Q 3566 4041 3628 4100 
Q 3709 4184 3744 4334 
L 3853 4334 
z
" transform="scale(0.015625)"/>
       <path id="TimesNewRomanPSMT-68" d="M 1041 4444 
L 1041 2350 
Q 1388 2731 1591 2839 
Q 1794 2947 1997 2947 
Q 2241 2947 2416 2812 
Q 2591 2678 2675 2391 
Q 2734 2191 2734 1659 
L 2734 647 
Q 2734 375 2778 275 
Q 2809 200 2884 156 
Q 2959 113 3159 113 
L 3159 0 
L 1753 0 
L 1753 113 
L 1819 113 
Q 2019 113 2097 173 
Q 2175 234 2206 353 
Q 2216 403 2216 647 
L 2216 1659 
Q 2216 2128 2167 2275 
Q 2119 2422 2012 2495 
Q 1906 2569 1756 2569 
Q 1603 2569 1437 2487 
Q 1272 2406 1041 2159 
L 1041 647 
Q 1041 353 1073 281 
Q 1106 209 1195 161 
Q 1284 113 1503 113 
L 1503 0 
L 84 0 
L 84 113 
Q 275 113 384 172 
Q 447 203 484 290 
Q 522 378 522 647 
L 522 3238 
Q 522 3728 498 3840 
Q 475 3953 426 3993 
Q 378 4034 297 4034 
Q 231 4034 84 3984 
L 41 4094 
L 897 4444 
L 1041 4444 
z
" transform="scale(0.015625)"/>
       <path id="TimesNewRomanPSMT-61" d="M 1822 413 
Q 1381 72 1269 19 
Q 1100 -59 909 -59 
Q 613 -59 420 144 
Q 228 347 228 678 
Q 228 888 322 1041 
Q 450 1253 767 1440 
Q 1084 1628 1822 1897 
L 1822 2009 
Q 1822 2438 1686 2597 
Q 1550 2756 1291 2756 
Q 1094 2756 978 2650 
Q 859 2544 859 2406 
L 866 2225 
Q 866 2081 792 2003 
Q 719 1925 600 1925 
Q 484 1925 411 2006 
Q 338 2088 338 2228 
Q 338 2497 613 2722 
Q 888 2947 1384 2947 
Q 1766 2947 2009 2819 
Q 2194 2722 2281 2516 
Q 2338 2381 2338 1966 
L 2338 994 
Q 2338 584 2353 492 
Q 2369 400 2405 369 
Q 2441 338 2488 338 
Q 2538 338 2575 359 
Q 2641 400 2828 588 
L 2828 413 
Q 2478 -56 2159 -56 
Q 2006 -56 1915 50 
Q 1825 156 1822 413 
z
M 1822 616 
L 1822 1706 
Q 1350 1519 1213 1441 
Q 966 1303 859 1153 
Q 753 1003 753 825 
Q 753 600 887 451 
Q 1022 303 1197 303 
Q 1434 303 1822 616 
z
" transform="scale(0.015625)"/>
       <path id="TimesNewRomanPSMT-4d" d="M 2619 0 
L 981 3566 
L 981 734 
Q 981 344 1066 247 
Q 1181 116 1431 116 
L 1581 116 
L 1581 0 
L 106 0 
L 106 116 
L 256 116 
Q 525 116 638 278 
Q 706 378 706 734 
L 706 3503 
Q 706 3784 644 3909 
Q 600 4000 483 4061 
Q 366 4122 106 4122 
L 106 4238 
L 1306 4238 
L 2844 922 
L 4356 4238 
L 5556 4238 
L 5556 4122 
L 5409 4122 
Q 5138 4122 5025 3959 
Q 4956 3859 4956 3503 
L 4956 734 
Q 4956 344 5044 247 
Q 5159 116 5409 116 
L 5556 116 
L 5556 0 
L 3756 0 
L 3756 116 
L 3906 116 
Q 4178 116 4288 278 
Q 4356 378 4356 734 
L 4356 3566 
L 2722 0 
L 2619 0 
z
" transform="scale(0.015625)"/>
       <path id="TimesNewRomanPSMT-73" d="M 2050 2947 
L 2050 1972 
L 1947 1972 
Q 1828 2431 1642 2597 
Q 1456 2763 1169 2763 
Q 950 2763 815 2647 
Q 681 2531 681 2391 
Q 681 2216 781 2091 
Q 878 1963 1175 1819 
L 1631 1597 
Q 2266 1288 2266 781 
Q 2266 391 1970 151 
Q 1675 -88 1309 -88 
Q 1047 -88 709 6 
Q 606 38 541 38 
Q 469 38 428 -44 
L 325 -44 
L 325 978 
L 428 978 
Q 516 541 762 319 
Q 1009 97 1316 97 
Q 1531 97 1667 223 
Q 1803 350 1803 528 
Q 1803 744 1651 891 
Q 1500 1038 1047 1263 
Q 594 1488 453 1669 
Q 313 1847 313 2119 
Q 313 2472 555 2709 
Q 797 2947 1181 2947 
Q 1350 2947 1591 2875 
Q 1750 2828 1803 2828 
Q 1853 2828 1881 2850 
Q 1909 2872 1947 2947 
L 2050 2947 
z
" transform="scale(0.015625)"/>
       <path id="TimesNewRomanPSMT-67" d="M 966 1044 
Q 703 1172 562 1401 
Q 422 1631 422 1909 
Q 422 2334 742 2640 
Q 1063 2947 1563 2947 
Q 1972 2947 2272 2747 
L 2878 2747 
Q 3013 2747 3034 2739 
Q 3056 2731 3066 2713 
Q 3084 2684 3084 2613 
Q 3084 2531 3069 2500 
Q 3059 2484 3036 2475 
Q 3013 2466 2878 2466 
L 2506 2466 
Q 2681 2241 2681 1891 
Q 2681 1491 2375 1206 
Q 2069 922 1553 922 
Q 1341 922 1119 984 
Q 981 866 932 777 
Q 884 688 884 625 
Q 884 572 936 522 
Q 988 472 1138 450 
Q 1225 438 1575 428 
Q 2219 413 2409 384 
Q 2700 344 2873 169 
Q 3047 -6 3047 -263 
Q 3047 -616 2716 -925 
Q 2228 -1381 1444 -1381 
Q 841 -1381 425 -1109 
Q 191 -953 191 -784 
Q 191 -709 225 -634 
Q 278 -519 444 -313 
Q 466 -284 763 25 
Q 600 122 533 198 
Q 466 275 466 372 
Q 466 481 555 628 
Q 644 775 966 1044 
z
M 1509 2797 
Q 1278 2797 1122 2612 
Q 966 2428 966 2047 
Q 966 1553 1178 1281 
Q 1341 1075 1591 1075 
Q 1828 1075 1981 1253 
Q 2134 1431 2134 1813 
Q 2134 2309 1919 2591 
Q 1759 2797 1509 2797 
z
M 934 0 
Q 788 -159 713 -296 
Q 638 -434 638 -550 
Q 638 -700 819 -813 
Q 1131 -1006 1722 -1006 
Q 2284 -1006 2551 -807 
Q 2819 -609 2819 -384 
Q 2819 -222 2659 -153 
Q 2497 -84 2016 -72 
Q 1313 -53 934 0 
z
" transform="scale(0.015625)"/>
       <path id="TimesNewRomanPSMT-28" d="M 1988 -1253 
L 1988 -1369 
Q 1516 -1131 1200 -813 
Q 750 -359 506 256 
Q 263 872 263 1534 
Q 263 2503 741 3301 
Q 1219 4100 1988 4444 
L 1988 4313 
Q 1603 4100 1356 3731 
Q 1109 3363 987 2797 
Q 866 2231 866 1616 
Q 866 947 969 400 
Q 1050 -31 1165 -292 
Q 1281 -553 1476 -793 
Q 1672 -1034 1988 -1253 
z
" transform="scale(0.015625)"/>
       <path id="TimesNewRomanPSMT-6c" d="M 1184 4444 
L 1184 647 
Q 1184 378 1223 290 
Q 1263 203 1344 158 
Q 1425 113 1647 113 
L 1647 0 
L 244 0 
L 244 113 
Q 441 113 512 153 
Q 584 194 625 287 
Q 666 381 666 647 
L 666 3247 
Q 666 3731 644 3842 
Q 622 3953 573 3993 
Q 525 4034 450 4034 
Q 369 4034 244 3984 
L 191 4094 
L 1044 4444 
L 1184 4444 
z
" transform="scale(0.015625)"/>
       <path id="TimesNewRomanPSMT-69" d="M 928 4444 
Q 1059 4444 1151 4351 
Q 1244 4259 1244 4128 
Q 1244 3997 1151 3903 
Q 1059 3809 928 3809 
Q 797 3809 703 3903 
Q 609 3997 609 4128 
Q 609 4259 701 4351 
Q 794 4444 928 4444 
z
M 1188 2947 
L 1188 647 
Q 1188 378 1227 289 
Q 1266 200 1342 156 
Q 1419 113 1622 113 
L 1622 0 
L 231 0 
L 231 113 
Q 441 113 512 153 
Q 584 194 626 287 
Q 669 381 669 647 
L 669 1750 
Q 669 2216 641 2353 
Q 619 2453 572 2492 
Q 525 2531 444 2531 
Q 356 2531 231 2484 
L 188 2597 
L 1050 2947 
L 1188 2947 
z
" transform="scale(0.015625)"/>
       <path id="TimesNewRomanPSMT-29" d="M 144 4313 
L 144 4444 
Q 619 4209 934 3891 
Q 1381 3434 1625 2820 
Q 1869 2206 1869 1541 
Q 1869 572 1392 -226 
Q 916 -1025 144 -1369 
L 144 -1253 
Q 528 -1038 776 -670 
Q 1025 -303 1145 264 
Q 1266 831 1266 1447 
Q 1266 2113 1163 2663 
Q 1084 3094 967 3353 
Q 850 3613 656 3853 
Q 463 4094 144 4313 
z
" transform="scale(0.015625)"/>
      </defs>
      <use xlink:href="#TimesNewRomanPSMT-50"/>
      <use xlink:href="#TimesNewRomanPSMT-65" x="55.615234"/>
      <use xlink:href="#TimesNewRomanPSMT-72" x="100"/>
      <use xlink:href="#TimesNewRomanPSMT-63" x="133.300781"/>
      <use xlink:href="#TimesNewRomanPSMT-65" x="177.685547"/>
      <use xlink:href="#TimesNewRomanPSMT-6e" x="222.070312"/>
      <use xlink:href="#TimesNewRomanPSMT-74" x="272.070312"/>
      <use xlink:href="#TimesNewRomanPSMT-20" x="299.853516"/>
      <use xlink:href="#TimesNewRomanPSMT-6f" x="324.853516"/>
      <use xlink:href="#TimesNewRomanPSMT-66" x="374.853516"/>
      <use xlink:href="#TimesNewRomanPSMT-20" x="408.154297"/>
      <use xlink:href="#TimesNewRomanPSMT-43" x="433.154297"/>
      <use xlink:href="#TimesNewRomanPSMT-68" x="499.853516"/>
      <use xlink:href="#TimesNewRomanPSMT-61" x="549.853516"/>
      <use xlink:href="#TimesNewRomanPSMT-74" x="594.238281"/>
      <use xlink:href="#TimesNewRomanPSMT-20" x="622.021484"/>
      <use xlink:href="#TimesNewRomanPSMT-4d" x="647.021484"/>
      <use xlink:href="#TimesNewRomanPSMT-65" x="735.9375"/>
      <use xlink:href="#TimesNewRomanPSMT-73" x="780.322266"/>
      <use xlink:href="#TimesNewRomanPSMT-73" x="819.238281"/>
      <use xlink:href="#TimesNewRomanPSMT-61" x="858.154297"/>
      <use xlink:href="#TimesNewRomanPSMT-67" x="902.539062"/>
      <use xlink:href="#TimesNewRomanPSMT-65" x="952.539062"/>
      <use xlink:href="#TimesNewRomanPSMT-73" x="996.923828"/>
      <use xlink:href="#TimesNewRomanPSMT-20" x="1035.839844"/>
      <use xlink:href="#TimesNewRomanPSMT-28" x="1060.839844"/>
      <use xlink:href="#TimesNewRomanPSMT-43" x="1094.140625"/>
      <use xlink:href="#TimesNewRomanPSMT-68" x="1160.839844"/>
      <use xlink:href="#TimesNewRomanPSMT-72" x="1210.839844"/>
      <use xlink:href="#TimesNewRomanPSMT-6f" x="1244.140625"/>
      <use xlink:href="#TimesNewRomanPSMT-6e" x="1294.140625"/>
      <use xlink:href="#TimesNewRomanPSMT-6f" x="1344.140625"/>
      <use xlink:href="#TimesNewRomanPSMT-6c" x="1394.140625"/>
      <use xlink:href="#TimesNewRomanPSMT-6f" x="1421.923828"/>
      <use xlink:href="#TimesNewRomanPSMT-67" x="1471.923828"/>
      <use xlink:href="#TimesNewRomanPSMT-69" x="1521.923828"/>
      <use xlink:href="#TimesNewRomanPSMT-63" x="1549.707031"/>
      <use xlink:href="#TimesNewRomanPSMT-61" x="1594.091797"/>
      <use xlink:href="#TimesNewRomanPSMT-6c" x="1638.476562"/>
      <use xlink:href="#TimesNewRomanPSMT-29" x="1666.259766"/>
     </g>
    </g>
   </g>
   <g id="matplotlib.axis_2">
    <g id="ytick_1">
     <g id="line2d_5">
      <defs>
       <path id="m66823c2ec4" d="M 0 0 
L -3.5 0 
" style="stroke: #000000; stroke-width: 0.8"/>
      </defs>
      <g>
       <use xlink:href="#m66823c2ec4" x="48.415938" y="232.675739" style="stroke: #000000; stroke-width: 0.8"/>
      </g>
     </g>
     <g id="text_6">
      <!-- 0.00 -->
      <g transform="translate(23.915938 236.147614) scale(0.1 -0.1)">
       <defs>
        <path id="TimesNewRomanPSMT-2e" d="M 800 606 
Q 947 606 1047 504 
Q 1147 403 1147 259 
Q 1147 116 1045 14 
Q 944 -88 800 -88 
Q 656 -88 554 14 
Q 453 116 453 259 
Q 453 406 554 506 
Q 656 606 800 606 
z
" transform="scale(0.015625)"/>
       </defs>
       <use xlink:href="#TimesNewRomanPSMT-30"/>
       <use xlink:href="#TimesNewRomanPSMT-2e" x="50"/>
       <use xlink:href="#TimesNewRomanPSMT-30" x="75"/>
       <use xlink:href="#TimesNewRomanPSMT-30" x="125"/>
      </g>
     </g>
    </g>
    <g id="ytick_2">
     <g id="line2d_6">
      <g>
       <use xlink:href="#m66823c2ec4" x="48.415938" y="206.178654" style="stroke: #000000; stroke-width: 0.8"/>
      </g>
     </g>
     <g id="text_7">
      <!-- 0.02 -->
      <g transform="translate(23.915938 209.650529) scale(0.1 -0.1)">
       <use xlink:href="#TimesNewRomanPSMT-30"/>
       <use xlink:href="#TimesNewRomanPSMT-2e" x="50"/>
       <use xlink:href="#TimesNewRomanPSMT-30" x="75"/>
       <use xlink:href="#TimesNewRomanPSMT-32" x="125"/>
      </g>
     </g>
    </g>
    <g id="ytick_3">
     <g id="line2d_7">
      <g>
       <use xlink:href="#m66823c2ec4" x="48.415938" y="179.681569" style="stroke: #000000; stroke-width: 0.8"/>
      </g>
     </g>
     <g id="text_8">
      <!-- 0.04 -->
      <g transform="translate(23.915938 183.153444) scale(0.1 -0.1)">
       <defs>
        <path id="TimesNewRomanPSMT-34" d="M 2978 1563 
L 2978 1119 
L 2409 1119 
L 2409 0 
L 1894 0 
L 1894 1119 
L 100 1119 
L 100 1519 
L 2066 4325 
L 2409 4325 
L 2409 1563 
L 2978 1563 
z
M 1894 1563 
L 1894 3666 
L 406 1563 
L 1894 1563 
z
" transform="scale(0.015625)"/>
       </defs>
       <use xlink:href="#TimesNewRomanPSMT-30"/>
       <use xlink:href="#TimesNewRomanPSMT-2e" x="50"/>
       <use xlink:href="#TimesNewRomanPSMT-30" x="75"/>
       <use xlink:href="#TimesNewRomanPSMT-34" x="125"/>
      </g>
     </g>
    </g>
    <g id="ytick_4">
     <g id="line2d_8">
      <g>
       <use xlink:href="#m66823c2ec4" x="48.415938" y="153.184485" style="stroke: #000000; stroke-width: 0.8"/>
      </g>
     </g>
     <g id="text_9">
      <!-- 0.06 -->
      <g transform="translate(23.915938 156.65636) scale(0.1 -0.1)">
       <defs>
        <path id="TimesNewRomanPSMT-36" d="M 2869 4325 
L 2869 4209 
Q 2456 4169 2195 4045 
Q 1934 3922 1679 3669 
Q 1425 3416 1258 3105 
Q 1091 2794 978 2366 
Q 1428 2675 1881 2675 
Q 2316 2675 2634 2325 
Q 2953 1975 2953 1425 
Q 2953 894 2631 456 
Q 2244 -75 1606 -75 
Q 1172 -75 869 213 
Q 275 772 275 1663 
Q 275 2231 503 2743 
Q 731 3256 1154 3653 
Q 1578 4050 1965 4187 
Q 2353 4325 2688 4325 
L 2869 4325 
z
M 925 2138 
Q 869 1716 869 1456 
Q 869 1156 980 804 
Q 1091 453 1309 247 
Q 1469 100 1697 100 
Q 1969 100 2183 356 
Q 2397 613 2397 1088 
Q 2397 1622 2184 2012 
Q 1972 2403 1581 2403 
Q 1463 2403 1327 2353 
Q 1191 2303 925 2138 
z
" transform="scale(0.015625)"/>
       </defs>
       <use xlink:href="#TimesNewRomanPSMT-30"/>
       <use xlink:href="#TimesNewRomanPSMT-2e" x="50"/>
       <use xlink:href="#TimesNewRomanPSMT-30" x="75"/>
       <use xlink:href="#TimesNewRomanPSMT-36" x="125"/>
      </g>
     </g>
    </g>
    <g id="ytick_5">
     <g id="line2d_9">
      <g>
       <use xlink:href="#m66823c2ec4" x="48.415938" y="126.6874" style="stroke: #000000; stroke-width: 0.8"/>
      </g>
     </g>
     <g id="text_10">
      <!-- 0.08 -->
      <g transform="translate(23.915938 130.159275) scale(0.1 -0.1)">
       <defs>
        <path id="TimesNewRomanPSMT-38" d="M 1228 2134 
Q 725 2547 579 2797 
Q 434 3047 434 3316 
Q 434 3728 753 4026 
Q 1072 4325 1600 4325 
Q 2113 4325 2425 4047 
Q 2738 3769 2738 3413 
Q 2738 3175 2569 2928 
Q 2400 2681 1866 2347 
Q 2416 1922 2594 1678 
Q 2831 1359 2831 1006 
Q 2831 559 2490 242 
Q 2150 -75 1597 -75 
Q 994 -75 656 303 
Q 388 606 388 966 
Q 388 1247 577 1523 
Q 766 1800 1228 2134 
z
M 1719 2469 
Q 2094 2806 2194 3001 
Q 2294 3197 2294 3444 
Q 2294 3772 2109 3958 
Q 1925 4144 1606 4144 
Q 1288 4144 1088 3959 
Q 888 3775 888 3528 
Q 888 3366 970 3203 
Q 1053 3041 1206 2894 
L 1719 2469 
z
M 1375 2016 
Q 1116 1797 991 1539 
Q 866 1281 866 981 
Q 866 578 1086 336 
Q 1306 94 1647 94 
Q 1984 94 2187 284 
Q 2391 475 2391 747 
Q 2391 972 2272 1150 
Q 2050 1481 1375 2016 
z
" transform="scale(0.015625)"/>
       </defs>
       <use xlink:href="#TimesNewRomanPSMT-30"/>
       <use xlink:href="#TimesNewRomanPSMT-2e" x="50"/>
       <use xlink:href="#TimesNewRomanPSMT-30" x="75"/>
       <use xlink:href="#TimesNewRomanPSMT-38" x="125"/>
      </g>
     </g>
    </g>
    <g id="ytick_6">
     <g id="line2d_10">
      <g>
       <use xlink:href="#m66823c2ec4" x="48.415938" y="100.190316" style="stroke: #000000; stroke-width: 0.8"/>
      </g>
     </g>
     <g id="text_11">
      <!-- 0.10 -->
      <g transform="translate(23.915938 103.662191) scale(0.1 -0.1)">
       <use xlink:href="#TimesNewRomanPSMT-30"/>
       <use xlink:href="#TimesNewRomanPSMT-2e" x="50"/>
       <use xlink:href="#TimesNewRomanPSMT-31" x="75"/>
       <use xlink:href="#TimesNewRomanPSMT-30" x="125"/>
      </g>
     </g>
    </g>
    <g id="ytick_7">
     <g id="line2d_11">
      <g>
       <use xlink:href="#m66823c2ec4" x="48.415938" y="73.693231" style="stroke: #000000; stroke-width: 0.8"/>
      </g>
     </g>
     <g id="text_12">
      <!-- 0.12 -->
      <g transform="translate(23.915938 77.165106) scale(0.1 -0.1)">
       <use xlink:href="#TimesNewRomanPSMT-30"/>
       <use xlink:href="#TimesNewRomanPSMT-2e" x="50"/>
       <use xlink:href="#TimesNewRomanPSMT-31" x="75"/>
       <use xlink:href="#TimesNewRomanPSMT-32" x="125"/>
      </g>
     </g>
    </g>
    <g id="ytick_8">
     <g id="line2d_12">
      <g>
       <use xlink:href="#m66823c2ec4" x="48.415938" y="47.196146" style="stroke: #000000; stroke-width: 0.8"/>
      </g>
     </g>
     <g id="text_13">
      <!-- 0.14 -->
      <g transform="translate(23.915938 50.668021) scale(0.1 -0.1)">
       <use xlink:href="#TimesNewRomanPSMT-30"/>
       <use xlink:href="#TimesNewRomanPSMT-2e" x="50"/>
       <use xlink:href="#TimesNewRomanPSMT-31" x="75"/>
       <use xlink:href="#TimesNewRomanPSMT-34" x="125"/>
      </g>
     </g>
    </g>
    <g id="text_14">
     <!-- Importance (SHAP value) -->
     <g transform="translate(16.92125 206.666719) rotate(-90) scale(0.14 -0.14)">
      <defs>
       <path id="TimesNewRomanPSMT-49" d="M 1975 116 
L 1975 0 
L 159 0 
L 159 116 
L 309 116 
Q 572 116 691 269 
Q 766 369 766 750 
L 766 3488 
Q 766 3809 725 3913 
Q 694 3991 597 4047 
Q 459 4122 309 4122 
L 159 4122 
L 159 4238 
L 1975 4238 
L 1975 4122 
L 1822 4122 
Q 1563 4122 1444 3969 
Q 1366 3869 1366 3488 
L 1366 750 
Q 1366 428 1406 325 
Q 1438 247 1538 191 
Q 1672 116 1822 116 
L 1975 116 
z
" transform="scale(0.015625)"/>
       <path id="TimesNewRomanPSMT-6d" d="M 1050 2338 
Q 1363 2650 1419 2697 
Q 1559 2816 1721 2881 
Q 1884 2947 2044 2947 
Q 2313 2947 2506 2790 
Q 2700 2634 2766 2338 
Q 3088 2713 3309 2830 
Q 3531 2947 3766 2947 
Q 3994 2947 4170 2830 
Q 4347 2713 4450 2447 
Q 4519 2266 4519 1878 
L 4519 647 
Q 4519 378 4559 278 
Q 4591 209 4675 161 
Q 4759 113 4950 113 
L 4950 0 
L 3538 0 
L 3538 113 
L 3597 113 
Q 3781 113 3884 184 
Q 3956 234 3988 344 
Q 4000 397 4000 647 
L 4000 1878 
Q 4000 2228 3916 2372 
Q 3794 2572 3525 2572 
Q 3359 2572 3192 2489 
Q 3025 2406 2788 2181 
L 2781 2147 
L 2788 2013 
L 2788 647 
Q 2788 353 2820 281 
Q 2853 209 2943 161 
Q 3034 113 3253 113 
L 3253 0 
L 1806 0 
L 1806 113 
Q 2044 113 2133 169 
Q 2222 225 2256 338 
Q 2272 391 2272 647 
L 2272 1878 
Q 2272 2228 2169 2381 
Q 2031 2581 1784 2581 
Q 1616 2581 1450 2491 
Q 1191 2353 1050 2181 
L 1050 647 
Q 1050 366 1089 281 
Q 1128 197 1204 155 
Q 1281 113 1516 113 
L 1516 0 
L 100 0 
L 100 113 
Q 297 113 375 155 
Q 453 197 493 289 
Q 534 381 534 647 
L 534 1741 
Q 534 2213 506 2350 
Q 484 2453 437 2492 
Q 391 2531 309 2531 
Q 222 2531 100 2484 
L 53 2597 
L 916 2947 
L 1050 2947 
L 1050 2338 
z
" transform="scale(0.015625)"/>
       <path id="TimesNewRomanPSMT-70" d="M -6 2578 
L 875 2934 
L 994 2934 
L 994 2266 
Q 1216 2644 1439 2795 
Q 1663 2947 1909 2947 
Q 2341 2947 2628 2609 
Q 2981 2197 2981 1534 
Q 2981 794 2556 309 
Q 2206 -88 1675 -88 
Q 1444 -88 1275 -22 
Q 1150 25 994 166 
L 994 -706 
Q 994 -1000 1030 -1079 
Q 1066 -1159 1155 -1206 
Q 1244 -1253 1478 -1253 
L 1478 -1369 
L -22 -1369 
L -22 -1253 
L 56 -1253 
Q 228 -1256 350 -1188 
Q 409 -1153 442 -1076 
Q 475 -1000 475 -688 
L 475 2019 
Q 475 2297 450 2372 
Q 425 2447 370 2484 
Q 316 2522 222 2522 
Q 147 2522 31 2478 
L -6 2578 
z
M 994 2081 
L 994 1013 
Q 994 666 1022 556 
Q 1066 375 1236 237 
Q 1406 100 1666 100 
Q 1978 100 2172 344 
Q 2425 663 2425 1241 
Q 2425 1897 2138 2250 
Q 1938 2494 1663 2494 
Q 1513 2494 1366 2419 
Q 1253 2363 994 2081 
z
" transform="scale(0.015625)"/>
       <path id="TimesNewRomanPSMT-53" d="M 2934 4334 
L 2934 2869 
L 2819 2869 
Q 2763 3291 2617 3541 
Q 2472 3791 2203 3937 
Q 1934 4084 1647 4084 
Q 1322 4084 1109 3886 
Q 897 3688 897 3434 
Q 897 3241 1031 3081 
Q 1225 2847 1953 2456 
Q 2547 2138 2764 1967 
Q 2981 1797 3098 1565 
Q 3216 1334 3216 1081 
Q 3216 600 2842 251 
Q 2469 -97 1881 -97 
Q 1697 -97 1534 -69 
Q 1438 -53 1133 45 
Q 828 144 747 144 
Q 669 144 623 97 
Q 578 50 556 -97 
L 441 -97 
L 441 1356 
L 556 1356 
Q 638 900 775 673 
Q 913 447 1195 297 
Q 1478 147 1816 147 
Q 2206 147 2432 353 
Q 2659 559 2659 841 
Q 2659 997 2573 1156 
Q 2488 1316 2306 1453 
Q 2184 1547 1640 1851 
Q 1097 2156 867 2337 
Q 638 2519 519 2737 
Q 400 2956 400 3219 
Q 400 3675 750 4004 
Q 1100 4334 1641 4334 
Q 1978 4334 2356 4169 
Q 2531 4091 2603 4091 
Q 2684 4091 2736 4139 
Q 2788 4188 2819 4334 
L 2934 4334 
z
" transform="scale(0.015625)"/>
       <path id="TimesNewRomanPSMT-48" d="M 1316 2272 
L 3284 2272 
L 3284 3484 
Q 3284 3809 3244 3913 
Q 3213 3991 3113 4047 
Q 2978 4122 2828 4122 
L 2678 4122 
L 2678 4238 
L 4491 4238 
L 4491 4122 
L 4341 4122 
Q 4191 4122 4056 4050 
Q 3956 4000 3920 3898 
Q 3884 3797 3884 3484 
L 3884 750 
Q 3884 428 3925 325 
Q 3956 247 4053 191 
Q 4191 116 4341 116 
L 4491 116 
L 4491 0 
L 2678 0 
L 2678 116 
L 2828 116 
Q 3088 116 3206 269 
Q 3284 369 3284 750 
L 3284 2041 
L 1316 2041 
L 1316 750 
Q 1316 428 1356 325 
Q 1388 247 1488 191 
Q 1622 116 1772 116 
L 1925 116 
L 1925 0 
L 109 0 
L 109 116 
L 259 116 
Q 522 116 641 269 
Q 716 369 716 750 
L 716 3484 
Q 716 3809 675 3913 
Q 644 3991 547 4047 
Q 409 4122 259 4122 
L 109 4122 
L 109 4238 
L 1925 4238 
L 1925 4122 
L 1772 4122 
Q 1622 4122 1488 4050 
Q 1391 4000 1353 3898 
Q 1316 3797 1316 3484 
L 1316 2272 
z
" transform="scale(0.015625)"/>
       <path id="TimesNewRomanPSMT-41" d="M 2928 1419 
L 1288 1419 
L 1000 750 
Q 894 503 894 381 
Q 894 284 986 211 
Q 1078 138 1384 116 
L 1384 0 
L 50 0 
L 50 116 
Q 316 163 394 238 
Q 553 388 747 847 
L 2238 4334 
L 2347 4334 
L 3822 809 
Q 4000 384 4145 257 
Q 4291 131 4550 116 
L 4550 0 
L 2878 0 
L 2878 116 
Q 3131 128 3220 200 
Q 3309 272 3309 375 
Q 3309 513 3184 809 
L 2928 1419 
z
M 2841 1650 
L 2122 3363 
L 1384 1650 
L 2841 1650 
z
" transform="scale(0.015625)"/>
       <path id="TimesNewRomanPSMT-76" d="M 53 2863 
L 1400 2863 
L 1400 2747 
L 1313 2747 
Q 1191 2747 1127 2687 
Q 1063 2628 1063 2528 
Q 1063 2419 1128 2269 
L 1794 688 
L 2463 2328 
Q 2534 2503 2534 2594 
Q 2534 2638 2509 2666 
Q 2475 2713 2422 2730 
Q 2369 2747 2206 2747 
L 2206 2863 
L 3141 2863 
L 3141 2747 
Q 2978 2734 2916 2681 
Q 2806 2588 2719 2369 
L 1703 -88 
L 1575 -88 
L 553 2328 
Q 484 2497 421 2570 
Q 359 2644 263 2694 
Q 209 2722 53 2747 
L 53 2863 
z
" transform="scale(0.015625)"/>
       <path id="TimesNewRomanPSMT-75" d="M 2709 2863 
L 2709 1128 
Q 2709 631 2732 520 
Q 2756 409 2807 365 
Q 2859 322 2928 322 
Q 3025 322 3147 375 
L 3191 266 
L 2334 -88 
L 2194 -88 
L 2194 519 
Q 1825 119 1631 15 
Q 1438 -88 1222 -88 
Q 981 -88 804 51 
Q 628 191 559 409 
Q 491 628 491 1028 
L 491 2306 
Q 491 2509 447 2587 
Q 403 2666 317 2708 
Q 231 2750 6 2747 
L 6 2863 
L 1009 2863 
L 1009 947 
Q 1009 547 1148 422 
Q 1288 297 1484 297 
Q 1619 297 1789 381 
Q 1959 466 2194 703 
L 2194 2325 
Q 2194 2569 2105 2655 
Q 2016 2741 1734 2747 
L 1734 2863 
L 2709 2863 
z
" transform="scale(0.015625)"/>
      </defs>
      <use xlink:href="#TimesNewRomanPSMT-49"/>
      <use xlink:href="#TimesNewRomanPSMT-6d" x="33.300781"/>
      <use xlink:href="#TimesNewRomanPSMT-70" x="111.083984"/>
      <use xlink:href="#TimesNewRomanPSMT-6f" x="161.083984"/>
      <use xlink:href="#TimesNewRomanPSMT-72" x="211.083984"/>
      <use xlink:href="#TimesNewRomanPSMT-74" x="244.384766"/>
      <use xlink:href="#TimesNewRomanPSMT-61" x="272.167969"/>
      <use xlink:href="#TimesNewRomanPSMT-6e" x="316.552734"/>
      <use xlink:href="#TimesNewRomanPSMT-63" x="366.552734"/>
      <use xlink:href="#TimesNewRomanPSMT-65" x="410.9375"/>
      <use xlink:href="#TimesNewRomanPSMT-20" x="455.322266"/>
      <use xlink:href="#TimesNewRomanPSMT-28" x="480.322266"/>
      <use xlink:href="#TimesNewRomanPSMT-53" x="513.623047"/>
      <use xlink:href="#TimesNewRomanPSMT-48" x="569.238281"/>
      <use xlink:href="#TimesNewRomanPSMT-41" x="641.455078"/>
      <use xlink:href="#TimesNewRomanPSMT-50" x="713.671875"/>
      <use xlink:href="#TimesNewRomanPSMT-20" x="765.537109"/>
      <use xlink:href="#TimesNewRomanPSMT-76" x="790.537109"/>
      <use xlink:href="#TimesNewRomanPSMT-61" x="840.537109"/>
      <use xlink:href="#TimesNewRomanPSMT-6c" x="884.921875"/>
      <use xlink:href="#TimesNewRomanPSMT-75" x="912.705078"/>
      <use xlink:href="#TimesNewRomanPSMT-65" x="962.705078"/>
      <use xlink:href="#TimesNewRomanPSMT-29" x="1007.089844"/>
     </g>
    </g>
   </g>
   <g id="line2d_13">
    <path d="M 63.634119 128.976691 
L 165.088665 128.976691 
L 266.54321 128.976691 
L 367.997756 113.261987 
" clip-path="url(#p096a4a7b4d)" style="fill: none; stroke: #cc8150; stroke-width: 3; stroke-linecap: square"/>
    <defs>
     <path id="m2c6651d016" d="M 0 3 
C 0.795609 3 1.55874 2.683901 2.12132 2.12132 
C 2.683901 1.55874 3 0.795609 3 0 
C 3 -0.795609 2.683901 -1.55874 2.12132 -2.12132 
C 1.55874 -2.683901 0.795609 -3 0 -3 
C -0.795609 -3 -1.55874 -2.683901 -2.12132 -2.12132 
C -2.683901 -1.55874 -3 -0.795609 -3 0 
C -3 0.795609 -2.683901 1.55874 -2.12132 2.12132 
C -1.55874 2.683901 -0.795609 3 0 3 
z
" style="stroke: #cc8150"/>
    </defs>
    <g clip-path="url(#p096a4a7b4d)">
     <use xlink:href="#m2c6651d016" x="63.634119" y="128.976691" style="fill: #cc8150; stroke: #cc8150"/>
     <use xlink:href="#m2c6651d016" x="165.088665" y="128.976691" style="fill: #cc8150; stroke: #cc8150"/>
     <use xlink:href="#m2c6651d016" x="266.54321" y="128.976691" style="fill: #cc8150; stroke: #cc8150"/>
     <use xlink:href="#m2c6651d016" x="367.997756" y="113.261987" style="fill: #cc8150; stroke: #cc8150"/>
    </g>
   </g>
   <g id="line2d_14">
    <path d="M 63.634119 139.341263 
L 165.088665 139.341263 
L 266.54321 139.341263 
L 367.997756 53.550573 
" clip-path="url(#p096a4a7b4d)" style="fill: none; stroke: #cc92af; stroke-width: 3; stroke-linecap: square"/>
    <defs>
     <path id="m5a256e2a26" d="M 0 3 
C 0.795609 3 1.55874 2.683901 2.12132 2.12132 
C 2.683901 1.55874 3 0.795609 3 0 
C 3 -0.795609 2.683901 -1.55874 2.12132 -2.12132 
C 1.55874 -2.683901 0.795609 -3 0 -3 
C -0.795609 -3 -1.55874 -2.683901 -2.12132 -2.12132 
C -2.683901 -1.55874 -3 -0.795609 -3 0 
C -3 0.795609 -2.683901 1.55874 -2.12132 2.12132 
C -1.55874 2.683901 -0.795609 3 0 3 
z
" style="stroke: #cc92af"/>
    </defs>
    <g clip-path="url(#p096a4a7b4d)">
     <use xlink:href="#m5a256e2a26" x="63.634119" y="139.341263" style="fill: #cc92af; stroke: #cc92af"/>
     <use xlink:href="#m5a256e2a26" x="165.088665" y="139.341263" style="fill: #cc92af; stroke: #cc92af"/>
     <use xlink:href="#m5a256e2a26" x="266.54321" y="139.341263" style="fill: #cc92af; stroke: #cc92af"/>
     <use xlink:href="#m5a256e2a26" x="367.997756" y="53.550573" style="fill: #cc92af; stroke: #cc92af"/>
    </g>
   </g>
   <g id="line2d_15">
    <path d="M 63.634119 77.102434 
L 165.088665 77.102434 
L 266.54321 77.102434 
L 367.997756 97.820641 
" clip-path="url(#p096a4a7b4d)" style="fill: none; stroke: #b8a4cc; stroke-width: 3; stroke-linecap: square"/>
    <defs>
     <path id="m8fd102b3dc" d="M 0 3 
C 0.795609 3 1.55874 2.683901 2.12132 2.12132 
C 2.683901 1.55874 3 0.795609 3 0 
C 3 -0.795609 2.683901 -1.55874 2.12132 -2.12132 
C 1.55874 -2.683901 0.795609 -3 0 -3 
C -0.795609 -3 -1.55874 -2.683901 -2.12132 -2.12132 
C -2.683901 -1.55874 -3 -0.795609 -3 0 
C -3 0.795609 -2.683901 1.55874 -2.12132 2.12132 
C -1.55874 2.683901 -0.795609 3 0 3 
z
" style="stroke: #b8a4cc"/>
    </defs>
    <g clip-path="url(#p096a4a7b4d)">
     <use xlink:href="#m8fd102b3dc" x="63.634119" y="77.102434" style="fill: #b8a4cc; stroke: #b8a4cc"/>
     <use xlink:href="#m8fd102b3dc" x="165.088665" y="77.102434" style="fill: #b8a4cc; stroke: #b8a4cc"/>
     <use xlink:href="#m8fd102b3dc" x="266.54321" y="77.102434" style="fill: #b8a4cc; stroke: #b8a4cc"/>
     <use xlink:href="#m8fd102b3dc" x="367.997756" y="97.820641" style="fill: #b8a4cc; stroke: #b8a4cc"/>
    </g>
   </g>
   <g id="line2d_16">
    <path d="M 63.634119 116.026306 
L 165.088665 232.675739 
L 266.54321 116.026306 
L 367.997756 232.675739 
" clip-path="url(#p096a4a7b4d)" style="fill: none; stroke-dasharray: 11.1,4.8; stroke-dashoffset: 0; stroke: #57a5cc; stroke-width: 3"/>
    <defs>
     <path id="m5963d1cbb8" d="M 0 3 
C 0.795609 3 1.55874 2.683901 2.12132 2.12132 
C 2.683901 1.55874 3 0.795609 3 0 
C 3 -0.795609 2.683901 -1.55874 2.12132 -2.12132 
C 1.55874 -2.683901 0.795609 -3 0 -3 
C -0.795609 -3 -1.55874 -2.683901 -2.12132 -2.12132 
C -2.683901 -1.55874 -3 -0.795609 -3 0 
C -3 0.795609 -2.683901 1.55874 -2.12132 2.12132 
C -1.55874 2.683901 -0.795609 3 0 3 
z
" style="stroke: #57a5cc"/>
    </defs>
    <g clip-path="url(#p096a4a7b4d)">
     <use xlink:href="#m5963d1cbb8" x="63.634119" y="116.026306" style="fill: #57a5cc; stroke: #57a5cc"/>
     <use xlink:href="#m5963d1cbb8" x="165.088665" y="232.675739" style="fill: #57a5cc; stroke: #57a5cc"/>
     <use xlink:href="#m5963d1cbb8" x="266.54321" y="116.026306" style="fill: #57a5cc; stroke: #57a5cc"/>
     <use xlink:href="#m5963d1cbb8" x="367.997756" y="232.675739" style="fill: #57a5cc; stroke: #57a5cc"/>
    </g>
   </g>
   <g id="line2d_17">
    <path d="M 63.634119 232.675739 
L 165.088665 116.026306 
L 266.54321 232.675739 
L 367.997756 232.675739 
" clip-path="url(#p096a4a7b4d)" style="fill: none; stroke-dasharray: 11.1,4.8; stroke-dashoffset: 0; stroke: #89cc09; stroke-width: 3"/>
    <defs>
     <path id="m642ef78436" d="M 0 3 
C 0.795609 3 1.55874 2.683901 2.12132 2.12132 
C 2.683901 1.55874 3 0.795609 3 0 
C 3 -0.795609 2.683901 -1.55874 2.12132 -2.12132 
C 1.55874 -2.683901 0.795609 -3 0 -3 
C -0.795609 -3 -1.55874 -2.683901 -2.12132 -2.12132 
C -2.683901 -1.55874 -3 -0.795609 -3 0 
C -3 0.795609 -2.683901 1.55874 -2.12132 2.12132 
C -1.55874 2.683901 -0.795609 3 0 3 
z
" style="stroke: #89cc09"/>
    </defs>
    <g clip-path="url(#p096a4a7b4d)">
     <use xlink:href="#m642ef78436" x="63.634119" y="232.675739" style="fill: #89cc09; stroke: #89cc09"/>
     <use xlink:href="#m642ef78436" x="165.088665" y="116.026306" style="fill: #89cc09; stroke: #89cc09"/>
     <use xlink:href="#m642ef78436" x="266.54321" y="232.675739" style="fill: #89cc09; stroke: #89cc09"/>
     <use xlink:href="#m642ef78436" x="367.997756" y="232.675739" style="fill: #89cc09; stroke: #89cc09"/>
    </g>
   </g>
   <g id="line2d_18">
    <path d="M 63.634119 35.003011 
L 165.088665 35.003011 
L 266.54321 35.003011 
L 367.997756 232.675739 
" clip-path="url(#p096a4a7b4d)" style="fill: none; stroke-dasharray: 11.1,4.8; stroke-dashoffset: 0; stroke: #786ecc; stroke-width: 3"/>
    <defs>
     <path id="m4bd7a2916a" d="M 0 3 
C 0.795609 3 1.55874 2.683901 2.12132 2.12132 
C 2.683901 1.55874 3 0.795609 3 0 
C 3 -0.795609 2.683901 -1.55874 2.12132 -2.12132 
C 1.55874 -2.683901 0.795609 -3 0 -3 
C -0.795609 -3 -1.55874 -2.683901 -2.12132 -2.12132 
C -2.683901 -1.55874 -3 -0.795609 -3 0 
C -3 0.795609 -2.683901 1.55874 -2.12132 2.12132 
C -1.55874 2.683901 -0.795609 3 0 3 
z
" style="stroke: #786ecc"/>
    </defs>
    <g clip-path="url(#p096a4a7b4d)">
     <use xlink:href="#m4bd7a2916a" x="63.634119" y="35.003011" style="fill: #786ecc; stroke: #786ecc"/>
     <use xlink:href="#m4bd7a2916a" x="165.088665" y="35.003011" style="fill: #786ecc; stroke: #786ecc"/>
     <use xlink:href="#m4bd7a2916a" x="266.54321" y="35.003011" style="fill: #786ecc; stroke: #786ecc"/>
     <use xlink:href="#m4bd7a2916a" x="367.997756" y="232.675739" style="fill: #786ecc; stroke: #786ecc"/>
    </g>
   </g>
   <g id="line2d_19">
    <path d="M 63.634119 232.675739 
L 165.088665 232.675739 
L 266.54321 232.675739 
L 367.997756 122.643024 
" clip-path="url(#p096a4a7b4d)" style="fill: none; stroke-dasharray: 11.1,4.8; stroke-dashoffset: 0; stroke: #baccc6; stroke-width: 3"/>
    <defs>
     <path id="m46973cfcaf" d="M 0 3 
C 0.795609 3 1.55874 2.683901 2.12132 2.12132 
C 2.683901 1.55874 3 0.795609 3 0 
C 3 -0.795609 2.683901 -1.55874 2.12132 -2.12132 
C 1.55874 -2.683901 0.795609 -3 0 -3 
C -0.795609 -3 -1.55874 -2.683901 -2.12132 -2.12132 
C -2.683901 -1.55874 -3 -0.795609 -3 0 
C -3 0.795609 -2.683901 1.55874 -2.12132 2.12132 
C -1.55874 2.683901 -0.795609 3 0 3 
z
" style="stroke: #baccc6"/>
    </defs>
    <g clip-path="url(#p096a4a7b4d)">
     <use xlink:href="#m46973cfcaf" x="63.634119" y="232.675739" style="fill: #baccc6; stroke: #baccc6"/>
     <use xlink:href="#m46973cfcaf" x="165.088665" y="232.675739" style="fill: #baccc6; stroke: #baccc6"/>
     <use xlink:href="#m46973cfcaf" x="266.54321" y="232.675739" style="fill: #baccc6; stroke: #baccc6"/>
     <use xlink:href="#m46973cfcaf" x="367.997756" y="122.643024" style="fill: #baccc6; stroke: #baccc6"/>
    </g>
   </g>
   <g id="line2d_20">
    <path d="M 63.634119 232.675739 
L 165.088665 232.675739 
L 266.54321 232.675739 
L 367.997756 140.301129 
" clip-path="url(#p096a4a7b4d)" style="fill: none; stroke-dasharray: 11.1,4.8; stroke-dashoffset: 0; stroke: #b9c2cc; stroke-width: 3"/>
    <defs>
     <path id="ma5e5af34ba" d="M 0 3 
C 0.795609 3 1.55874 2.683901 2.12132 2.12132 
C 2.683901 1.55874 3 0.795609 3 0 
C 3 -0.795609 2.683901 -1.55874 2.12132 -2.12132 
C 1.55874 -2.683901 0.795609 -3 0 -3 
C -0.795609 -3 -1.55874 -2.683901 -2.12132 -2.12132 
C -2.683901 -1.55874 -3 -0.795609 -3 0 
C -3 0.795609 -2.683901 1.55874 -2.12132 2.12132 
C -1.55874 2.683901 -0.795609 3 0 3 
z
" style="stroke: #b9c2cc"/>
    </defs>
    <g clip-path="url(#p096a4a7b4d)">
     <use xlink:href="#ma5e5af34ba" x="63.634119" y="232.675739" style="fill: #b9c2cc; stroke: #b9c2cc"/>
     <use xlink:href="#ma5e5af34ba" x="165.088665" y="232.675739" style="fill: #b9c2cc; stroke: #b9c2cc"/>
     <use xlink:href="#ma5e5af34ba" x="266.54321" y="232.675739" style="fill: #b9c2cc; stroke: #b9c2cc"/>
     <use xlink:href="#ma5e5af34ba" x="367.997756" y="140.301129" style="fill: #b9c2cc; stroke: #b9c2cc"/>
    </g>
   </g>
   <g id="patch_3">
    <path d="M 48.415938 242.559375 
L 48.415938 25.119375 
" style="fill: none; stroke: #000000; stroke-width: 0.8; stroke-linejoin: miter; stroke-linecap: square"/>
   </g>
   <g id="patch_4">
    <path d="M 383.215937 242.559375 
L 383.215937 25.119375 
" style="fill: none; stroke: #000000; stroke-width: 0.8; stroke-linejoin: miter; stroke-linecap: square"/>
   </g>
   <g id="patch_5">
    <path d="M 48.415938 242.559375 
L 383.215937 242.559375 
" style="fill: none; stroke: #000000; stroke-width: 0.8; stroke-linejoin: miter; stroke-linecap: square"/>
   </g>
   <g id="patch_6">
    <path d="M 48.415938 25.119375 
L 383.215937 25.119375 
" style="fill: none; stroke: #000000; stroke-width: 0.8; stroke-linejoin: miter; stroke-linecap: square"/>
   </g>
   <g id="text_15">
    <!-- Mock Jury -->
    <g transform="translate(173.570781 19.119375) scale(0.18 -0.18)">
     <defs>
      <path id="TimesNewRomanPS-BoldMT-4d" d="M 3050 1444 
L 4200 4238 
L 5925 4238 
L 5925 4122 
L 5788 4122 
Q 5600 4122 5488 4056 
Q 5409 4013 5363 3909 
Q 5328 3834 5328 3519 
L 5328 725 
Q 5328 400 5362 319 
Q 5397 238 5503 177 
Q 5609 116 5788 116 
L 5925 116 
L 5925 0 
L 3713 0 
L 3713 116 
L 3850 116 
Q 4038 116 4150 181 
Q 4228 225 4275 331 
Q 4309 406 4309 725 
L 4309 3866 
L 2684 0 
L 2609 0 
L 959 3838 
L 959 853 
Q 959 541 975 469 
Q 1016 313 1152 214 
Q 1288 116 1578 116 
L 1578 0 
L 128 0 
L 128 116 
L 172 116 
Q 313 113 434 161 
Q 556 209 618 290 
Q 681 372 716 519 
Q 722 553 722 838 
L 722 3519 
Q 722 3841 687 3920 
Q 653 4000 547 4061 
Q 441 4122 263 4122 
L 128 4122 
L 128 4238 
L 1859 4238 
L 3050 1444 
z
" transform="scale(0.015625)"/>
      <path id="TimesNewRomanPS-BoldMT-6f" d="M 1594 3009 
Q 1975 3009 2303 2812 
Q 2631 2616 2801 2253 
Q 2972 1891 2972 1459 
Q 2972 838 2656 419 
Q 2275 -88 1603 -88 
Q 944 -88 587 375 
Q 231 838 231 1447 
Q 231 2075 595 2542 
Q 959 3009 1594 3009 
z
M 1606 2788 
Q 1447 2788 1333 2667 
Q 1219 2547 1183 2192 
Q 1147 1838 1147 1206 
Q 1147 872 1191 581 
Q 1225 359 1337 243 
Q 1450 128 1594 128 
Q 1734 128 1828 206 
Q 1950 313 1991 503 
Q 2053 800 2053 1703 
Q 2053 2234 1993 2432 
Q 1934 2631 1819 2722 
Q 1738 2788 1606 2788 
z
" transform="scale(0.015625)"/>
      <path id="TimesNewRomanPS-BoldMT-63" d="M 2600 753 
L 2697 678 
Q 2491 291 2183 101 
Q 1875 -88 1528 -88 
Q 944 -88 594 353 
Q 244 794 244 1413 
Q 244 2009 563 2463 
Q 947 3009 1622 3009 
Q 2075 3009 2342 2781 
Q 2609 2553 2609 2272 
Q 2609 2094 2501 1987 
Q 2394 1881 2219 1881 
Q 2034 1881 1914 2003 
Q 1794 2125 1766 2438 
Q 1747 2634 1675 2713 
Q 1603 2791 1506 2791 
Q 1356 2791 1250 2631 
Q 1088 2391 1088 1894 
Q 1088 1481 1219 1104 
Q 1350 728 1578 544 
Q 1750 409 1984 409 
Q 2138 409 2275 481 
Q 2413 553 2600 753 
z
" transform="scale(0.015625)"/>
      <path id="TimesNewRomanPS-BoldMT-6b" d="M 1403 4238 
L 1403 1450 
L 2081 2116 
Q 2291 2319 2342 2409 
Q 2394 2500 2394 2584 
Q 2394 2669 2325 2725 
Q 2256 2781 2056 2806 
L 2056 2922 
L 3366 2922 
L 3366 2806 
Q 3178 2797 3037 2717 
Q 2897 2638 2488 2238 
L 2169 1925 
L 2856 919 
Q 3272 306 3350 231 
Q 3456 125 3619 113 
L 3619 0 
L 2109 0 
L 2109 113 
Q 2209 113 2254 150 
Q 2300 188 2300 231 
Q 2300 303 2169 497 
L 1591 1344 
L 1403 1159 
L 1403 634 
Q 1403 300 1465 217 
Q 1528 134 1722 113 
L 1722 0 
L 213 0 
L 213 113 
Q 397 131 475 231 
Q 528 300 528 634 
L 528 3603 
Q 528 3934 467 4015 
Q 406 4097 213 4122 
L 213 4238 
L 1403 4238 
z
" transform="scale(0.015625)"/>
      <path id="TimesNewRomanPS-BoldMT-20" transform="scale(0.015625)"/>
      <path id="TimesNewRomanPS-BoldMT-4a" d="M 909 4122 
L 909 4238 
L 3163 4238 
L 3163 4122 
L 3025 4122 
Q 2838 4122 2725 4056 
Q 2647 4013 2600 3906 
Q 2566 3831 2566 3513 
L 2566 1438 
Q 2566 828 2444 551 
Q 2322 275 2011 89 
Q 1700 -97 1263 -97 
Q 728 -97 398 184 
Q 69 466 69 806 
Q 69 1025 203 1161 
Q 338 1297 531 1297 
Q 722 1297 851 1175 
Q 981 1053 981 875 
Q 981 788 959 722 
Q 947 691 861 564 
Q 775 438 775 384 
Q 775 303 856 244 
Q 975 156 1166 156 
Q 1300 156 1387 225 
Q 1475 294 1511 439 
Q 1547 584 1547 1247 
L 1547 3513 
Q 1547 3838 1511 3919 
Q 1475 4000 1370 4061 
Q 1266 4122 1088 4122 
L 909 4122 
z
" transform="scale(0.015625)"/>
      <path id="TimesNewRomanPS-BoldMT-75" d="M 3038 2922 
L 3038 634 
Q 3038 300 3100 217 
Q 3163 134 3353 113 
L 3353 0 
L 2163 0 
L 2163 391 
Q 1953 141 1743 26 
Q 1534 -88 1275 -88 
Q 1028 -88 836 64 
Q 644 216 578 419 
Q 513 622 513 1128 
L 513 2288 
Q 513 2619 452 2700 
Q 391 2781 197 2806 
L 197 2922 
L 1388 2922 
L 1388 925 
Q 1388 613 1417 522 
Q 1447 431 1511 384 
Q 1575 338 1659 338 
Q 1772 338 1863 397 
Q 1988 478 2163 725 
L 2163 2288 
Q 2163 2619 2102 2700 
Q 2041 2781 1847 2806 
L 1847 2922 
L 3038 2922 
z
" transform="scale(0.015625)"/>
      <path id="TimesNewRomanPS-BoldMT-72" d="M 1428 2922 
L 1428 2259 
Q 1719 2713 1937 2861 
Q 2156 3009 2359 3009 
Q 2534 3009 2639 2901 
Q 2744 2794 2744 2597 
Q 2744 2388 2642 2272 
Q 2541 2156 2397 2156 
Q 2231 2156 2109 2262 
Q 1988 2369 1966 2381 
Q 1934 2400 1894 2400 
Q 1803 2400 1722 2331 
Q 1594 2225 1528 2028 
Q 1428 1725 1428 1359 
L 1428 688 
L 1431 513 
Q 1431 334 1453 284 
Q 1491 200 1564 161 
Q 1638 122 1813 113 
L 1813 0 
L 234 0 
L 234 113 
Q 425 128 492 217 
Q 559 306 559 688 
L 559 2303 
Q 559 2553 534 2622 
Q 503 2709 443 2750 
Q 384 2791 234 2806 
L 234 2922 
L 1428 2922 
z
" transform="scale(0.015625)"/>
      <path id="TimesNewRomanPS-BoldMT-79" d="M 1556 -119 
L 613 2047 
Q 400 2538 298 2650 
Q 197 2763 53 2806 
L 53 2922 
L 1606 2922 
L 1606 2806 
Q 1453 2800 1390 2747 
Q 1328 2694 1328 2619 
Q 1328 2500 1484 2150 
L 1984 1006 
L 2325 1891 
Q 2509 2363 2509 2547 
Q 2509 2663 2432 2731 
Q 2356 2800 2163 2806 
L 2163 2922 
L 3141 2922 
L 3141 2806 
Q 2997 2791 2906 2695 
Q 2816 2600 2603 2047 
L 1769 -119 
Q 1453 -931 1300 -1119 
Q 1084 -1381 759 -1381 
Q 500 -1381 339 -1232 
Q 178 -1084 178 -875 
Q 178 -694 289 -575 
Q 400 -456 563 -456 
Q 719 -456 814 -556 
Q 909 -656 913 -866 
Q 916 -984 941 -1019 
Q 966 -1053 1013 -1053 
Q 1088 -1053 1172 -963 
Q 1297 -831 1466 -363 
L 1556 -119 
z
" transform="scale(0.015625)"/>
     </defs>
     <use xlink:href="#TimesNewRomanPS-BoldMT-4d"/>
     <use xlink:href="#TimesNewRomanPS-BoldMT-6f" x="94.384766"/>
     <use xlink:href="#TimesNewRomanPS-BoldMT-63" x="144.384766"/>
     <use xlink:href="#TimesNewRomanPS-BoldMT-6b" x="188.769531"/>
     <use xlink:href="#TimesNewRomanPS-BoldMT-20" x="244.384766"/>
     <use xlink:href="#TimesNewRomanPS-BoldMT-4a" x="269.384766"/>
     <use xlink:href="#TimesNewRomanPS-BoldMT-75" x="319.384766"/>
     <use xlink:href="#TimesNewRomanPS-BoldMT-72" x="375"/>
     <use xlink:href="#TimesNewRomanPS-BoldMT-79" x="419.384766"/>
    </g>
   </g>
   <g id="legend_1">
    <g id="patch_7">
     <path d="M 408.355937 170.634375 
L 652.023438 170.634375 
Q 654.423437 170.634375 654.423437 168.234375 
L 654.423437 33.519375 
Q 654.423437 31.119375 652.023438 31.119375 
L 408.355937 31.119375 
Q 405.955938 31.119375 405.955938 33.519375 
L 405.955938 168.234375 
Q 405.955938 170.634375 408.355937 170.634375 
z
" style="fill: #ffffff; opacity: 0.8; stroke: #cccccc; stroke-linejoin: miter"/>
    </g>
    <g id="line2d_21">
     <path d="M 410.755938 40.119375 
L 422.755938 40.119375 
L 434.755938 40.119375 
" style="fill: none; stroke: #cc8150; stroke-width: 3; stroke-linecap: square"/>
     <g>
      <use xlink:href="#m2c6651d016" x="422.755938" y="40.119375" style="fill: #cc8150; stroke: #cc8150"/>
     </g>
    </g>
    <g id="text_16">
     <!-- average_user_sum_hashedge -->
     <g transform="translate(444.355938 44.319375) scale(0.12 -0.12)">
      <defs>
       <path id="TimesNewRomanPSMT-5f" d="M 3256 -1381 
L -53 -1381 
L -53 -1119 
L 3256 -1119 
L 3256 -1381 
z
" transform="scale(0.015625)"/>
       <path id="TimesNewRomanPSMT-64" d="M 2222 322 
Q 2013 103 1813 7 
Q 1613 -88 1381 -88 
Q 913 -88 563 304 
Q 213 697 213 1313 
Q 213 1928 600 2439 
Q 988 2950 1597 2950 
Q 1975 2950 2222 2709 
L 2222 3238 
Q 2222 3728 2198 3840 
Q 2175 3953 2125 3993 
Q 2075 4034 2000 4034 
Q 1919 4034 1784 3984 
L 1744 4094 
L 2597 4444 
L 2738 4444 
L 2738 1134 
Q 2738 631 2761 520 
Q 2784 409 2836 365 
Q 2888 322 2956 322 
Q 3041 322 3181 375 
L 3216 266 
L 2366 -88 
L 2222 -88 
L 2222 322 
z
M 2222 541 
L 2222 2016 
Q 2203 2228 2109 2403 
Q 2016 2578 1861 2667 
Q 1706 2756 1559 2756 
Q 1284 2756 1069 2509 
Q 784 2184 784 1559 
Q 784 928 1059 592 
Q 1334 256 1672 256 
Q 1956 256 2222 541 
z
" transform="scale(0.015625)"/>
      </defs>
      <use xlink:href="#TimesNewRomanPSMT-61"/>
      <use xlink:href="#TimesNewRomanPSMT-76" x="44.384766"/>
      <use xlink:href="#TimesNewRomanPSMT-65" x="94.384766"/>
      <use xlink:href="#TimesNewRomanPSMT-72" x="138.769531"/>
      <use xlink:href="#TimesNewRomanPSMT-61" x="172.070312"/>
      <use xlink:href="#TimesNewRomanPSMT-67" x="216.455078"/>
      <use xlink:href="#TimesNewRomanPSMT-65" x="266.455078"/>
      <use xlink:href="#TimesNewRomanPSMT-5f" x="310.839844"/>
      <use xlink:href="#TimesNewRomanPSMT-75" x="360.839844"/>
      <use xlink:href="#TimesNewRomanPSMT-73" x="410.839844"/>
      <use xlink:href="#TimesNewRomanPSMT-65" x="449.755859"/>
      <use xlink:href="#TimesNewRomanPSMT-72" x="494.140625"/>
      <use xlink:href="#TimesNewRomanPSMT-5f" x="527.441406"/>
      <use xlink:href="#TimesNewRomanPSMT-73" x="577.441406"/>
      <use xlink:href="#TimesNewRomanPSMT-75" x="616.357422"/>
      <use xlink:href="#TimesNewRomanPSMT-6d" x="666.357422"/>
      <use xlink:href="#TimesNewRomanPSMT-5f" x="744.140625"/>
      <use xlink:href="#TimesNewRomanPSMT-68" x="794.140625"/>
      <use xlink:href="#TimesNewRomanPSMT-61" x="844.140625"/>
      <use xlink:href="#TimesNewRomanPSMT-73" x="888.525391"/>
      <use xlink:href="#TimesNewRomanPSMT-68" x="927.441406"/>
      <use xlink:href="#TimesNewRomanPSMT-65" x="977.441406"/>
      <use xlink:href="#TimesNewRomanPSMT-64" x="1021.826172"/>
      <use xlink:href="#TimesNewRomanPSMT-67" x="1071.826172"/>
      <use xlink:href="#TimesNewRomanPSMT-65" x="1121.826172"/>
     </g>
    </g>
    <g id="line2d_22">
     <path d="M 410.755938 57.10875 
L 422.755938 57.10875 
L 434.755938 57.10875 
" style="fill: none; stroke: #cc92af; stroke-width: 3; stroke-linecap: square"/>
     <g>
      <use xlink:href="#m5a256e2a26" x="422.755938" y="57.10875" style="fill: #cc92af; stroke: #cc92af"/>
     </g>
    </g>
    <g id="text_17">
     <!-- average_user_sum_verbs -->
     <g transform="translate(444.355938 61.30875) scale(0.12 -0.12)">
      <defs>
       <path id="TimesNewRomanPSMT-62" d="M 984 2369 
Q 1400 2947 1881 2947 
Q 2322 2947 2650 2570 
Q 2978 2194 2978 1541 
Q 2978 778 2472 313 
Q 2038 -88 1503 -88 
Q 1253 -88 995 3 
Q 738 94 469 275 
L 469 3241 
Q 469 3728 445 3840 
Q 422 3953 372 3993 
Q 322 4034 247 4034 
Q 159 4034 28 3984 
L -16 4094 
L 844 4444 
L 984 4444 
L 984 2369 
z
M 984 2169 
L 984 456 
Q 1144 300 1314 220 
Q 1484 141 1663 141 
Q 1947 141 2192 453 
Q 2438 766 2438 1363 
Q 2438 1913 2192 2208 
Q 1947 2503 1634 2503 
Q 1469 2503 1303 2419 
Q 1178 2356 984 2169 
z
" transform="scale(0.015625)"/>
      </defs>
      <use xlink:href="#TimesNewRomanPSMT-61"/>
      <use xlink:href="#TimesNewRomanPSMT-76" x="44.384766"/>
      <use xlink:href="#TimesNewRomanPSMT-65" x="94.384766"/>
      <use xlink:href="#TimesNewRomanPSMT-72" x="138.769531"/>
      <use xlink:href="#TimesNewRomanPSMT-61" x="172.070312"/>
      <use xlink:href="#TimesNewRomanPSMT-67" x="216.455078"/>
      <use xlink:href="#TimesNewRomanPSMT-65" x="266.455078"/>
      <use xlink:href="#TimesNewRomanPSMT-5f" x="310.839844"/>
      <use xlink:href="#TimesNewRomanPSMT-75" x="360.839844"/>
      <use xlink:href="#TimesNewRomanPSMT-73" x="410.839844"/>
      <use xlink:href="#TimesNewRomanPSMT-65" x="449.755859"/>
      <use xlink:href="#TimesNewRomanPSMT-72" x="494.140625"/>
      <use xlink:href="#TimesNewRomanPSMT-5f" x="527.441406"/>
      <use xlink:href="#TimesNewRomanPSMT-73" x="577.441406"/>
      <use xlink:href="#TimesNewRomanPSMT-75" x="616.357422"/>
      <use xlink:href="#TimesNewRomanPSMT-6d" x="666.357422"/>
      <use xlink:href="#TimesNewRomanPSMT-5f" x="744.140625"/>
      <use xlink:href="#TimesNewRomanPSMT-76" x="794.140625"/>
      <use xlink:href="#TimesNewRomanPSMT-65" x="844.140625"/>
      <use xlink:href="#TimesNewRomanPSMT-72" x="888.525391"/>
      <use xlink:href="#TimesNewRomanPSMT-62" x="921.826172"/>
      <use xlink:href="#TimesNewRomanPSMT-73" x="971.826172"/>
     </g>
    </g>
    <g id="line2d_23">
     <path d="M 410.755938 74.098125 
L 422.755938 74.098125 
L 434.755938 74.098125 
" style="fill: none; stroke: #b8a4cc; stroke-width: 3; stroke-linecap: square"/>
     <g>
      <use xlink:href="#m8fd102b3dc" x="422.755938" y="74.098125" style="fill: #b8a4cc; stroke: #b8a4cc"/>
     </g>
    </g>
    <g id="text_18">
     <!-- min_user_sum_positivity_zscore_chats -->
     <g transform="translate(444.355938 78.298125) scale(0.12 -0.12)">
      <defs>
       <path id="TimesNewRomanPSMT-79" d="M 38 2863 
L 1372 2863 
L 1372 2747 
L 1306 2747 
Q 1166 2747 1095 2686 
Q 1025 2625 1025 2534 
Q 1025 2413 1128 2197 
L 1825 753 
L 2466 2334 
Q 2519 2463 2519 2588 
Q 2519 2644 2497 2672 
Q 2472 2706 2419 2726 
Q 2366 2747 2231 2747 
L 2231 2863 
L 3163 2863 
L 3163 2747 
Q 3047 2734 2984 2696 
Q 2922 2659 2847 2556 
Q 2819 2513 2741 2316 
L 1575 -541 
Q 1406 -956 1132 -1168 
Q 859 -1381 606 -1381 
Q 422 -1381 303 -1275 
Q 184 -1169 184 -1031 
Q 184 -900 270 -820 
Q 356 -741 506 -741 
Q 609 -741 788 -809 
Q 913 -856 944 -856 
Q 1038 -856 1148 -759 
Q 1259 -663 1372 -384 
L 1575 113 
L 547 2272 
Q 500 2369 397 2513 
Q 319 2622 269 2659 
Q 197 2709 38 2747 
L 38 2863 
z
" transform="scale(0.015625)"/>
       <path id="TimesNewRomanPSMT-7a" d="M 2688 878 
L 2653 0 
L 128 0 
L 128 113 
L 2028 2644 
L 1091 2644 
Q 788 2644 694 2605 
Q 600 2566 541 2456 
Q 456 2300 444 2069 
L 319 2069 
L 338 2863 
L 2738 2863 
L 2738 2747 
L 819 209 
L 1863 209 
Q 2191 209 2308 264 
Q 2425 319 2497 456 
Q 2547 556 2581 878 
L 2688 878 
z
" transform="scale(0.015625)"/>
      </defs>
      <use xlink:href="#TimesNewRomanPSMT-6d"/>
      <use xlink:href="#TimesNewRomanPSMT-69" x="77.783203"/>
      <use xlink:href="#TimesNewRomanPSMT-6e" x="105.566406"/>
      <use xlink:href="#TimesNewRomanPSMT-5f" x="155.566406"/>
      <use xlink:href="#TimesNewRomanPSMT-75" x="205.566406"/>
      <use xlink:href="#TimesNewRomanPSMT-73" x="255.566406"/>
      <use xlink:href="#TimesNewRomanPSMT-65" x="294.482422"/>
      <use xlink:href="#TimesNewRomanPSMT-72" x="338.867188"/>
      <use xlink:href="#TimesNewRomanPSMT-5f" x="372.167969"/>
      <use xlink:href="#TimesNewRomanPSMT-73" x="422.167969"/>
      <use xlink:href="#TimesNewRomanPSMT-75" x="461.083984"/>
      <use xlink:href="#TimesNewRomanPSMT-6d" x="511.083984"/>
      <use xlink:href="#TimesNewRomanPSMT-5f" x="588.867188"/>
      <use xlink:href="#TimesNewRomanPSMT-70" x="638.867188"/>
      <use xlink:href="#TimesNewRomanPSMT-6f" x="688.867188"/>
      <use xlink:href="#TimesNewRomanPSMT-73" x="738.867188"/>
      <use xlink:href="#TimesNewRomanPSMT-69" x="777.783203"/>
      <use xlink:href="#TimesNewRomanPSMT-74" x="805.566406"/>
      <use xlink:href="#TimesNewRomanPSMT-69" x="833.349609"/>
      <use xlink:href="#TimesNewRomanPSMT-76" x="861.132812"/>
      <use xlink:href="#TimesNewRomanPSMT-69" x="911.132812"/>
      <use xlink:href="#TimesNewRomanPSMT-74" x="938.916016"/>
      <use xlink:href="#TimesNewRomanPSMT-79" x="966.699219"/>
      <use xlink:href="#TimesNewRomanPSMT-5f" x="1016.699219"/>
      <use xlink:href="#TimesNewRomanPSMT-7a" x="1066.699219"/>
      <use xlink:href="#TimesNewRomanPSMT-73" x="1111.083984"/>
      <use xlink:href="#TimesNewRomanPSMT-63" x="1150"/>
      <use xlink:href="#TimesNewRomanPSMT-6f" x="1194.384766"/>
      <use xlink:href="#TimesNewRomanPSMT-72" x="1244.384766"/>
      <use xlink:href="#TimesNewRomanPSMT-65" x="1277.685547"/>
      <use xlink:href="#TimesNewRomanPSMT-5f" x="1322.070312"/>
      <use xlink:href="#TimesNewRomanPSMT-63" x="1372.070312"/>
      <use xlink:href="#TimesNewRomanPSMT-68" x="1416.455078"/>
      <use xlink:href="#TimesNewRomanPSMT-61" x="1466.455078"/>
      <use xlink:href="#TimesNewRomanPSMT-74" x="1510.839844"/>
      <use xlink:href="#TimesNewRomanPSMT-73" x="1538.623047"/>
     </g>
    </g>
    <g id="line2d_24">
     <path d="M 410.755938 91.0875 
L 422.755938 91.0875 
L 434.755938 91.0875 
" style="fill: none; stroke-dasharray: 11.1,4.8; stroke-dashoffset: 0; stroke: #57a5cc; stroke-width: 3"/>
     <g>
      <use xlink:href="#m5963d1cbb8" x="422.755938" y="91.0875" style="fill: #57a5cc; stroke: #57a5cc"/>
     </g>
    </g>
    <g id="text_19">
     <!-- average_user_avg_positive_bert -->
     <g transform="translate(444.355938 95.2875) scale(0.12 -0.12)">
      <use xlink:href="#TimesNewRomanPSMT-61"/>
      <use xlink:href="#TimesNewRomanPSMT-76" x="44.384766"/>
      <use xlink:href="#TimesNewRomanPSMT-65" x="94.384766"/>
      <use xlink:href="#TimesNewRomanPSMT-72" x="138.769531"/>
      <use xlink:href="#TimesNewRomanPSMT-61" x="172.070312"/>
      <use xlink:href="#TimesNewRomanPSMT-67" x="216.455078"/>
      <use xlink:href="#TimesNewRomanPSMT-65" x="266.455078"/>
      <use xlink:href="#TimesNewRomanPSMT-5f" x="310.839844"/>
      <use xlink:href="#TimesNewRomanPSMT-75" x="360.839844"/>
      <use xlink:href="#TimesNewRomanPSMT-73" x="410.839844"/>
      <use xlink:href="#TimesNewRomanPSMT-65" x="449.755859"/>
      <use xlink:href="#TimesNewRomanPSMT-72" x="494.140625"/>
      <use xlink:href="#TimesNewRomanPSMT-5f" x="527.441406"/>
      <use xlink:href="#TimesNewRomanPSMT-61" x="577.441406"/>
      <use xlink:href="#TimesNewRomanPSMT-76" x="621.826172"/>
      <use xlink:href="#TimesNewRomanPSMT-67" x="671.826172"/>
      <use xlink:href="#TimesNewRomanPSMT-5f" x="721.826172"/>
      <use xlink:href="#TimesNewRomanPSMT-70" x="771.826172"/>
      <use xlink:href="#TimesNewRomanPSMT-6f" x="821.826172"/>
      <use xlink:href="#TimesNewRomanPSMT-73" x="871.826172"/>
      <use xlink:href="#TimesNewRomanPSMT-69" x="910.742188"/>
      <use xlink:href="#TimesNewRomanPSMT-74" x="938.525391"/>
      <use xlink:href="#TimesNewRomanPSMT-69" x="966.308594"/>
      <use xlink:href="#TimesNewRomanPSMT-76" x="994.091797"/>
      <use xlink:href="#TimesNewRomanPSMT-65" x="1044.091797"/>
      <use xlink:href="#TimesNewRomanPSMT-5f" x="1088.476562"/>
      <use xlink:href="#TimesNewRomanPSMT-62" x="1138.476562"/>
      <use xlink:href="#TimesNewRomanPSMT-65" x="1188.476562"/>
      <use xlink:href="#TimesNewRomanPSMT-72" x="1232.861328"/>
      <use xlink:href="#TimesNewRomanPSMT-74" x="1266.162109"/>
     </g>
    </g>
    <g id="line2d_25">
     <path d="M 410.755938 108.076875 
L 422.755938 108.076875 
L 434.755938 108.076875 
" style="fill: none; stroke-dasharray: 11.1,4.8; stroke-dashoffset: 0; stroke: #89cc09; stroke-width: 3"/>
     <g>
      <use xlink:href="#m642ef78436" x="422.755938" y="108.076875" style="fill: #89cc09; stroke: #89cc09"/>
     </g>
    </g>
    <g id="text_20">
     <!-- average_user_avg_positivity_zscore_chats -->
     <g transform="translate(444.355938 112.276875) scale(0.12 -0.12)">
      <use xlink:href="#TimesNewRomanPSMT-61"/>
      <use xlink:href="#TimesNewRomanPSMT-76" x="44.384766"/>
      <use xlink:href="#TimesNewRomanPSMT-65" x="94.384766"/>
      <use xlink:href="#TimesNewRomanPSMT-72" x="138.769531"/>
      <use xlink:href="#TimesNewRomanPSMT-61" x="172.070312"/>
      <use xlink:href="#TimesNewRomanPSMT-67" x="216.455078"/>
      <use xlink:href="#TimesNewRomanPSMT-65" x="266.455078"/>
      <use xlink:href="#TimesNewRomanPSMT-5f" x="310.839844"/>
      <use xlink:href="#TimesNewRomanPSMT-75" x="360.839844"/>
      <use xlink:href="#TimesNewRomanPSMT-73" x="410.839844"/>
      <use xlink:href="#TimesNewRomanPSMT-65" x="449.755859"/>
      <use xlink:href="#TimesNewRomanPSMT-72" x="494.140625"/>
      <use xlink:href="#TimesNewRomanPSMT-5f" x="527.441406"/>
      <use xlink:href="#TimesNewRomanPSMT-61" x="577.441406"/>
      <use xlink:href="#TimesNewRomanPSMT-76" x="621.826172"/>
      <use xlink:href="#TimesNewRomanPSMT-67" x="671.826172"/>
      <use xlink:href="#TimesNewRomanPSMT-5f" x="721.826172"/>
      <use xlink:href="#TimesNewRomanPSMT-70" x="771.826172"/>
      <use xlink:href="#TimesNewRomanPSMT-6f" x="821.826172"/>
      <use xlink:href="#TimesNewRomanPSMT-73" x="871.826172"/>
      <use xlink:href="#TimesNewRomanPSMT-69" x="910.742188"/>
      <use xlink:href="#TimesNewRomanPSMT-74" x="938.525391"/>
      <use xlink:href="#TimesNewRomanPSMT-69" x="966.308594"/>
      <use xlink:href="#TimesNewRomanPSMT-76" x="994.091797"/>
      <use xlink:href="#TimesNewRomanPSMT-69" x="1044.091797"/>
      <use xlink:href="#TimesNewRomanPSMT-74" x="1071.875"/>
      <use xlink:href="#TimesNewRomanPSMT-79" x="1099.658203"/>
      <use xlink:href="#TimesNewRomanPSMT-5f" x="1149.658203"/>
      <use xlink:href="#TimesNewRomanPSMT-7a" x="1199.658203"/>
      <use xlink:href="#TimesNewRomanPSMT-73" x="1244.042969"/>
      <use xlink:href="#TimesNewRomanPSMT-63" x="1282.958984"/>
      <use xlink:href="#TimesNewRomanPSMT-6f" x="1327.34375"/>
      <use xlink:href="#TimesNewRomanPSMT-72" x="1377.34375"/>
      <use xlink:href="#TimesNewRomanPSMT-65" x="1410.644531"/>
      <use xlink:href="#TimesNewRomanPSMT-5f" x="1455.029297"/>
      <use xlink:href="#TimesNewRomanPSMT-63" x="1505.029297"/>
      <use xlink:href="#TimesNewRomanPSMT-68" x="1549.414062"/>
      <use xlink:href="#TimesNewRomanPSMT-61" x="1599.414062"/>
      <use xlink:href="#TimesNewRomanPSMT-74" x="1643.798828"/>
      <use xlink:href="#TimesNewRomanPSMT-73" x="1671.582031"/>
     </g>
    </g>
    <g id="line2d_26">
     <path d="M 410.755938 125.06625 
L 422.755938 125.06625 
L 434.755938 125.06625 
" style="fill: none; stroke-dasharray: 11.1,4.8; stroke-dashoffset: 0; stroke: #786ecc; stroke-width: 3"/>
     <g>
      <use xlink:href="#m4bd7a2916a" x="422.755938" y="125.06625" style="fill: #786ecc; stroke: #786ecc"/>
     </g>
    </g>
    <g id="text_21">
     <!-- average_user_sum_cognitive_mech -->
     <g transform="translate(444.355938 129.26625) scale(0.12 -0.12)">
      <use xlink:href="#TimesNewRomanPSMT-61"/>
      <use xlink:href="#TimesNewRomanPSMT-76" x="44.384766"/>
      <use xlink:href="#TimesNewRomanPSMT-65" x="94.384766"/>
      <use xlink:href="#TimesNewRomanPSMT-72" x="138.769531"/>
      <use xlink:href="#TimesNewRomanPSMT-61" x="172.070312"/>
      <use xlink:href="#TimesNewRomanPSMT-67" x="216.455078"/>
      <use xlink:href="#TimesNewRomanPSMT-65" x="266.455078"/>
      <use xlink:href="#TimesNewRomanPSMT-5f" x="310.839844"/>
      <use xlink:href="#TimesNewRomanPSMT-75" x="360.839844"/>
      <use xlink:href="#TimesNewRomanPSMT-73" x="410.839844"/>
      <use xlink:href="#TimesNewRomanPSMT-65" x="449.755859"/>
      <use xlink:href="#TimesNewRomanPSMT-72" x="494.140625"/>
      <use xlink:href="#TimesNewRomanPSMT-5f" x="527.441406"/>
      <use xlink:href="#TimesNewRomanPSMT-73" x="577.441406"/>
      <use xlink:href="#TimesNewRomanPSMT-75" x="616.357422"/>
      <use xlink:href="#TimesNewRomanPSMT-6d" x="666.357422"/>
      <use xlink:href="#TimesNewRomanPSMT-5f" x="744.140625"/>
      <use xlink:href="#TimesNewRomanPSMT-63" x="794.140625"/>
      <use xlink:href="#TimesNewRomanPSMT-6f" x="838.525391"/>
      <use xlink:href="#TimesNewRomanPSMT-67" x="888.525391"/>
      <use xlink:href="#TimesNewRomanPSMT-6e" x="938.525391"/>
      <use xlink:href="#TimesNewRomanPSMT-69" x="988.525391"/>
      <use xlink:href="#TimesNewRomanPSMT-74" x="1016.308594"/>
      <use xlink:href="#TimesNewRomanPSMT-69" x="1044.091797"/>
      <use xlink:href="#TimesNewRomanPSMT-76" x="1071.875"/>
      <use xlink:href="#TimesNewRomanPSMT-65" x="1121.875"/>
      <use xlink:href="#TimesNewRomanPSMT-5f" x="1166.259766"/>
      <use xlink:href="#TimesNewRomanPSMT-6d" x="1216.259766"/>
      <use xlink:href="#TimesNewRomanPSMT-65" x="1294.042969"/>
      <use xlink:href="#TimesNewRomanPSMT-63" x="1338.427734"/>
      <use xlink:href="#TimesNewRomanPSMT-68" x="1382.8125"/>
     </g>
    </g>
    <g id="line2d_27">
     <path d="M 410.755938 142.055625 
L 422.755938 142.055625 
L 434.755938 142.055625 
" style="fill: none; stroke-dasharray: 11.1,4.8; stroke-dashoffset: 0; stroke: #baccc6; stroke-width: 3"/>
     <g>
      <use xlink:href="#m46973cfcaf" x="422.755938" y="142.055625" style="fill: #baccc6; stroke: #baccc6"/>
     </g>
    </g>
    <g id="text_22">
     <!-- max_positivity_zscore_conversation -->
     <g transform="translate(444.355938 146.255625) scale(0.12 -0.12)">
      <defs>
       <path id="TimesNewRomanPSMT-78" d="M 84 2863 
L 1431 2863 
L 1431 2747 
Q 1303 2747 1251 2703 
Q 1200 2659 1200 2588 
Q 1200 2513 1309 2356 
Q 1344 2306 1413 2200 
L 1616 1875 
L 1850 2200 
Q 2075 2509 2075 2591 
Q 2075 2656 2022 2701 
Q 1969 2747 1850 2747 
L 1850 2863 
L 2819 2863 
L 2819 2747 
Q 2666 2738 2553 2663 
Q 2400 2556 2134 2200 
L 1744 1678 
L 2456 653 
Q 2719 275 2831 198 
Q 2944 122 3122 113 
L 3122 0 
L 1772 0 
L 1772 113 
Q 1913 113 1991 175 
Q 2050 219 2050 291 
Q 2050 363 1850 653 
L 1431 1266 
L 972 653 
Q 759 369 759 316 
Q 759 241 829 180 
Q 900 119 1041 113 
L 1041 0 
L 106 0 
L 106 113 
Q 219 128 303 191 
Q 422 281 703 653 
L 1303 1450 
L 759 2238 
Q 528 2575 401 2661 
Q 275 2747 84 2747 
L 84 2863 
z
" transform="scale(0.015625)"/>
      </defs>
      <use xlink:href="#TimesNewRomanPSMT-6d"/>
      <use xlink:href="#TimesNewRomanPSMT-61" x="77.783203"/>
      <use xlink:href="#TimesNewRomanPSMT-78" x="122.167969"/>
      <use xlink:href="#TimesNewRomanPSMT-5f" x="172.167969"/>
      <use xlink:href="#TimesNewRomanPSMT-70" x="222.167969"/>
      <use xlink:href="#TimesNewRomanPSMT-6f" x="272.167969"/>
      <use xlink:href="#TimesNewRomanPSMT-73" x="322.167969"/>
      <use xlink:href="#TimesNewRomanPSMT-69" x="361.083984"/>
      <use xlink:href="#TimesNewRomanPSMT-74" x="388.867188"/>
      <use xlink:href="#TimesNewRomanPSMT-69" x="416.650391"/>
      <use xlink:href="#TimesNewRomanPSMT-76" x="444.433594"/>
      <use xlink:href="#TimesNewRomanPSMT-69" x="494.433594"/>
      <use xlink:href="#TimesNewRomanPSMT-74" x="522.216797"/>
      <use xlink:href="#TimesNewRomanPSMT-79" x="550"/>
      <use xlink:href="#TimesNewRomanPSMT-5f" x="600"/>
      <use xlink:href="#TimesNewRomanPSMT-7a" x="650"/>
      <use xlink:href="#TimesNewRomanPSMT-73" x="694.384766"/>
      <use xlink:href="#TimesNewRomanPSMT-63" x="733.300781"/>
      <use xlink:href="#TimesNewRomanPSMT-6f" x="777.685547"/>
      <use xlink:href="#TimesNewRomanPSMT-72" x="827.685547"/>
      <use xlink:href="#TimesNewRomanPSMT-65" x="860.986328"/>
      <use xlink:href="#TimesNewRomanPSMT-5f" x="905.371094"/>
      <use xlink:href="#TimesNewRomanPSMT-63" x="955.371094"/>
      <use xlink:href="#TimesNewRomanPSMT-6f" x="999.755859"/>
      <use xlink:href="#TimesNewRomanPSMT-6e" x="1049.755859"/>
      <use xlink:href="#TimesNewRomanPSMT-76" x="1099.755859"/>
      <use xlink:href="#TimesNewRomanPSMT-65" x="1149.755859"/>
      <use xlink:href="#TimesNewRomanPSMT-72" x="1194.140625"/>
      <use xlink:href="#TimesNewRomanPSMT-73" x="1227.441406"/>
      <use xlink:href="#TimesNewRomanPSMT-61" x="1266.357422"/>
      <use xlink:href="#TimesNewRomanPSMT-74" x="1310.742188"/>
      <use xlink:href="#TimesNewRomanPSMT-69" x="1338.525391"/>
      <use xlink:href="#TimesNewRomanPSMT-6f" x="1366.308594"/>
      <use xlink:href="#TimesNewRomanPSMT-6e" x="1416.308594"/>
     </g>
    </g>
    <g id="line2d_28">
     <path d="M 410.755938 159.045 
L 422.755938 159.045 
L 434.755938 159.045 
" style="fill: none; stroke-dasharray: 11.1,4.8; stroke-dashoffset: 0; stroke: #b9c2cc; stroke-width: 3"/>
     <g>
      <use xlink:href="#ma5e5af34ba" x="422.755938" y="159.045" style="fill: #b9c2cc; stroke: #b9c2cc"/>
     </g>
    </g>
    <g id="text_23">
     <!-- max_user_sum_verbs -->
     <g transform="translate(444.355938 163.245) scale(0.12 -0.12)">
      <use xlink:href="#TimesNewRomanPSMT-6d"/>
      <use xlink:href="#TimesNewRomanPSMT-61" x="77.783203"/>
      <use xlink:href="#TimesNewRomanPSMT-78" x="122.167969"/>
      <use xlink:href="#TimesNewRomanPSMT-5f" x="172.167969"/>
      <use xlink:href="#TimesNewRomanPSMT-75" x="222.167969"/>
      <use xlink:href="#TimesNewRomanPSMT-73" x="272.167969"/>
      <use xlink:href="#TimesNewRomanPSMT-65" x="311.083984"/>
      <use xlink:href="#TimesNewRomanPSMT-72" x="355.46875"/>
      <use xlink:href="#TimesNewRomanPSMT-5f" x="388.769531"/>
      <use xlink:href="#TimesNewRomanPSMT-73" x="438.769531"/>
      <use xlink:href="#TimesNewRomanPSMT-75" x="477.685547"/>
      <use xlink:href="#TimesNewRomanPSMT-6d" x="527.685547"/>
      <use xlink:href="#TimesNewRomanPSMT-5f" x="605.46875"/>
      <use xlink:href="#TimesNewRomanPSMT-76" x="655.46875"/>
      <use xlink:href="#TimesNewRomanPSMT-65" x="705.46875"/>
      <use xlink:href="#TimesNewRomanPSMT-72" x="749.853516"/>
      <use xlink:href="#TimesNewRomanPSMT-62" x="783.154297"/>
      <use xlink:href="#TimesNewRomanPSMT-73" x="833.154297"/>
     </g>
    </g>
   </g>
  </g>
 </g>
 <defs>
  <clipPath id="p096a4a7b4d">
   <rect x="48.415938" y="25.119375" width="334.8" height="217.44"/>
  </clipPath>
 </defs>
</svg>
