<?xml version="1.0" encoding="utf-8" standalone="no"?>
<!DOCTYPE svg PUBLIC "-//W3C//DTD SVG 1.1//EN"
  "http://www.w3.org/Graphics/SVG/1.1/DTD/svg11.dtd">
<svg xmlns:xlink="http://www.w3.org/1999/xlink" width="720pt" height="432pt" viewBox="0 0 720 432" xmlns="http://www.w3.org/2000/svg" version="1.1">
 <metadata>
  <rdf:RDF xmlns:dc="http://purl.org/dc/elements/1.1/" xmlns:cc="http://creativecommons.org/ns#" xmlns:rdf="http://www.w3.org/1999/02/22-rdf-syntax-ns#">
   <cc:Work>
    <dc:type rdf:resource="http://purl.org/dc/dcmitype/StillImage"/>
    <dc:date>2023-10-24T03:59:52.692007</dc:date>
    <dc:format>image/svg+xml</dc:format>
    <dc:creator>
     <cc:Agent>
      <dc:title>Matplotlib v3.7.1, https://matplotlib.org/</dc:title>
     </cc:Agent>
    </dc:creator>
   </cc:Work>
  </rdf:RDF>
 </metadata>
 <defs>
  <style type="text/css">*{stroke-linejoin: round; stroke-linecap: butt}</style>
 </defs>
 <g id="figure_1">
  <g id="patch_1">
   <path d="M 0 432 
L 720 432 
L 720 0 
L 0 0 
L 0 432 
z
" style="fill: none"/>
  </g>
  <g id="axes_1">
   <g id="patch_2">
    <path d="M 90 378 
L 648 378 
L 648 51.84 
L 90 51.84 
z
" style="fill: #ffffff"/>
   </g>
   <g id="patch_3">
    <path d="M 90 66.665455 
L 621.428571 66.665455 
L 621.428571 90.870278 
L 90 90.870278 
z
" clip-path="url(#pc5606c415a)" style="fill: #ffb6c1"/>
   </g>
   <g id="patch_4">
    <path d="M 90 96.921484 
L 90 96.921484 
L 90 121.126308 
L 90 121.126308 
z
" clip-path="url(#pc5606c415a)" style="fill: #b0e0e6"/>
   </g>
   <g id="patch_5">
    <path d="M 90 127.177514 
L 90 127.177514 
L 90 151.382338 
L 90 151.382338 
z
" clip-path="url(#pc5606c415a)" style="fill: #b0e0e6"/>
   </g>
   <g id="patch_6">
    <path d="M 90 157.433544 
L 90 157.433544 
L 90 181.638367 
L 90 181.638367 
z
" clip-path="url(#pc5606c415a)" style="fill: #b0e0e6"/>
   </g>
   <g id="patch_7">
    <path d="M 90 187.689573 
L 90 187.689573 
L 90 211.894397 
L 90 211.894397 
z
" clip-path="url(#pc5606c415a)" style="fill: #b0e0e6"/>
   </g>
   <g id="patch_8">
    <path d="M 90 217.945603 
L 90 217.945603 
L 90 242.150427 
L 90 242.150427 
z
" clip-path="url(#pc5606c415a)" style="fill: #b0e0e6"/>
   </g>
   <g id="patch_9">
    <path d="M 90 248.201633 
L 90 248.201633 
L 90 272.406456 
L 90 272.406456 
z
" clip-path="url(#pc5606c415a)" style="fill: #b0e0e6"/>
   </g>
   <g id="patch_10">
    <path d="M 90 278.457662 
L 90 278.457662 
L 90 302.662486 
L 90 302.662486 
z
" clip-path="url(#pc5606c415a)" style="fill: #b0e0e6"/>
   </g>
   <g id="patch_11">
    <path d="M 90 308.713692 
L 90 308.713692 
L 90 332.918516 
L 90 332.918516 
z
" clip-path="url(#pc5606c415a)" style="fill: #b0e0e6"/>
   </g>
   <g id="patch_12">
    <path d="M 90 338.969722 
L 90 338.969722 
L 90 363.174545 
L 90 363.174545 
z
" clip-path="url(#pc5606c415a)" style="fill: #b0e0e6"/>
   </g>
   <g id="matplotlib.axis_1">
    <g id="xtick_1">
     <g id="line2d_1">
      <defs>
       <path id="m7c78e085f4" d="M 0 0 
L 0 3.5 
" style="stroke: #000000; stroke-width: 0.8"/>
      </defs>
      <g>
       <use xlink:href="#m7c78e085f4" x="90" y="378" style="stroke: #000000; stroke-width: 0.8"/>
      </g>
     </g>
     <g id="text_1">
      <!-- 0.00 -->
      <g transform="translate(77.75 394.72125) scale(0.14 -0.14)">
       <defs>
        <path id="TimesNewRomanPSMT-30" d="M 231 2094 
Q 231 2819 450 3342 
Q 669 3866 1031 4122 
Q 1313 4325 1613 4325 
Q 2100 4325 2488 3828 
Q 2972 3213 2972 2159 
Q 2972 1422 2759 906 
Q 2547 391 2217 158 
Q 1888 -75 1581 -75 
Q 975 -75 572 641 
Q 231 1244 231 2094 
z
M 844 2016 
Q 844 1141 1059 588 
Q 1238 122 1591 122 
Q 1759 122 1940 273 
Q 2122 425 2216 781 
Q 2359 1319 2359 2297 
Q 2359 3022 2209 3506 
Q 2097 3866 1919 4016 
Q 1791 4119 1609 4119 
Q 1397 4119 1231 3928 
Q 1006 3669 925 3112 
Q 844 2556 844 2016 
z
" transform="scale(0.015625)"/>
        <path id="TimesNewRomanPSMT-2e" d="M 800 606 
Q 947 606 1047 504 
Q 1147 403 1147 259 
Q 1147 116 1045 14 
Q 944 -88 800 -88 
Q 656 -88 554 14 
Q 453 116 453 259 
Q 453 406 554 506 
Q 656 606 800 606 
z
" transform="scale(0.015625)"/>
       </defs>
       <use xlink:href="#TimesNewRomanPSMT-30"/>
       <use xlink:href="#TimesNewRomanPSMT-2e" x="50"/>
       <use xlink:href="#TimesNewRomanPSMT-30" x="75"/>
       <use xlink:href="#TimesNewRomanPSMT-30" x="125"/>
      </g>
     </g>
    </g>
    <g id="xtick_2">
     <g id="line2d_2">
      <g>
       <use xlink:href="#m7c78e085f4" x="158.049508" y="378" style="stroke: #000000; stroke-width: 0.8"/>
      </g>
     </g>
     <g id="text_2">
      <!-- 0.01 -->
      <g transform="translate(145.799508 394.72125) scale(0.14 -0.14)">
       <defs>
        <path id="TimesNewRomanPSMT-31" d="M 750 3822 
L 1781 4325 
L 1884 4325 
L 1884 747 
Q 1884 391 1914 303 
Q 1944 216 2037 169 
Q 2131 122 2419 116 
L 2419 0 
L 825 0 
L 825 116 
Q 1125 122 1212 167 
Q 1300 213 1334 289 
Q 1369 366 1369 747 
L 1369 3034 
Q 1369 3497 1338 3628 
Q 1316 3728 1258 3775 
Q 1200 3822 1119 3822 
Q 1003 3822 797 3725 
L 750 3822 
z
" transform="scale(0.015625)"/>
       </defs>
       <use xlink:href="#TimesNewRomanPSMT-30"/>
       <use xlink:href="#TimesNewRomanPSMT-2e" x="50"/>
       <use xlink:href="#TimesNewRomanPSMT-30" x="75"/>
       <use xlink:href="#TimesNewRomanPSMT-31" x="125"/>
      </g>
     </g>
    </g>
    <g id="xtick_3">
     <g id="line2d_3">
      <g>
       <use xlink:href="#m7c78e085f4" x="226.099016" y="378" style="stroke: #000000; stroke-width: 0.8"/>
      </g>
     </g>
     <g id="text_3">
      <!-- 0.02 -->
      <g transform="translate(213.849016 394.72125) scale(0.14 -0.14)">
       <defs>
        <path id="TimesNewRomanPSMT-32" d="M 2934 816 
L 2638 0 
L 138 0 
L 138 116 
Q 1241 1122 1691 1759 
Q 2141 2397 2141 2925 
Q 2141 3328 1894 3587 
Q 1647 3847 1303 3847 
Q 991 3847 742 3664 
Q 494 3481 375 3128 
L 259 3128 
Q 338 3706 661 4015 
Q 984 4325 1469 4325 
Q 1984 4325 2329 3994 
Q 2675 3663 2675 3213 
Q 2675 2891 2525 2569 
Q 2294 2063 1775 1497 
Q 997 647 803 472 
L 1909 472 
Q 2247 472 2383 497 
Q 2519 522 2628 598 
Q 2738 675 2819 816 
L 2934 816 
z
" transform="scale(0.015625)"/>
       </defs>
       <use xlink:href="#TimesNewRomanPSMT-30"/>
       <use xlink:href="#TimesNewRomanPSMT-2e" x="50"/>
       <use xlink:href="#TimesNewRomanPSMT-30" x="75"/>
       <use xlink:href="#TimesNewRomanPSMT-32" x="125"/>
      </g>
     </g>
    </g>
    <g id="xtick_4">
     <g id="line2d_4">
      <g>
       <use xlink:href="#m7c78e085f4" x="294.148525" y="378" style="stroke: #000000; stroke-width: 0.8"/>
      </g>
     </g>
     <g id="text_4">
      <!-- 0.03 -->
      <g transform="translate(281.898525 394.72125) scale(0.14 -0.14)">
       <defs>
        <path id="TimesNewRomanPSMT-33" d="M 325 3431 
Q 506 3859 782 4092 
Q 1059 4325 1472 4325 
Q 1981 4325 2253 3994 
Q 2459 3747 2459 3466 
Q 2459 3003 1878 2509 
Q 2269 2356 2469 2072 
Q 2669 1788 2669 1403 
Q 2669 853 2319 450 
Q 1863 -75 997 -75 
Q 569 -75 414 31 
Q 259 138 259 259 
Q 259 350 332 419 
Q 406 488 509 488 
Q 588 488 669 463 
Q 722 447 909 348 
Q 1097 250 1169 231 
Q 1284 197 1416 197 
Q 1734 197 1970 444 
Q 2206 691 2206 1028 
Q 2206 1275 2097 1509 
Q 2016 1684 1919 1775 
Q 1784 1900 1550 2001 
Q 1316 2103 1072 2103 
L 972 2103 
L 972 2197 
Q 1219 2228 1467 2375 
Q 1716 2522 1828 2728 
Q 1941 2934 1941 3181 
Q 1941 3503 1739 3701 
Q 1538 3900 1238 3900 
Q 753 3900 428 3381 
L 325 3431 
z
" transform="scale(0.015625)"/>
       </defs>
       <use xlink:href="#TimesNewRomanPSMT-30"/>
       <use xlink:href="#TimesNewRomanPSMT-2e" x="50"/>
       <use xlink:href="#TimesNewRomanPSMT-30" x="75"/>
       <use xlink:href="#TimesNewRomanPSMT-33" x="125"/>
      </g>
     </g>
    </g>
    <g id="xtick_5">
     <g id="line2d_5">
      <g>
       <use xlink:href="#m7c78e085f4" x="362.198033" y="378" style="stroke: #000000; stroke-width: 0.8"/>
      </g>
     </g>
     <g id="text_5">
      <!-- 0.04 -->
      <g transform="translate(349.948033 394.72125) scale(0.14 -0.14)">
       <defs>
        <path id="TimesNewRomanPSMT-34" d="M 2978 1563 
L 2978 1119 
L 2409 1119 
L 2409 0 
L 1894 0 
L 1894 1119 
L 100 1119 
L 100 1519 
L 2066 4325 
L 2409 4325 
L 2409 1563 
L 2978 1563 
z
M 1894 1563 
L 1894 3666 
L 406 1563 
L 1894 1563 
z
" transform="scale(0.015625)"/>
       </defs>
       <use xlink:href="#TimesNewRomanPSMT-30"/>
       <use xlink:href="#TimesNewRomanPSMT-2e" x="50"/>
       <use xlink:href="#TimesNewRomanPSMT-30" x="75"/>
       <use xlink:href="#TimesNewRomanPSMT-34" x="125"/>
      </g>
     </g>
    </g>
    <g id="xtick_6">
     <g id="line2d_6">
      <g>
       <use xlink:href="#m7c78e085f4" x="430.247541" y="378" style="stroke: #000000; stroke-width: 0.8"/>
      </g>
     </g>
     <g id="text_6">
      <!-- 0.05 -->
      <g transform="translate(417.997541 394.72125) scale(0.14 -0.14)">
       <defs>
        <path id="TimesNewRomanPSMT-35" d="M 2778 4238 
L 2534 3706 
L 1259 3706 
L 981 3138 
Q 1809 3016 2294 2522 
Q 2709 2097 2709 1522 
Q 2709 1188 2573 903 
Q 2438 619 2231 419 
Q 2025 219 1772 97 
Q 1413 -75 1034 -75 
Q 653 -75 479 54 
Q 306 184 306 341 
Q 306 428 378 495 
Q 450 563 559 563 
Q 641 563 702 538 
Q 763 513 909 409 
Q 1144 247 1384 247 
Q 1750 247 2026 523 
Q 2303 800 2303 1197 
Q 2303 1581 2056 1914 
Q 1809 2247 1375 2428 
Q 1034 2569 447 2591 
L 1259 4238 
L 2778 4238 
z
" transform="scale(0.015625)"/>
       </defs>
       <use xlink:href="#TimesNewRomanPSMT-30"/>
       <use xlink:href="#TimesNewRomanPSMT-2e" x="50"/>
       <use xlink:href="#TimesNewRomanPSMT-30" x="75"/>
       <use xlink:href="#TimesNewRomanPSMT-35" x="125"/>
      </g>
     </g>
    </g>
    <g id="xtick_7">
     <g id="line2d_7">
      <g>
       <use xlink:href="#m7c78e085f4" x="498.297049" y="378" style="stroke: #000000; stroke-width: 0.8"/>
      </g>
     </g>
     <g id="text_7">
      <!-- 0.06 -->
      <g transform="translate(486.047049 394.72125) scale(0.14 -0.14)">
       <defs>
        <path id="TimesNewRomanPSMT-36" d="M 2869 4325 
L 2869 4209 
Q 2456 4169 2195 4045 
Q 1934 3922 1679 3669 
Q 1425 3416 1258 3105 
Q 1091 2794 978 2366 
Q 1428 2675 1881 2675 
Q 2316 2675 2634 2325 
Q 2953 1975 2953 1425 
Q 2953 894 2631 456 
Q 2244 -75 1606 -75 
Q 1172 -75 869 213 
Q 275 772 275 1663 
Q 275 2231 503 2743 
Q 731 3256 1154 3653 
Q 1578 4050 1965 4187 
Q 2353 4325 2688 4325 
L 2869 4325 
z
M 925 2138 
Q 869 1716 869 1456 
Q 869 1156 980 804 
Q 1091 453 1309 247 
Q 1469 100 1697 100 
Q 1969 100 2183 356 
Q 2397 613 2397 1088 
Q 2397 1622 2184 2012 
Q 1972 2403 1581 2403 
Q 1463 2403 1327 2353 
Q 1191 2303 925 2138 
z
" transform="scale(0.015625)"/>
       </defs>
       <use xlink:href="#TimesNewRomanPSMT-30"/>
       <use xlink:href="#TimesNewRomanPSMT-2e" x="50"/>
       <use xlink:href="#TimesNewRomanPSMT-30" x="75"/>
       <use xlink:href="#TimesNewRomanPSMT-36" x="125"/>
      </g>
     </g>
    </g>
    <g id="xtick_8">
     <g id="line2d_8">
      <g>
       <use xlink:href="#m7c78e085f4" x="566.346557" y="378" style="stroke: #000000; stroke-width: 0.8"/>
      </g>
     </g>
     <g id="text_8">
      <!-- 0.07 -->
      <g transform="translate(554.096557 394.72125) scale(0.14 -0.14)">
       <defs>
        <path id="TimesNewRomanPSMT-37" d="M 644 4238 
L 2916 4238 
L 2916 4119 
L 1503 -88 
L 1153 -88 
L 2419 3728 
L 1253 3728 
Q 900 3728 750 3644 
Q 488 3500 328 3200 
L 238 3234 
L 644 4238 
z
" transform="scale(0.015625)"/>
       </defs>
       <use xlink:href="#TimesNewRomanPSMT-30"/>
       <use xlink:href="#TimesNewRomanPSMT-2e" x="50"/>
       <use xlink:href="#TimesNewRomanPSMT-30" x="75"/>
       <use xlink:href="#TimesNewRomanPSMT-37" x="125"/>
      </g>
     </g>
    </g>
    <g id="xtick_9">
     <g id="line2d_9">
      <g>
       <use xlink:href="#m7c78e085f4" x="634.396065" y="378" style="stroke: #000000; stroke-width: 0.8"/>
      </g>
     </g>
     <g id="text_9">
      <!-- 0.08 -->
      <g transform="translate(622.146065 394.72125) scale(0.14 -0.14)">
       <defs>
        <path id="TimesNewRomanPSMT-38" d="M 1228 2134 
Q 725 2547 579 2797 
Q 434 3047 434 3316 
Q 434 3728 753 4026 
Q 1072 4325 1600 4325 
Q 2113 4325 2425 4047 
Q 2738 3769 2738 3413 
Q 2738 3175 2569 2928 
Q 2400 2681 1866 2347 
Q 2416 1922 2594 1678 
Q 2831 1359 2831 1006 
Q 2831 559 2490 242 
Q 2150 -75 1597 -75 
Q 994 -75 656 303 
Q 388 606 388 966 
Q 388 1247 577 1523 
Q 766 1800 1228 2134 
z
M 1719 2469 
Q 2094 2806 2194 3001 
Q 2294 3197 2294 3444 
Q 2294 3772 2109 3958 
Q 1925 4144 1606 4144 
Q 1288 4144 1088 3959 
Q 888 3775 888 3528 
Q 888 3366 970 3203 
Q 1053 3041 1206 2894 
L 1719 2469 
z
M 1375 2016 
Q 1116 1797 991 1539 
Q 866 1281 866 981 
Q 866 578 1086 336 
Q 1306 94 1647 94 
Q 1984 94 2187 284 
Q 2391 475 2391 747 
Q 2391 972 2272 1150 
Q 2050 1481 1375 2016 
z
" transform="scale(0.015625)"/>
       </defs>
       <use xlink:href="#TimesNewRomanPSMT-30"/>
       <use xlink:href="#TimesNewRomanPSMT-2e" x="50"/>
       <use xlink:href="#TimesNewRomanPSMT-30" x="75"/>
       <use xlink:href="#TimesNewRomanPSMT-38" x="125"/>
      </g>
     </g>
    </g>
    <g id="text_10">
     <!-- Mean Coefficient (Across LOO Cross Validation) -->
     <g transform="translate(229.859687 411.437187) scale(0.14 -0.14)">
      <defs>
       <path id="TimesNewRomanPSMT-4d" d="M 2619 0 
L 981 3566 
L 981 734 
Q 981 344 1066 247 
Q 1181 116 1431 116 
L 1581 116 
L 1581 0 
L 106 0 
L 106 116 
L 256 116 
Q 525 116 638 278 
Q 706 378 706 734 
L 706 3503 
Q 706 3784 644 3909 
Q 600 4000 483 4061 
Q 366 4122 106 4122 
L 106 4238 
L 1306 4238 
L 2844 922 
L 4356 4238 
L 5556 4238 
L 5556 4122 
L 5409 4122 
Q 5138 4122 5025 3959 
Q 4956 3859 4956 3503 
L 4956 734 
Q 4956 344 5044 247 
Q 5159 116 5409 116 
L 5556 116 
L 5556 0 
L 3756 0 
L 3756 116 
L 3906 116 
Q 4178 116 4288 278 
Q 4356 378 4356 734 
L 4356 3566 
L 2722 0 
L 2619 0 
z
" transform="scale(0.015625)"/>
       <path id="TimesNewRomanPSMT-65" d="M 681 1784 
Q 678 1147 991 784 
Q 1303 422 1725 422 
Q 2006 422 2214 576 
Q 2422 731 2563 1106 
L 2659 1044 
Q 2594 616 2278 264 
Q 1963 -88 1488 -88 
Q 972 -88 605 314 
Q 238 716 238 1394 
Q 238 2128 614 2539 
Q 991 2950 1559 2950 
Q 2041 2950 2350 2633 
Q 2659 2316 2659 1784 
L 681 1784 
z
M 681 1966 
L 2006 1966 
Q 1991 2241 1941 2353 
Q 1863 2528 1708 2628 
Q 1553 2728 1384 2728 
Q 1125 2728 920 2526 
Q 716 2325 681 1966 
z
" transform="scale(0.015625)"/>
       <path id="TimesNewRomanPSMT-61" d="M 1822 413 
Q 1381 72 1269 19 
Q 1100 -59 909 -59 
Q 613 -59 420 144 
Q 228 347 228 678 
Q 228 888 322 1041 
Q 450 1253 767 1440 
Q 1084 1628 1822 1897 
L 1822 2009 
Q 1822 2438 1686 2597 
Q 1550 2756 1291 2756 
Q 1094 2756 978 2650 
Q 859 2544 859 2406 
L 866 2225 
Q 866 2081 792 2003 
Q 719 1925 600 1925 
Q 484 1925 411 2006 
Q 338 2088 338 2228 
Q 338 2497 613 2722 
Q 888 2947 1384 2947 
Q 1766 2947 2009 2819 
Q 2194 2722 2281 2516 
Q 2338 2381 2338 1966 
L 2338 994 
Q 2338 584 2353 492 
Q 2369 400 2405 369 
Q 2441 338 2488 338 
Q 2538 338 2575 359 
Q 2641 400 2828 588 
L 2828 413 
Q 2478 -56 2159 -56 
Q 2006 -56 1915 50 
Q 1825 156 1822 413 
z
M 1822 616 
L 1822 1706 
Q 1350 1519 1213 1441 
Q 966 1303 859 1153 
Q 753 1003 753 825 
Q 753 600 887 451 
Q 1022 303 1197 303 
Q 1434 303 1822 616 
z
" transform="scale(0.015625)"/>
       <path id="TimesNewRomanPSMT-6e" d="M 1034 2341 
Q 1538 2947 1994 2947 
Q 2228 2947 2397 2830 
Q 2566 2713 2666 2444 
Q 2734 2256 2734 1869 
L 2734 647 
Q 2734 375 2778 278 
Q 2813 200 2889 156 
Q 2966 113 3172 113 
L 3172 0 
L 1756 0 
L 1756 113 
L 1816 113 
Q 2016 113 2095 173 
Q 2175 234 2206 353 
Q 2219 400 2219 647 
L 2219 1819 
Q 2219 2209 2117 2386 
Q 2016 2563 1775 2563 
Q 1403 2563 1034 2156 
L 1034 647 
Q 1034 356 1069 288 
Q 1113 197 1189 155 
Q 1266 113 1500 113 
L 1500 0 
L 84 0 
L 84 113 
L 147 113 
Q 366 113 442 223 
Q 519 334 519 647 
L 519 1709 
Q 519 2225 495 2337 
Q 472 2450 423 2490 
Q 375 2531 294 2531 
Q 206 2531 84 2484 
L 38 2597 
L 900 2947 
L 1034 2947 
L 1034 2341 
z
" transform="scale(0.015625)"/>
       <path id="TimesNewRomanPSMT-20" transform="scale(0.015625)"/>
       <path id="TimesNewRomanPSMT-43" d="M 3853 4334 
L 3950 2894 
L 3853 2894 
Q 3659 3541 3300 3825 
Q 2941 4109 2438 4109 
Q 2016 4109 1675 3895 
Q 1334 3681 1139 3212 
Q 944 2744 944 2047 
Q 944 1472 1128 1050 
Q 1313 628 1683 403 
Q 2053 178 2528 178 
Q 2941 178 3256 354 
Q 3572 531 3950 1056 
L 4047 994 
Q 3728 428 3303 165 
Q 2878 -97 2294 -97 
Q 1241 -97 663 684 
Q 231 1266 231 2053 
Q 231 2688 515 3219 
Q 800 3750 1298 4042 
Q 1797 4334 2388 4334 
Q 2847 4334 3294 4109 
Q 3425 4041 3481 4041 
Q 3566 4041 3628 4100 
Q 3709 4184 3744 4334 
L 3853 4334 
z
" transform="scale(0.015625)"/>
       <path id="TimesNewRomanPSMT-6f" d="M 1600 2947 
Q 2250 2947 2644 2453 
Q 2978 2031 2978 1484 
Q 2978 1100 2793 706 
Q 2609 313 2286 112 
Q 1963 -88 1566 -88 
Q 919 -88 538 428 
Q 216 863 216 1403 
Q 216 1797 411 2186 
Q 606 2575 925 2761 
Q 1244 2947 1600 2947 
z
M 1503 2744 
Q 1338 2744 1170 2645 
Q 1003 2547 900 2300 
Q 797 2053 797 1666 
Q 797 1041 1045 587 
Q 1294 134 1700 134 
Q 2003 134 2200 384 
Q 2397 634 2397 1244 
Q 2397 2006 2069 2444 
Q 1847 2744 1503 2744 
z
" transform="scale(0.015625)"/>
       <path id="TimesNewRomanPSMT-66" d="M 1319 2638 
L 1319 756 
Q 1319 356 1406 250 
Q 1522 113 1716 113 
L 1975 113 
L 1975 0 
L 266 0 
L 266 113 
L 394 113 
Q 519 113 622 175 
Q 725 238 764 344 
Q 803 450 803 756 
L 803 2638 
L 247 2638 
L 247 2863 
L 803 2863 
L 803 3050 
Q 803 3478 940 3775 
Q 1078 4072 1361 4255 
Q 1644 4438 1997 4438 
Q 2325 4438 2600 4225 
Q 2781 4084 2781 3909 
Q 2781 3816 2700 3733 
Q 2619 3650 2525 3650 
Q 2453 3650 2373 3701 
Q 2294 3753 2178 3923 
Q 2063 4094 1966 4153 
Q 1869 4213 1750 4213 
Q 1606 4213 1506 4136 
Q 1406 4059 1362 3898 
Q 1319 3738 1319 3069 
L 1319 2863 
L 2056 2863 
L 2056 2638 
L 1319 2638 
z
" transform="scale(0.015625)"/>
       <path id="TimesNewRomanPSMT-69" d="M 928 4444 
Q 1059 4444 1151 4351 
Q 1244 4259 1244 4128 
Q 1244 3997 1151 3903 
Q 1059 3809 928 3809 
Q 797 3809 703 3903 
Q 609 3997 609 4128 
Q 609 4259 701 4351 
Q 794 4444 928 4444 
z
M 1188 2947 
L 1188 647 
Q 1188 378 1227 289 
Q 1266 200 1342 156 
Q 1419 113 1622 113 
L 1622 0 
L 231 0 
L 231 113 
Q 441 113 512 153 
Q 584 194 626 287 
Q 669 381 669 647 
L 669 1750 
Q 669 2216 641 2353 
Q 619 2453 572 2492 
Q 525 2531 444 2531 
Q 356 2531 231 2484 
L 188 2597 
L 1050 2947 
L 1188 2947 
z
" transform="scale(0.015625)"/>
       <path id="TimesNewRomanPSMT-63" d="M 2631 1088 
Q 2516 522 2178 217 
Q 1841 -88 1431 -88 
Q 944 -88 581 321 
Q 219 731 219 1428 
Q 219 2103 620 2525 
Q 1022 2947 1584 2947 
Q 2006 2947 2278 2723 
Q 2550 2500 2550 2259 
Q 2550 2141 2473 2067 
Q 2397 1994 2259 1994 
Q 2075 1994 1981 2113 
Q 1928 2178 1911 2362 
Q 1894 2547 1784 2644 
Q 1675 2738 1481 2738 
Q 1169 2738 978 2506 
Q 725 2200 725 1697 
Q 725 1184 976 792 
Q 1228 400 1656 400 
Q 1963 400 2206 609 
Q 2378 753 2541 1131 
L 2631 1088 
z
" transform="scale(0.015625)"/>
       <path id="TimesNewRomanPSMT-74" d="M 1031 3803 
L 1031 2863 
L 1700 2863 
L 1700 2644 
L 1031 2644 
L 1031 788 
Q 1031 509 1111 412 
Q 1191 316 1316 316 
Q 1419 316 1516 380 
Q 1613 444 1666 569 
L 1788 569 
Q 1678 263 1478 108 
Q 1278 -47 1066 -47 
Q 922 -47 784 33 
Q 647 113 581 261 
Q 516 409 516 719 
L 516 2644 
L 63 2644 
L 63 2747 
Q 234 2816 414 2980 
Q 594 3144 734 3369 
Q 806 3488 934 3803 
L 1031 3803 
z
" transform="scale(0.015625)"/>
       <path id="TimesNewRomanPSMT-28" d="M 1988 -1253 
L 1988 -1369 
Q 1516 -1131 1200 -813 
Q 750 -359 506 256 
Q 263 872 263 1534 
Q 263 2503 741 3301 
Q 1219 4100 1988 4444 
L 1988 4313 
Q 1603 4100 1356 3731 
Q 1109 3363 987 2797 
Q 866 2231 866 1616 
Q 866 947 969 400 
Q 1050 -31 1165 -292 
Q 1281 -553 1476 -793 
Q 1672 -1034 1988 -1253 
z
" transform="scale(0.015625)"/>
       <path id="TimesNewRomanPSMT-41" d="M 2928 1419 
L 1288 1419 
L 1000 750 
Q 894 503 894 381 
Q 894 284 986 211 
Q 1078 138 1384 116 
L 1384 0 
L 50 0 
L 50 116 
Q 316 163 394 238 
Q 553 388 747 847 
L 2238 4334 
L 2347 4334 
L 3822 809 
Q 4000 384 4145 257 
Q 4291 131 4550 116 
L 4550 0 
L 2878 0 
L 2878 116 
Q 3131 128 3220 200 
Q 3309 272 3309 375 
Q 3309 513 3184 809 
L 2928 1419 
z
M 2841 1650 
L 2122 3363 
L 1384 1650 
L 2841 1650 
z
" transform="scale(0.015625)"/>
       <path id="TimesNewRomanPSMT-72" d="M 1038 2947 
L 1038 2303 
Q 1397 2947 1775 2947 
Q 1947 2947 2059 2842 
Q 2172 2738 2172 2600 
Q 2172 2478 2090 2393 
Q 2009 2309 1897 2309 
Q 1788 2309 1652 2417 
Q 1516 2525 1450 2525 
Q 1394 2525 1328 2463 
Q 1188 2334 1038 2041 
L 1038 669 
Q 1038 431 1097 309 
Q 1138 225 1241 169 
Q 1344 113 1538 113 
L 1538 0 
L 72 0 
L 72 113 
Q 291 113 397 181 
Q 475 231 506 341 
Q 522 394 522 644 
L 522 1753 
Q 522 2253 501 2348 
Q 481 2444 426 2487 
Q 372 2531 291 2531 
Q 194 2531 72 2484 
L 41 2597 
L 906 2947 
L 1038 2947 
z
" transform="scale(0.015625)"/>
       <path id="TimesNewRomanPSMT-73" d="M 2050 2947 
L 2050 1972 
L 1947 1972 
Q 1828 2431 1642 2597 
Q 1456 2763 1169 2763 
Q 950 2763 815 2647 
Q 681 2531 681 2391 
Q 681 2216 781 2091 
Q 878 1963 1175 1819 
L 1631 1597 
Q 2266 1288 2266 781 
Q 2266 391 1970 151 
Q 1675 -88 1309 -88 
Q 1047 -88 709 6 
Q 606 38 541 38 
Q 469 38 428 -44 
L 325 -44 
L 325 978 
L 428 978 
Q 516 541 762 319 
Q 1009 97 1316 97 
Q 1531 97 1667 223 
Q 1803 350 1803 528 
Q 1803 744 1651 891 
Q 1500 1038 1047 1263 
Q 594 1488 453 1669 
Q 313 1847 313 2119 
Q 313 2472 555 2709 
Q 797 2947 1181 2947 
Q 1350 2947 1591 2875 
Q 1750 2828 1803 2828 
Q 1853 2828 1881 2850 
Q 1909 2872 1947 2947 
L 2050 2947 
z
" transform="scale(0.015625)"/>
       <path id="TimesNewRomanPSMT-4c" d="M 3669 1172 
L 3772 1150 
L 3409 0 
L 128 0 
L 128 116 
L 288 116 
Q 556 116 672 291 
Q 738 391 738 753 
L 738 3488 
Q 738 3884 650 3984 
Q 528 4122 288 4122 
L 128 4122 
L 128 4238 
L 2047 4238 
L 2047 4122 
Q 1709 4125 1573 4059 
Q 1438 3994 1388 3894 
Q 1338 3794 1338 3416 
L 1338 753 
Q 1338 494 1388 397 
Q 1425 331 1503 300 
Q 1581 269 1991 269 
L 2300 269 
Q 2788 269 2984 341 
Q 3181 413 3343 595 
Q 3506 778 3669 1172 
z
" transform="scale(0.015625)"/>
       <path id="TimesNewRomanPSMT-4f" d="M 2341 4334 
Q 3166 4334 3770 3707 
Q 4375 3081 4375 2144 
Q 4375 1178 3765 540 
Q 3156 -97 2291 -97 
Q 1416 -97 820 525 
Q 225 1147 225 2134 
Q 225 3144 913 3781 
Q 1509 4334 2341 4334 
z
M 2281 4106 
Q 1713 4106 1369 3684 
Q 941 3159 941 2147 
Q 941 1109 1384 550 
Q 1725 125 2284 125 
Q 2881 125 3270 590 
Q 3659 1056 3659 2059 
Q 3659 3147 3231 3681 
Q 2888 4106 2281 4106 
z
" transform="scale(0.015625)"/>
       <path id="TimesNewRomanPSMT-56" d="M 4544 4238 
L 4544 4122 
Q 4319 4081 4203 3978 
Q 4038 3825 3909 3509 
L 2431 -97 
L 2316 -97 
L 728 3556 
Q 606 3838 556 3900 
Q 478 3997 364 4051 
Q 250 4106 56 4122 
L 56 4238 
L 1788 4238 
L 1788 4122 
Q 1494 4094 1406 4022 
Q 1319 3950 1319 3838 
Q 1319 3681 1463 3350 
L 2541 866 
L 3541 3319 
Q 3688 3681 3688 3822 
Q 3688 3913 3597 3995 
Q 3506 4078 3291 4113 
Q 3275 4116 3238 4122 
L 3238 4238 
L 4544 4238 
z
" transform="scale(0.015625)"/>
       <path id="TimesNewRomanPSMT-6c" d="M 1184 4444 
L 1184 647 
Q 1184 378 1223 290 
Q 1263 203 1344 158 
Q 1425 113 1647 113 
L 1647 0 
L 244 0 
L 244 113 
Q 441 113 512 153 
Q 584 194 625 287 
Q 666 381 666 647 
L 666 3247 
Q 666 3731 644 3842 
Q 622 3953 573 3993 
Q 525 4034 450 4034 
Q 369 4034 244 3984 
L 191 4094 
L 1044 4444 
L 1184 4444 
z
" transform="scale(0.015625)"/>
       <path id="TimesNewRomanPSMT-64" d="M 2222 322 
Q 2013 103 1813 7 
Q 1613 -88 1381 -88 
Q 913 -88 563 304 
Q 213 697 213 1313 
Q 213 1928 600 2439 
Q 988 2950 1597 2950 
Q 1975 2950 2222 2709 
L 2222 3238 
Q 2222 3728 2198 3840 
Q 2175 3953 2125 3993 
Q 2075 4034 2000 4034 
Q 1919 4034 1784 3984 
L 1744 4094 
L 2597 4444 
L 2738 4444 
L 2738 1134 
Q 2738 631 2761 520 
Q 2784 409 2836 365 
Q 2888 322 2956 322 
Q 3041 322 3181 375 
L 3216 266 
L 2366 -88 
L 2222 -88 
L 2222 322 
z
M 2222 541 
L 2222 2016 
Q 2203 2228 2109 2403 
Q 2016 2578 1861 2667 
Q 1706 2756 1559 2756 
Q 1284 2756 1069 2509 
Q 784 2184 784 1559 
Q 784 928 1059 592 
Q 1334 256 1672 256 
Q 1956 256 2222 541 
z
" transform="scale(0.015625)"/>
       <path id="TimesNewRomanPSMT-29" d="M 144 4313 
L 144 4444 
Q 619 4209 934 3891 
Q 1381 3434 1625 2820 
Q 1869 2206 1869 1541 
Q 1869 572 1392 -226 
Q 916 -1025 144 -1369 
L 144 -1253 
Q 528 -1038 776 -670 
Q 1025 -303 1145 264 
Q 1266 831 1266 1447 
Q 1266 2113 1163 2663 
Q 1084 3094 967 3353 
Q 850 3613 656 3853 
Q 463 4094 144 4313 
z
" transform="scale(0.015625)"/>
      </defs>
      <use xlink:href="#TimesNewRomanPSMT-4d"/>
      <use xlink:href="#TimesNewRomanPSMT-65" x="88.916016"/>
      <use xlink:href="#TimesNewRomanPSMT-61" x="133.300781"/>
      <use xlink:href="#TimesNewRomanPSMT-6e" x="177.685547"/>
      <use xlink:href="#TimesNewRomanPSMT-20" x="227.685547"/>
      <use xlink:href="#TimesNewRomanPSMT-43" x="252.685547"/>
      <use xlink:href="#TimesNewRomanPSMT-6f" x="319.384766"/>
      <use xlink:href="#TimesNewRomanPSMT-65" x="369.384766"/>
      <use xlink:href="#TimesNewRomanPSMT-66" x="413.769531"/>
      <use xlink:href="#TimesNewRomanPSMT-66" x="445.320312"/>
      <use xlink:href="#TimesNewRomanPSMT-69" x="478.621094"/>
      <use xlink:href="#TimesNewRomanPSMT-63" x="506.404297"/>
      <use xlink:href="#TimesNewRomanPSMT-69" x="550.789062"/>
      <use xlink:href="#TimesNewRomanPSMT-65" x="578.572266"/>
      <use xlink:href="#TimesNewRomanPSMT-6e" x="622.957031"/>
      <use xlink:href="#TimesNewRomanPSMT-74" x="672.957031"/>
      <use xlink:href="#TimesNewRomanPSMT-20" x="700.740234"/>
      <use xlink:href="#TimesNewRomanPSMT-28" x="725.740234"/>
      <use xlink:href="#TimesNewRomanPSMT-41" x="759.041016"/>
      <use xlink:href="#TimesNewRomanPSMT-63" x="831.257812"/>
      <use xlink:href="#TimesNewRomanPSMT-72" x="875.642578"/>
      <use xlink:href="#TimesNewRomanPSMT-6f" x="908.943359"/>
      <use xlink:href="#TimesNewRomanPSMT-73" x="958.943359"/>
      <use xlink:href="#TimesNewRomanPSMT-73" x="997.859375"/>
      <use xlink:href="#TimesNewRomanPSMT-20" x="1036.775391"/>
      <use xlink:href="#TimesNewRomanPSMT-4c" x="1061.775391"/>
      <use xlink:href="#TimesNewRomanPSMT-4f" x="1122.859375"/>
      <use xlink:href="#TimesNewRomanPSMT-4f" x="1195.076172"/>
      <use xlink:href="#TimesNewRomanPSMT-20" x="1267.292969"/>
      <use xlink:href="#TimesNewRomanPSMT-43" x="1292.292969"/>
      <use xlink:href="#TimesNewRomanPSMT-72" x="1358.992188"/>
      <use xlink:href="#TimesNewRomanPSMT-6f" x="1392.292969"/>
      <use xlink:href="#TimesNewRomanPSMT-73" x="1442.292969"/>
      <use xlink:href="#TimesNewRomanPSMT-73" x="1481.208984"/>
      <use xlink:href="#TimesNewRomanPSMT-20" x="1520.125"/>
      <use xlink:href="#TimesNewRomanPSMT-56" x="1543.375"/>
      <use xlink:href="#TimesNewRomanPSMT-61" x="1604.466797"/>
      <use xlink:href="#TimesNewRomanPSMT-6c" x="1648.851562"/>
      <use xlink:href="#TimesNewRomanPSMT-69" x="1676.634766"/>
      <use xlink:href="#TimesNewRomanPSMT-64" x="1704.417969"/>
      <use xlink:href="#TimesNewRomanPSMT-61" x="1754.417969"/>
      <use xlink:href="#TimesNewRomanPSMT-74" x="1798.802734"/>
      <use xlink:href="#TimesNewRomanPSMT-69" x="1826.585938"/>
      <use xlink:href="#TimesNewRomanPSMT-6f" x="1854.369141"/>
      <use xlink:href="#TimesNewRomanPSMT-6e" x="1904.369141"/>
      <use xlink:href="#TimesNewRomanPSMT-29" x="1954.369141"/>
     </g>
    </g>
   </g>
   <g id="matplotlib.axis_2">
    <g id="ytick_1">
     <g id="line2d_10">
      <defs>
       <path id="m8b9adf01ae" d="M 0 0 
L -3.5 0 
" style="stroke: #000000; stroke-width: 0.8"/>
      </defs>
      <g>
       <use xlink:href="#m8b9adf01ae" x="90" y="78.767866" style="stroke: #000000; stroke-width: 0.8"/>
      </g>
     </g>
     <g id="text_11">
      <!-- team_size -->
      <g transform="translate(27.024062 83.628491) scale(0.14 -0.14)">
       <defs>
        <path id="TimesNewRomanPSMT-6d" d="M 1050 2338 
Q 1363 2650 1419 2697 
Q 1559 2816 1721 2881 
Q 1884 2947 2044 2947 
Q 2313 2947 2506 2790 
Q 2700 2634 2766 2338 
Q 3088 2713 3309 2830 
Q 3531 2947 3766 2947 
Q 3994 2947 4170 2830 
Q 4347 2713 4450 2447 
Q 4519 2266 4519 1878 
L 4519 647 
Q 4519 378 4559 278 
Q 4591 209 4675 161 
Q 4759 113 4950 113 
L 4950 0 
L 3538 0 
L 3538 113 
L 3597 113 
Q 3781 113 3884 184 
Q 3956 234 3988 344 
Q 4000 397 4000 647 
L 4000 1878 
Q 4000 2228 3916 2372 
Q 3794 2572 3525 2572 
Q 3359 2572 3192 2489 
Q 3025 2406 2788 2181 
L 2781 2147 
L 2788 2013 
L 2788 647 
Q 2788 353 2820 281 
Q 2853 209 2943 161 
Q 3034 113 3253 113 
L 3253 0 
L 1806 0 
L 1806 113 
Q 2044 113 2133 169 
Q 2222 225 2256 338 
Q 2272 391 2272 647 
L 2272 1878 
Q 2272 2228 2169 2381 
Q 2031 2581 1784 2581 
Q 1616 2581 1450 2491 
Q 1191 2353 1050 2181 
L 1050 647 
Q 1050 366 1089 281 
Q 1128 197 1204 155 
Q 1281 113 1516 113 
L 1516 0 
L 100 0 
L 100 113 
Q 297 113 375 155 
Q 453 197 493 289 
Q 534 381 534 647 
L 534 1741 
Q 534 2213 506 2350 
Q 484 2453 437 2492 
Q 391 2531 309 2531 
Q 222 2531 100 2484 
L 53 2597 
L 916 2947 
L 1050 2947 
L 1050 2338 
z
" transform="scale(0.015625)"/>
        <path id="TimesNewRomanPSMT-5f" d="M 3256 -1381 
L -53 -1381 
L -53 -1119 
L 3256 -1119 
L 3256 -1381 
z
" transform="scale(0.015625)"/>
        <path id="TimesNewRomanPSMT-7a" d="M 2688 878 
L 2653 0 
L 128 0 
L 128 113 
L 2028 2644 
L 1091 2644 
Q 788 2644 694 2605 
Q 600 2566 541 2456 
Q 456 2300 444 2069 
L 319 2069 
L 338 2863 
L 2738 2863 
L 2738 2747 
L 819 209 
L 1863 209 
Q 2191 209 2308 264 
Q 2425 319 2497 456 
Q 2547 556 2581 878 
L 2688 878 
z
" transform="scale(0.015625)"/>
       </defs>
       <use xlink:href="#TimesNewRomanPSMT-74"/>
       <use xlink:href="#TimesNewRomanPSMT-65" x="27.783203"/>
       <use xlink:href="#TimesNewRomanPSMT-61" x="72.167969"/>
       <use xlink:href="#TimesNewRomanPSMT-6d" x="116.552734"/>
       <use xlink:href="#TimesNewRomanPSMT-5f" x="194.335938"/>
       <use xlink:href="#TimesNewRomanPSMT-73" x="244.335938"/>
       <use xlink:href="#TimesNewRomanPSMT-69" x="283.251953"/>
       <use xlink:href="#TimesNewRomanPSMT-7a" x="311.035156"/>
       <use xlink:href="#TimesNewRomanPSMT-65" x="355.419922"/>
      </g>
     </g>
    </g>
    <g id="ytick_2">
     <g id="line2d_11">
      <g>
       <use xlink:href="#m8b9adf01ae" x="90" y="109.023896" style="stroke: #000000; stroke-width: 0.8"/>
      </g>
     </g>
     <g id="text_12">
      <!-- average_user_sum_subjunctive -->
      <g transform="translate(-92.730625 113.887802) scale(0.14 -0.14)">
       <defs>
        <path id="TimesNewRomanPSMT-76" d="M 53 2863 
L 1400 2863 
L 1400 2747 
L 1313 2747 
Q 1191 2747 1127 2687 
Q 1063 2628 1063 2528 
Q 1063 2419 1128 2269 
L 1794 688 
L 2463 2328 
Q 2534 2503 2534 2594 
Q 2534 2638 2509 2666 
Q 2475 2713 2422 2730 
Q 2369 2747 2206 2747 
L 2206 2863 
L 3141 2863 
L 3141 2747 
Q 2978 2734 2916 2681 
Q 2806 2588 2719 2369 
L 1703 -88 
L 1575 -88 
L 553 2328 
Q 484 2497 421 2570 
Q 359 2644 263 2694 
Q 209 2722 53 2747 
L 53 2863 
z
" transform="scale(0.015625)"/>
        <path id="TimesNewRomanPSMT-67" d="M 966 1044 
Q 703 1172 562 1401 
Q 422 1631 422 1909 
Q 422 2334 742 2640 
Q 1063 2947 1563 2947 
Q 1972 2947 2272 2747 
L 2878 2747 
Q 3013 2747 3034 2739 
Q 3056 2731 3066 2713 
Q 3084 2684 3084 2613 
Q 3084 2531 3069 2500 
Q 3059 2484 3036 2475 
Q 3013 2466 2878 2466 
L 2506 2466 
Q 2681 2241 2681 1891 
Q 2681 1491 2375 1206 
Q 2069 922 1553 922 
Q 1341 922 1119 984 
Q 981 866 932 777 
Q 884 688 884 625 
Q 884 572 936 522 
Q 988 472 1138 450 
Q 1225 438 1575 428 
Q 2219 413 2409 384 
Q 2700 344 2873 169 
Q 3047 -6 3047 -263 
Q 3047 -616 2716 -925 
Q 2228 -1381 1444 -1381 
Q 841 -1381 425 -1109 
Q 191 -953 191 -784 
Q 191 -709 225 -634 
Q 278 -519 444 -313 
Q 466 -284 763 25 
Q 600 122 533 198 
Q 466 275 466 372 
Q 466 481 555 628 
Q 644 775 966 1044 
z
M 1509 2797 
Q 1278 2797 1122 2612 
Q 966 2428 966 2047 
Q 966 1553 1178 1281 
Q 1341 1075 1591 1075 
Q 1828 1075 1981 1253 
Q 2134 1431 2134 1813 
Q 2134 2309 1919 2591 
Q 1759 2797 1509 2797 
z
M 934 0 
Q 788 -159 713 -296 
Q 638 -434 638 -550 
Q 638 -700 819 -813 
Q 1131 -1006 1722 -1006 
Q 2284 -1006 2551 -807 
Q 2819 -609 2819 -384 
Q 2819 -222 2659 -153 
Q 2497 -84 2016 -72 
Q 1313 -53 934 0 
z
" transform="scale(0.015625)"/>
        <path id="TimesNewRomanPSMT-75" d="M 2709 2863 
L 2709 1128 
Q 2709 631 2732 520 
Q 2756 409 2807 365 
Q 2859 322 2928 322 
Q 3025 322 3147 375 
L 3191 266 
L 2334 -88 
L 2194 -88 
L 2194 519 
Q 1825 119 1631 15 
Q 1438 -88 1222 -88 
Q 981 -88 804 51 
Q 628 191 559 409 
Q 491 628 491 1028 
L 491 2306 
Q 491 2509 447 2587 
Q 403 2666 317 2708 
Q 231 2750 6 2747 
L 6 2863 
L 1009 2863 
L 1009 947 
Q 1009 547 1148 422 
Q 1288 297 1484 297 
Q 1619 297 1789 381 
Q 1959 466 2194 703 
L 2194 2325 
Q 2194 2569 2105 2655 
Q 2016 2741 1734 2747 
L 1734 2863 
L 2709 2863 
z
" transform="scale(0.015625)"/>
        <path id="TimesNewRomanPSMT-62" d="M 984 2369 
Q 1400 2947 1881 2947 
Q 2322 2947 2650 2570 
Q 2978 2194 2978 1541 
Q 2978 778 2472 313 
Q 2038 -88 1503 -88 
Q 1253 -88 995 3 
Q 738 94 469 275 
L 469 3241 
Q 469 3728 445 3840 
Q 422 3953 372 3993 
Q 322 4034 247 4034 
Q 159 4034 28 3984 
L -16 4094 
L 844 4444 
L 984 4444 
L 984 2369 
z
M 984 2169 
L 984 456 
Q 1144 300 1314 220 
Q 1484 141 1663 141 
Q 1947 141 2192 453 
Q 2438 766 2438 1363 
Q 2438 1913 2192 2208 
Q 1947 2503 1634 2503 
Q 1469 2503 1303 2419 
Q 1178 2356 984 2169 
z
" transform="scale(0.015625)"/>
        <path id="TimesNewRomanPSMT-6a" d="M 925 4447 
Q 1059 4447 1153 4353 
Q 1247 4259 1247 4125 
Q 1247 3994 1153 3900 
Q 1059 3806 925 3806 
Q 794 3806 700 3900 
Q 606 3994 606 4125 
Q 606 4259 700 4353 
Q 794 4447 925 4447 
z
M 1194 2947 
L 1194 66 
Q 1194 -669 881 -1025 
Q 569 -1381 69 -1381 
Q -216 -1381 -353 -1278 
Q -491 -1175 -491 -1066 
Q -491 -956 -414 -878 
Q -338 -800 -234 -800 
Q -153 -800 -69 -841 
Q -16 -863 136 -998 
Q 288 -1134 391 -1134 
Q 466 -1134 537 -1076 
Q 609 -1019 643 -883 
Q 678 -747 678 -294 
L 678 1744 
Q 678 2216 650 2350 
Q 628 2453 581 2492 
Q 534 2531 453 2531 
Q 366 2531 241 2484 
L 197 2597 
L 1059 2947 
L 1194 2947 
z
" transform="scale(0.015625)"/>
       </defs>
       <use xlink:href="#TimesNewRomanPSMT-61"/>
       <use xlink:href="#TimesNewRomanPSMT-76" x="44.384766"/>
       <use xlink:href="#TimesNewRomanPSMT-65" x="94.384766"/>
       <use xlink:href="#TimesNewRomanPSMT-72" x="138.769531"/>
       <use xlink:href="#TimesNewRomanPSMT-61" x="172.070312"/>
       <use xlink:href="#TimesNewRomanPSMT-67" x="216.455078"/>
       <use xlink:href="#TimesNewRomanPSMT-65" x="266.455078"/>
       <use xlink:href="#TimesNewRomanPSMT-5f" x="310.839844"/>
       <use xlink:href="#TimesNewRomanPSMT-75" x="360.839844"/>
       <use xlink:href="#TimesNewRomanPSMT-73" x="410.839844"/>
       <use xlink:href="#TimesNewRomanPSMT-65" x="449.755859"/>
       <use xlink:href="#TimesNewRomanPSMT-72" x="494.140625"/>
       <use xlink:href="#TimesNewRomanPSMT-5f" x="527.441406"/>
       <use xlink:href="#TimesNewRomanPSMT-73" x="577.441406"/>
       <use xlink:href="#TimesNewRomanPSMT-75" x="616.357422"/>
       <use xlink:href="#TimesNewRomanPSMT-6d" x="666.357422"/>
       <use xlink:href="#TimesNewRomanPSMT-5f" x="744.140625"/>
       <use xlink:href="#TimesNewRomanPSMT-73" x="794.140625"/>
       <use xlink:href="#TimesNewRomanPSMT-75" x="833.056641"/>
       <use xlink:href="#TimesNewRomanPSMT-62" x="883.056641"/>
       <use xlink:href="#TimesNewRomanPSMT-6a" x="933.056641"/>
       <use xlink:href="#TimesNewRomanPSMT-75" x="960.839844"/>
       <use xlink:href="#TimesNewRomanPSMT-6e" x="1010.839844"/>
       <use xlink:href="#TimesNewRomanPSMT-63" x="1060.839844"/>
       <use xlink:href="#TimesNewRomanPSMT-74" x="1105.224609"/>
       <use xlink:href="#TimesNewRomanPSMT-69" x="1133.007812"/>
       <use xlink:href="#TimesNewRomanPSMT-76" x="1160.791016"/>
       <use xlink:href="#TimesNewRomanPSMT-65" x="1210.791016"/>
      </g>
     </g>
    </g>
    <g id="ytick_3">
     <g id="line2d_12">
      <g>
       <use xlink:href="#m8b9adf01ae" x="90" y="139.279926" style="stroke: #000000; stroke-width: 0.8"/>
      </g>
     </g>
     <g id="text_13">
      <!-- min_user_sum_indicative -->
      <g transform="translate(-61.644063 144.140551) scale(0.14 -0.14)">
       <use xlink:href="#TimesNewRomanPSMT-6d"/>
       <use xlink:href="#TimesNewRomanPSMT-69" x="77.783203"/>
       <use xlink:href="#TimesNewRomanPSMT-6e" x="105.566406"/>
       <use xlink:href="#TimesNewRomanPSMT-5f" x="155.566406"/>
       <use xlink:href="#TimesNewRomanPSMT-75" x="205.566406"/>
       <use xlink:href="#TimesNewRomanPSMT-73" x="255.566406"/>
       <use xlink:href="#TimesNewRomanPSMT-65" x="294.482422"/>
       <use xlink:href="#TimesNewRomanPSMT-72" x="338.867188"/>
       <use xlink:href="#TimesNewRomanPSMT-5f" x="372.167969"/>
       <use xlink:href="#TimesNewRomanPSMT-73" x="422.167969"/>
       <use xlink:href="#TimesNewRomanPSMT-75" x="461.083984"/>
       <use xlink:href="#TimesNewRomanPSMT-6d" x="511.083984"/>
       <use xlink:href="#TimesNewRomanPSMT-5f" x="588.867188"/>
       <use xlink:href="#TimesNewRomanPSMT-69" x="638.867188"/>
       <use xlink:href="#TimesNewRomanPSMT-6e" x="666.650391"/>
       <use xlink:href="#TimesNewRomanPSMT-64" x="716.650391"/>
       <use xlink:href="#TimesNewRomanPSMT-69" x="766.650391"/>
       <use xlink:href="#TimesNewRomanPSMT-63" x="794.433594"/>
       <use xlink:href="#TimesNewRomanPSMT-61" x="838.818359"/>
       <use xlink:href="#TimesNewRomanPSMT-74" x="883.203125"/>
       <use xlink:href="#TimesNewRomanPSMT-69" x="910.986328"/>
       <use xlink:href="#TimesNewRomanPSMT-76" x="938.769531"/>
       <use xlink:href="#TimesNewRomanPSMT-65" x="988.769531"/>
      </g>
     </g>
    </g>
    <g id="ytick_4">
     <g id="line2d_13">
      <g>
       <use xlink:href="#m8b9adf01ae" x="90" y="169.535955" style="stroke: #000000; stroke-width: 0.8"/>
      </g>
     </g>
     <g id="text_14">
      <!-- stdev_user_sum_indicative -->
      <g transform="translate(-69.418438 174.39658) scale(0.14 -0.14)">
       <use xlink:href="#TimesNewRomanPSMT-73"/>
       <use xlink:href="#TimesNewRomanPSMT-74" x="38.916016"/>
       <use xlink:href="#TimesNewRomanPSMT-64" x="66.699219"/>
       <use xlink:href="#TimesNewRomanPSMT-65" x="116.699219"/>
       <use xlink:href="#TimesNewRomanPSMT-76" x="161.083984"/>
       <use xlink:href="#TimesNewRomanPSMT-5f" x="211.083984"/>
       <use xlink:href="#TimesNewRomanPSMT-75" x="261.083984"/>
       <use xlink:href="#TimesNewRomanPSMT-73" x="311.083984"/>
       <use xlink:href="#TimesNewRomanPSMT-65" x="350"/>
       <use xlink:href="#TimesNewRomanPSMT-72" x="394.384766"/>
       <use xlink:href="#TimesNewRomanPSMT-5f" x="427.685547"/>
       <use xlink:href="#TimesNewRomanPSMT-73" x="477.685547"/>
       <use xlink:href="#TimesNewRomanPSMT-75" x="516.601562"/>
       <use xlink:href="#TimesNewRomanPSMT-6d" x="566.601562"/>
       <use xlink:href="#TimesNewRomanPSMT-5f" x="644.384766"/>
       <use xlink:href="#TimesNewRomanPSMT-69" x="694.384766"/>
       <use xlink:href="#TimesNewRomanPSMT-6e" x="722.167969"/>
       <use xlink:href="#TimesNewRomanPSMT-64" x="772.167969"/>
       <use xlink:href="#TimesNewRomanPSMT-69" x="822.167969"/>
       <use xlink:href="#TimesNewRomanPSMT-63" x="849.951172"/>
       <use xlink:href="#TimesNewRomanPSMT-61" x="894.335938"/>
       <use xlink:href="#TimesNewRomanPSMT-74" x="938.720703"/>
       <use xlink:href="#TimesNewRomanPSMT-69" x="966.503906"/>
       <use xlink:href="#TimesNewRomanPSMT-76" x="994.287109"/>
       <use xlink:href="#TimesNewRomanPSMT-65" x="1044.287109"/>
      </g>
     </g>
    </g>
    <g id="ytick_5">
     <g id="line2d_14">
      <g>
       <use xlink:href="#m8b9adf01ae" x="90" y="199.791985" style="stroke: #000000; stroke-width: 0.8"/>
      </g>
     </g>
     <g id="text_15">
      <!-- average_user_sum_indicative -->
      <g transform="translate(-83.385625 204.65261) scale(0.14 -0.14)">
       <use xlink:href="#TimesNewRomanPSMT-61"/>
       <use xlink:href="#TimesNewRomanPSMT-76" x="44.384766"/>
       <use xlink:href="#TimesNewRomanPSMT-65" x="94.384766"/>
       <use xlink:href="#TimesNewRomanPSMT-72" x="138.769531"/>
       <use xlink:href="#TimesNewRomanPSMT-61" x="172.070312"/>
       <use xlink:href="#TimesNewRomanPSMT-67" x="216.455078"/>
       <use xlink:href="#TimesNewRomanPSMT-65" x="266.455078"/>
       <use xlink:href="#TimesNewRomanPSMT-5f" x="310.839844"/>
       <use xlink:href="#TimesNewRomanPSMT-75" x="360.839844"/>
       <use xlink:href="#TimesNewRomanPSMT-73" x="410.839844"/>
       <use xlink:href="#TimesNewRomanPSMT-65" x="449.755859"/>
       <use xlink:href="#TimesNewRomanPSMT-72" x="494.140625"/>
       <use xlink:href="#TimesNewRomanPSMT-5f" x="527.441406"/>
       <use xlink:href="#TimesNewRomanPSMT-73" x="577.441406"/>
       <use xlink:href="#TimesNewRomanPSMT-75" x="616.357422"/>
       <use xlink:href="#TimesNewRomanPSMT-6d" x="666.357422"/>
       <use xlink:href="#TimesNewRomanPSMT-5f" x="744.140625"/>
       <use xlink:href="#TimesNewRomanPSMT-69" x="794.140625"/>
       <use xlink:href="#TimesNewRomanPSMT-6e" x="821.923828"/>
       <use xlink:href="#TimesNewRomanPSMT-64" x="871.923828"/>
       <use xlink:href="#TimesNewRomanPSMT-69" x="921.923828"/>
       <use xlink:href="#TimesNewRomanPSMT-63" x="949.707031"/>
       <use xlink:href="#TimesNewRomanPSMT-61" x="994.091797"/>
       <use xlink:href="#TimesNewRomanPSMT-74" x="1038.476562"/>
       <use xlink:href="#TimesNewRomanPSMT-69" x="1066.259766"/>
       <use xlink:href="#TimesNewRomanPSMT-76" x="1094.042969"/>
       <use xlink:href="#TimesNewRomanPSMT-65" x="1144.042969"/>
      </g>
     </g>
    </g>
    <g id="ytick_6">
     <g id="line2d_15">
      <g>
       <use xlink:href="#m8b9adf01ae" x="90" y="230.048015" style="stroke: #000000; stroke-width: 0.8"/>
      </g>
     </g>
     <g id="text_16">
      <!-- max_user_sum_subjunctive -->
      <g transform="translate(-73.314375 234.911921) scale(0.14 -0.14)">
       <defs>
        <path id="TimesNewRomanPSMT-78" d="M 84 2863 
L 1431 2863 
L 1431 2747 
Q 1303 2747 1251 2703 
Q 1200 2659 1200 2588 
Q 1200 2513 1309 2356 
Q 1344 2306 1413 2200 
L 1616 1875 
L 1850 2200 
Q 2075 2509 2075 2591 
Q 2075 2656 2022 2701 
Q 1969 2747 1850 2747 
L 1850 2863 
L 2819 2863 
L 2819 2747 
Q 2666 2738 2553 2663 
Q 2400 2556 2134 2200 
L 1744 1678 
L 2456 653 
Q 2719 275 2831 198 
Q 2944 122 3122 113 
L 3122 0 
L 1772 0 
L 1772 113 
Q 1913 113 1991 175 
Q 2050 219 2050 291 
Q 2050 363 1850 653 
L 1431 1266 
L 972 653 
Q 759 369 759 316 
Q 759 241 829 180 
Q 900 119 1041 113 
L 1041 0 
L 106 0 
L 106 113 
Q 219 128 303 191 
Q 422 281 703 653 
L 1303 1450 
L 759 2238 
Q 528 2575 401 2661 
Q 275 2747 84 2747 
L 84 2863 
z
" transform="scale(0.015625)"/>
       </defs>
       <use xlink:href="#TimesNewRomanPSMT-6d"/>
       <use xlink:href="#TimesNewRomanPSMT-61" x="77.783203"/>
       <use xlink:href="#TimesNewRomanPSMT-78" x="122.167969"/>
       <use xlink:href="#TimesNewRomanPSMT-5f" x="172.167969"/>
       <use xlink:href="#TimesNewRomanPSMT-75" x="222.167969"/>
       <use xlink:href="#TimesNewRomanPSMT-73" x="272.167969"/>
       <use xlink:href="#TimesNewRomanPSMT-65" x="311.083984"/>
       <use xlink:href="#TimesNewRomanPSMT-72" x="355.46875"/>
       <use xlink:href="#TimesNewRomanPSMT-5f" x="388.769531"/>
       <use xlink:href="#TimesNewRomanPSMT-73" x="438.769531"/>
       <use xlink:href="#TimesNewRomanPSMT-75" x="477.685547"/>
       <use xlink:href="#TimesNewRomanPSMT-6d" x="527.685547"/>
       <use xlink:href="#TimesNewRomanPSMT-5f" x="605.46875"/>
       <use xlink:href="#TimesNewRomanPSMT-73" x="655.46875"/>
       <use xlink:href="#TimesNewRomanPSMT-75" x="694.384766"/>
       <use xlink:href="#TimesNewRomanPSMT-62" x="744.384766"/>
       <use xlink:href="#TimesNewRomanPSMT-6a" x="794.384766"/>
       <use xlink:href="#TimesNewRomanPSMT-75" x="822.167969"/>
       <use xlink:href="#TimesNewRomanPSMT-6e" x="872.167969"/>
       <use xlink:href="#TimesNewRomanPSMT-63" x="922.167969"/>
       <use xlink:href="#TimesNewRomanPSMT-74" x="966.552734"/>
       <use xlink:href="#TimesNewRomanPSMT-69" x="994.335938"/>
       <use xlink:href="#TimesNewRomanPSMT-76" x="1022.119141"/>
       <use xlink:href="#TimesNewRomanPSMT-65" x="1072.119141"/>
      </g>
     </g>
    </g>
    <g id="ytick_7">
     <g id="line2d_16">
      <g>
       <use xlink:href="#m8b9adf01ae" x="90" y="260.304045" style="stroke: #000000; stroke-width: 0.8"/>
      </g>
     </g>
     <g id="text_17">
      <!-- min_user_sum_subjunctive -->
      <g transform="translate(-70.989063 265.167951) scale(0.14 -0.14)">
       <use xlink:href="#TimesNewRomanPSMT-6d"/>
       <use xlink:href="#TimesNewRomanPSMT-69" x="77.783203"/>
       <use xlink:href="#TimesNewRomanPSMT-6e" x="105.566406"/>
       <use xlink:href="#TimesNewRomanPSMT-5f" x="155.566406"/>
       <use xlink:href="#TimesNewRomanPSMT-75" x="205.566406"/>
       <use xlink:href="#TimesNewRomanPSMT-73" x="255.566406"/>
       <use xlink:href="#TimesNewRomanPSMT-65" x="294.482422"/>
       <use xlink:href="#TimesNewRomanPSMT-72" x="338.867188"/>
       <use xlink:href="#TimesNewRomanPSMT-5f" x="372.167969"/>
       <use xlink:href="#TimesNewRomanPSMT-73" x="422.167969"/>
       <use xlink:href="#TimesNewRomanPSMT-75" x="461.083984"/>
       <use xlink:href="#TimesNewRomanPSMT-6d" x="511.083984"/>
       <use xlink:href="#TimesNewRomanPSMT-5f" x="588.867188"/>
       <use xlink:href="#TimesNewRomanPSMT-73" x="638.867188"/>
       <use xlink:href="#TimesNewRomanPSMT-75" x="677.783203"/>
       <use xlink:href="#TimesNewRomanPSMT-62" x="727.783203"/>
       <use xlink:href="#TimesNewRomanPSMT-6a" x="777.783203"/>
       <use xlink:href="#TimesNewRomanPSMT-75" x="805.566406"/>
       <use xlink:href="#TimesNewRomanPSMT-6e" x="855.566406"/>
       <use xlink:href="#TimesNewRomanPSMT-63" x="905.566406"/>
       <use xlink:href="#TimesNewRomanPSMT-74" x="949.951172"/>
       <use xlink:href="#TimesNewRomanPSMT-69" x="977.734375"/>
       <use xlink:href="#TimesNewRomanPSMT-76" x="1005.517578"/>
       <use xlink:href="#TimesNewRomanPSMT-65" x="1055.517578"/>
      </g>
     </g>
    </g>
    <g id="ytick_8">
     <g id="line2d_17">
      <g>
       <use xlink:href="#m8b9adf01ae" x="90" y="290.560074" style="stroke: #000000; stroke-width: 0.8"/>
      </g>
     </g>
     <g id="text_18">
      <!-- stdev_user_sum_subjunctive -->
      <g transform="translate(-78.763438 295.42398) scale(0.14 -0.14)">
       <use xlink:href="#TimesNewRomanPSMT-73"/>
       <use xlink:href="#TimesNewRomanPSMT-74" x="38.916016"/>
       <use xlink:href="#TimesNewRomanPSMT-64" x="66.699219"/>
       <use xlink:href="#TimesNewRomanPSMT-65" x="116.699219"/>
       <use xlink:href="#TimesNewRomanPSMT-76" x="161.083984"/>
       <use xlink:href="#TimesNewRomanPSMT-5f" x="211.083984"/>
       <use xlink:href="#TimesNewRomanPSMT-75" x="261.083984"/>
       <use xlink:href="#TimesNewRomanPSMT-73" x="311.083984"/>
       <use xlink:href="#TimesNewRomanPSMT-65" x="350"/>
       <use xlink:href="#TimesNewRomanPSMT-72" x="394.384766"/>
       <use xlink:href="#TimesNewRomanPSMT-5f" x="427.685547"/>
       <use xlink:href="#TimesNewRomanPSMT-73" x="477.685547"/>
       <use xlink:href="#TimesNewRomanPSMT-75" x="516.601562"/>
       <use xlink:href="#TimesNewRomanPSMT-6d" x="566.601562"/>
       <use xlink:href="#TimesNewRomanPSMT-5f" x="644.384766"/>
       <use xlink:href="#TimesNewRomanPSMT-73" x="694.384766"/>
       <use xlink:href="#TimesNewRomanPSMT-75" x="733.300781"/>
       <use xlink:href="#TimesNewRomanPSMT-62" x="783.300781"/>
       <use xlink:href="#TimesNewRomanPSMT-6a" x="833.300781"/>
       <use xlink:href="#TimesNewRomanPSMT-75" x="861.083984"/>
       <use xlink:href="#TimesNewRomanPSMT-6e" x="911.083984"/>
       <use xlink:href="#TimesNewRomanPSMT-63" x="961.083984"/>
       <use xlink:href="#TimesNewRomanPSMT-74" x="1005.46875"/>
       <use xlink:href="#TimesNewRomanPSMT-69" x="1033.251953"/>
       <use xlink:href="#TimesNewRomanPSMT-76" x="1061.035156"/>
       <use xlink:href="#TimesNewRomanPSMT-65" x="1111.035156"/>
      </g>
     </g>
    </g>
    <g id="ytick_9">
     <g id="line2d_18">
      <g>
       <use xlink:href="#m8b9adf01ae" x="90" y="320.816104" style="stroke: #000000; stroke-width: 0.8"/>
      </g>
     </g>
     <g id="text_19">
      <!-- max_user_sum_hasnegative -->
      <g transform="translate(-74.854375 325.676729) scale(0.14 -0.14)">
       <defs>
        <path id="TimesNewRomanPSMT-68" d="M 1041 4444 
L 1041 2350 
Q 1388 2731 1591 2839 
Q 1794 2947 1997 2947 
Q 2241 2947 2416 2812 
Q 2591 2678 2675 2391 
Q 2734 2191 2734 1659 
L 2734 647 
Q 2734 375 2778 275 
Q 2809 200 2884 156 
Q 2959 113 3159 113 
L 3159 0 
L 1753 0 
L 1753 113 
L 1819 113 
Q 2019 113 2097 173 
Q 2175 234 2206 353 
Q 2216 403 2216 647 
L 2216 1659 
Q 2216 2128 2167 2275 
Q 2119 2422 2012 2495 
Q 1906 2569 1756 2569 
Q 1603 2569 1437 2487 
Q 1272 2406 1041 2159 
L 1041 647 
Q 1041 353 1073 281 
Q 1106 209 1195 161 
Q 1284 113 1503 113 
L 1503 0 
L 84 0 
L 84 113 
Q 275 113 384 172 
Q 447 203 484 290 
Q 522 378 522 647 
L 522 3238 
Q 522 3728 498 3840 
Q 475 3953 426 3993 
Q 378 4034 297 4034 
Q 231 4034 84 3984 
L 41 4094 
L 897 4444 
L 1041 4444 
z
" transform="scale(0.015625)"/>
       </defs>
       <use xlink:href="#TimesNewRomanPSMT-6d"/>
       <use xlink:href="#TimesNewRomanPSMT-61" x="77.783203"/>
       <use xlink:href="#TimesNewRomanPSMT-78" x="122.167969"/>
       <use xlink:href="#TimesNewRomanPSMT-5f" x="172.167969"/>
       <use xlink:href="#TimesNewRomanPSMT-75" x="222.167969"/>
       <use xlink:href="#TimesNewRomanPSMT-73" x="272.167969"/>
       <use xlink:href="#TimesNewRomanPSMT-65" x="311.083984"/>
       <use xlink:href="#TimesNewRomanPSMT-72" x="355.46875"/>
       <use xlink:href="#TimesNewRomanPSMT-5f" x="388.769531"/>
       <use xlink:href="#TimesNewRomanPSMT-73" x="438.769531"/>
       <use xlink:href="#TimesNewRomanPSMT-75" x="477.685547"/>
       <use xlink:href="#TimesNewRomanPSMT-6d" x="527.685547"/>
       <use xlink:href="#TimesNewRomanPSMT-5f" x="605.46875"/>
       <use xlink:href="#TimesNewRomanPSMT-68" x="655.46875"/>
       <use xlink:href="#TimesNewRomanPSMT-61" x="705.46875"/>
       <use xlink:href="#TimesNewRomanPSMT-73" x="749.853516"/>
       <use xlink:href="#TimesNewRomanPSMT-6e" x="788.769531"/>
       <use xlink:href="#TimesNewRomanPSMT-65" x="838.769531"/>
       <use xlink:href="#TimesNewRomanPSMT-67" x="883.154297"/>
       <use xlink:href="#TimesNewRomanPSMT-61" x="933.154297"/>
       <use xlink:href="#TimesNewRomanPSMT-74" x="977.539062"/>
       <use xlink:href="#TimesNewRomanPSMT-69" x="1005.322266"/>
       <use xlink:href="#TimesNewRomanPSMT-76" x="1033.105469"/>
       <use xlink:href="#TimesNewRomanPSMT-65" x="1083.105469"/>
      </g>
     </g>
    </g>
    <g id="ytick_10">
     <g id="line2d_19">
      <g>
       <use xlink:href="#m8b9adf01ae" x="90" y="351.072134" style="stroke: #000000; stroke-width: 0.8"/>
      </g>
     </g>
     <g id="text_20">
      <!-- average_user_avg_num_words -->
      <g transform="translate(-91.170938 355.932759) scale(0.14 -0.14)">
       <defs>
        <path id="TimesNewRomanPSMT-77" d="M 41 2863 
L 1241 2863 
L 1241 2747 
Q 1075 2734 1023 2687 
Q 972 2641 972 2553 
Q 972 2456 1025 2319 
L 1638 672 
L 2253 2013 
L 2091 2434 
Q 2016 2622 1894 2694 
Q 1825 2738 1638 2747 
L 1638 2863 
L 3000 2863 
L 3000 2747 
Q 2775 2738 2681 2666 
Q 2619 2616 2619 2506 
Q 2619 2444 2644 2378 
L 3294 734 
L 3897 2319 
Q 3959 2488 3959 2588 
Q 3959 2647 3898 2694 
Q 3838 2741 3659 2747 
L 3659 2863 
L 4563 2863 
L 4563 2747 
Q 4291 2706 4163 2378 
L 3206 -88 
L 3078 -88 
L 2363 1741 
L 1528 -88 
L 1413 -88 
L 494 2319 
Q 403 2547 315 2626 
Q 228 2706 41 2747 
L 41 2863 
z
" transform="scale(0.015625)"/>
       </defs>
       <use xlink:href="#TimesNewRomanPSMT-61"/>
       <use xlink:href="#TimesNewRomanPSMT-76" x="44.384766"/>
       <use xlink:href="#TimesNewRomanPSMT-65" x="94.384766"/>
       <use xlink:href="#TimesNewRomanPSMT-72" x="138.769531"/>
       <use xlink:href="#TimesNewRomanPSMT-61" x="172.070312"/>
       <use xlink:href="#TimesNewRomanPSMT-67" x="216.455078"/>
       <use xlink:href="#TimesNewRomanPSMT-65" x="266.455078"/>
       <use xlink:href="#TimesNewRomanPSMT-5f" x="310.839844"/>
       <use xlink:href="#TimesNewRomanPSMT-75" x="360.839844"/>
       <use xlink:href="#TimesNewRomanPSMT-73" x="410.839844"/>
       <use xlink:href="#TimesNewRomanPSMT-65" x="449.755859"/>
       <use xlink:href="#TimesNewRomanPSMT-72" x="494.140625"/>
       <use xlink:href="#TimesNewRomanPSMT-5f" x="527.441406"/>
       <use xlink:href="#TimesNewRomanPSMT-61" x="577.441406"/>
       <use xlink:href="#TimesNewRomanPSMT-76" x="621.826172"/>
       <use xlink:href="#TimesNewRomanPSMT-67" x="671.826172"/>
       <use xlink:href="#TimesNewRomanPSMT-5f" x="721.826172"/>
       <use xlink:href="#TimesNewRomanPSMT-6e" x="771.826172"/>
       <use xlink:href="#TimesNewRomanPSMT-75" x="821.826172"/>
       <use xlink:href="#TimesNewRomanPSMT-6d" x="871.826172"/>
       <use xlink:href="#TimesNewRomanPSMT-5f" x="949.609375"/>
       <use xlink:href="#TimesNewRomanPSMT-77" x="999.609375"/>
       <use xlink:href="#TimesNewRomanPSMT-6f" x="1071.826172"/>
       <use xlink:href="#TimesNewRomanPSMT-72" x="1121.826172"/>
       <use xlink:href="#TimesNewRomanPSMT-64" x="1155.126953"/>
       <use xlink:href="#TimesNewRomanPSMT-73" x="1205.126953"/>
      </g>
     </g>
    </g>
   </g>
   <g id="patch_13">
    <path d="M 90 378 
L 90 51.84 
" style="fill: none; stroke: #000000; stroke-width: 0.8; stroke-linejoin: miter; stroke-linecap: square"/>
   </g>
   <g id="patch_14">
    <path d="M 648 378 
L 648 51.84 
" style="fill: none; stroke: #000000; stroke-width: 0.8; stroke-linejoin: miter; stroke-linecap: square"/>
   </g>
   <g id="patch_15">
    <path d="M 90 378 
L 648 378 
" style="fill: none; stroke: #000000; stroke-width: 0.8; stroke-linejoin: miter; stroke-linecap: square"/>
   </g>
   <g id="patch_16">
    <path d="M 90 51.84 
L 648 51.84 
" style="fill: none; stroke: #000000; stroke-width: 0.8; stroke-linejoin: miter; stroke-linecap: square"/>
   </g>
   <g id="text_21">
    <!-- 0.08 -->
    <g transform="translate(621.428571 81.650679) scale(0.12 -0.12)">
     <use xlink:href="#TimesNewRomanPSMT-30"/>
     <use xlink:href="#TimesNewRomanPSMT-2e" x="50"/>
     <use xlink:href="#TimesNewRomanPSMT-30" x="75"/>
     <use xlink:href="#TimesNewRomanPSMT-38" x="125"/>
    </g>
   </g>
   <g id="text_22">
    <!-- 0.00 -->
    <g transform="translate(90 111.906709) scale(0.12 -0.12)">
     <use xlink:href="#TimesNewRomanPSMT-30"/>
     <use xlink:href="#TimesNewRomanPSMT-2e" x="50"/>
     <use xlink:href="#TimesNewRomanPSMT-30" x="75"/>
     <use xlink:href="#TimesNewRomanPSMT-30" x="125"/>
    </g>
   </g>
   <g id="text_23">
    <!-- 0.00 -->
    <g transform="translate(90 142.162738) scale(0.12 -0.12)">
     <use xlink:href="#TimesNewRomanPSMT-30"/>
     <use xlink:href="#TimesNewRomanPSMT-2e" x="50"/>
     <use xlink:href="#TimesNewRomanPSMT-30" x="75"/>
     <use xlink:href="#TimesNewRomanPSMT-30" x="125"/>
    </g>
   </g>
   <g id="text_24">
    <!-- 0.00 -->
    <g transform="translate(90 172.418768) scale(0.12 -0.12)">
     <use xlink:href="#TimesNewRomanPSMT-30"/>
     <use xlink:href="#TimesNewRomanPSMT-2e" x="50"/>
     <use xlink:href="#TimesNewRomanPSMT-30" x="75"/>
     <use xlink:href="#TimesNewRomanPSMT-30" x="125"/>
    </g>
   </g>
   <g id="text_25">
    <!-- 0.00 -->
    <g transform="translate(90 202.674798) scale(0.12 -0.12)">
     <use xlink:href="#TimesNewRomanPSMT-30"/>
     <use xlink:href="#TimesNewRomanPSMT-2e" x="50"/>
     <use xlink:href="#TimesNewRomanPSMT-30" x="75"/>
     <use xlink:href="#TimesNewRomanPSMT-30" x="125"/>
    </g>
   </g>
   <g id="text_26">
    <!-- 0.00 -->
    <g transform="translate(90 232.930827) scale(0.12 -0.12)">
     <use xlink:href="#TimesNewRomanPSMT-30"/>
     <use xlink:href="#TimesNewRomanPSMT-2e" x="50"/>
     <use xlink:href="#TimesNewRomanPSMT-30" x="75"/>
     <use xlink:href="#TimesNewRomanPSMT-30" x="125"/>
    </g>
   </g>
   <g id="text_27">
    <!-- 0.00 -->
    <g transform="translate(90 263.186857) scale(0.12 -0.12)">
     <use xlink:href="#TimesNewRomanPSMT-30"/>
     <use xlink:href="#TimesNewRomanPSMT-2e" x="50"/>
     <use xlink:href="#TimesNewRomanPSMT-30" x="75"/>
     <use xlink:href="#TimesNewRomanPSMT-30" x="125"/>
    </g>
   </g>
   <g id="text_28">
    <!-- 0.00 -->
    <g transform="translate(90 293.442887) scale(0.12 -0.12)">
     <use xlink:href="#TimesNewRomanPSMT-30"/>
     <use xlink:href="#TimesNewRomanPSMT-2e" x="50"/>
     <use xlink:href="#TimesNewRomanPSMT-30" x="75"/>
     <use xlink:href="#TimesNewRomanPSMT-30" x="125"/>
    </g>
   </g>
   <g id="text_29">
    <!-- 0.00 -->
    <g transform="translate(90 323.698916) scale(0.12 -0.12)">
     <use xlink:href="#TimesNewRomanPSMT-30"/>
     <use xlink:href="#TimesNewRomanPSMT-2e" x="50"/>
     <use xlink:href="#TimesNewRomanPSMT-30" x="75"/>
     <use xlink:href="#TimesNewRomanPSMT-30" x="125"/>
    </g>
   </g>
   <g id="text_30">
    <!-- 0.00 -->
    <g transform="translate(90 353.954946) scale(0.12 -0.12)">
     <use xlink:href="#TimesNewRomanPSMT-30"/>
     <use xlink:href="#TimesNewRomanPSMT-2e" x="50"/>
     <use xlink:href="#TimesNewRomanPSMT-30" x="75"/>
     <use xlink:href="#TimesNewRomanPSMT-30" x="125"/>
    </g>
   </g>
   <g id="text_31">
    <!-- Top 10 features for score: Divergent Association Problem (min chats = 5) -->
    <g transform="translate(75.139062 45.84) scale(0.2 -0.2)">
     <defs>
      <path id="TimesNewRomanPSMT-54" d="M 3703 4238 
L 3750 3244 
L 3631 3244 
Q 3597 3506 3538 3619 
Q 3441 3800 3280 3886 
Q 3119 3972 2856 3972 
L 2259 3972 
L 2259 734 
Q 2259 344 2344 247 
Q 2463 116 2709 116 
L 2856 116 
L 2856 0 
L 1059 0 
L 1059 116 
L 1209 116 
Q 1478 116 1591 278 
Q 1659 378 1659 734 
L 1659 3972 
L 1150 3972 
Q 853 3972 728 3928 
Q 566 3869 450 3700 
Q 334 3531 313 3244 
L 194 3244 
L 244 4238 
L 3703 4238 
z
" transform="scale(0.015625)"/>
      <path id="TimesNewRomanPSMT-70" d="M -6 2578 
L 875 2934 
L 994 2934 
L 994 2266 
Q 1216 2644 1439 2795 
Q 1663 2947 1909 2947 
Q 2341 2947 2628 2609 
Q 2981 2197 2981 1534 
Q 2981 794 2556 309 
Q 2206 -88 1675 -88 
Q 1444 -88 1275 -22 
Q 1150 25 994 166 
L 994 -706 
Q 994 -1000 1030 -1079 
Q 1066 -1159 1155 -1206 
Q 1244 -1253 1478 -1253 
L 1478 -1369 
L -22 -1369 
L -22 -1253 
L 56 -1253 
Q 228 -1256 350 -1188 
Q 409 -1153 442 -1076 
Q 475 -1000 475 -688 
L 475 2019 
Q 475 2297 450 2372 
Q 425 2447 370 2484 
Q 316 2522 222 2522 
Q 147 2522 31 2478 
L -6 2578 
z
M 994 2081 
L 994 1013 
Q 994 666 1022 556 
Q 1066 375 1236 237 
Q 1406 100 1666 100 
Q 1978 100 2172 344 
Q 2425 663 2425 1241 
Q 2425 1897 2138 2250 
Q 1938 2494 1663 2494 
Q 1513 2494 1366 2419 
Q 1253 2363 994 2081 
z
" transform="scale(0.015625)"/>
      <path id="TimesNewRomanPSMT-3a" d="M 903 2950 
Q 1047 2950 1148 2848 
Q 1250 2747 1250 2603 
Q 1250 2459 1148 2357 
Q 1047 2256 903 2256 
Q 759 2256 657 2357 
Q 556 2459 556 2603 
Q 556 2747 657 2848 
Q 759 2950 903 2950 
z
M 897 609 
Q 1044 609 1145 506 
Q 1247 403 1247 259 
Q 1247 116 1144 14 
Q 1041 -88 897 -88 
Q 753 -88 651 14 
Q 550 116 550 259 
Q 550 403 651 506 
Q 753 609 897 609 
z
" transform="scale(0.015625)"/>
      <path id="TimesNewRomanPSMT-44" d="M 109 0 
L 109 116 
L 269 116 
Q 538 116 650 288 
Q 719 391 719 750 
L 719 3488 
Q 719 3884 631 3984 
Q 509 4122 269 4122 
L 109 4122 
L 109 4238 
L 1834 4238 
Q 2784 4238 3279 4022 
Q 3775 3806 4076 3303 
Q 4378 2800 4378 2141 
Q 4378 1256 3841 663 
Q 3238 0 2003 0 
L 109 0 
z
M 1319 306 
Q 1716 219 1984 219 
Q 2709 219 3187 728 
Q 3666 1238 3666 2109 
Q 3666 2988 3187 3494 
Q 2709 4000 1959 4000 
Q 1678 4000 1319 3909 
L 1319 306 
z
" transform="scale(0.015625)"/>
      <path id="TimesNewRomanPSMT-50" d="M 1313 1984 
L 1313 750 
Q 1313 350 1400 253 
Q 1519 116 1759 116 
L 1922 116 
L 1922 0 
L 106 0 
L 106 116 
L 266 116 
Q 534 116 650 291 
Q 713 388 713 750 
L 713 3488 
Q 713 3888 628 3984 
Q 506 4122 266 4122 
L 106 4122 
L 106 4238 
L 1659 4238 
Q 2228 4238 2556 4120 
Q 2884 4003 3109 3725 
Q 3334 3447 3334 3066 
Q 3334 2547 2992 2222 
Q 2650 1897 2025 1897 
Q 1872 1897 1694 1919 
Q 1516 1941 1313 1984 
z
M 1313 2163 
Q 1478 2131 1606 2115 
Q 1734 2100 1825 2100 
Q 2150 2100 2386 2351 
Q 2622 2603 2622 3003 
Q 2622 3278 2509 3514 
Q 2397 3750 2190 3867 
Q 1984 3984 1722 3984 
Q 1563 3984 1313 3925 
L 1313 2163 
z
" transform="scale(0.015625)"/>
      <path id="TimesNewRomanPSMT-3d" d="M 116 2759 
L 3488 2759 
L 3488 2503 
L 116 2503 
L 116 2759 
z
M 116 1741 
L 3488 1741 
L 3488 1484 
L 116 1484 
L 116 1741 
z
" transform="scale(0.015625)"/>
     </defs>
     <use xlink:href="#TimesNewRomanPSMT-54"/>
     <use xlink:href="#TimesNewRomanPSMT-6f" x="54.083984"/>
     <use xlink:href="#TimesNewRomanPSMT-70" x="104.083984"/>
     <use xlink:href="#TimesNewRomanPSMT-20" x="154.083984"/>
     <use xlink:href="#TimesNewRomanPSMT-31" x="179.083984"/>
     <use xlink:href="#TimesNewRomanPSMT-30" x="229.083984"/>
     <use xlink:href="#TimesNewRomanPSMT-20" x="279.083984"/>
     <use xlink:href="#TimesNewRomanPSMT-66" x="304.083984"/>
     <use xlink:href="#TimesNewRomanPSMT-65" x="337.384766"/>
     <use xlink:href="#TimesNewRomanPSMT-61" x="381.769531"/>
     <use xlink:href="#TimesNewRomanPSMT-74" x="426.154297"/>
     <use xlink:href="#TimesNewRomanPSMT-75" x="453.9375"/>
     <use xlink:href="#TimesNewRomanPSMT-72" x="503.9375"/>
     <use xlink:href="#TimesNewRomanPSMT-65" x="537.238281"/>
     <use xlink:href="#TimesNewRomanPSMT-73" x="581.623047"/>
     <use xlink:href="#TimesNewRomanPSMT-20" x="620.539062"/>
     <use xlink:href="#TimesNewRomanPSMT-66" x="645.539062"/>
     <use xlink:href="#TimesNewRomanPSMT-6f" x="678.839844"/>
     <use xlink:href="#TimesNewRomanPSMT-72" x="728.839844"/>
     <use xlink:href="#TimesNewRomanPSMT-20" x="762.140625"/>
     <use xlink:href="#TimesNewRomanPSMT-73" x="787.140625"/>
     <use xlink:href="#TimesNewRomanPSMT-63" x="826.056641"/>
     <use xlink:href="#TimesNewRomanPSMT-6f" x="870.441406"/>
     <use xlink:href="#TimesNewRomanPSMT-72" x="920.441406"/>
     <use xlink:href="#TimesNewRomanPSMT-65" x="953.742188"/>
     <use xlink:href="#TimesNewRomanPSMT-3a" x="998.126953"/>
     <use xlink:href="#TimesNewRomanPSMT-20" x="1025.910156"/>
     <use xlink:href="#TimesNewRomanPSMT-44" x="1050.910156"/>
     <use xlink:href="#TimesNewRomanPSMT-69" x="1123.126953"/>
     <use xlink:href="#TimesNewRomanPSMT-76" x="1150.910156"/>
     <use xlink:href="#TimesNewRomanPSMT-65" x="1200.910156"/>
     <use xlink:href="#TimesNewRomanPSMT-72" x="1245.294922"/>
     <use xlink:href="#TimesNewRomanPSMT-67" x="1276.845703"/>
     <use xlink:href="#TimesNewRomanPSMT-65" x="1326.845703"/>
     <use xlink:href="#TimesNewRomanPSMT-6e" x="1371.230469"/>
     <use xlink:href="#TimesNewRomanPSMT-74" x="1421.230469"/>
     <use xlink:href="#TimesNewRomanPSMT-20" x="1449.013672"/>
     <use xlink:href="#TimesNewRomanPSMT-41" x="1468.513672"/>
     <use xlink:href="#TimesNewRomanPSMT-73" x="1540.730469"/>
     <use xlink:href="#TimesNewRomanPSMT-73" x="1579.646484"/>
     <use xlink:href="#TimesNewRomanPSMT-6f" x="1618.5625"/>
     <use xlink:href="#TimesNewRomanPSMT-63" x="1668.5625"/>
     <use xlink:href="#TimesNewRomanPSMT-69" x="1712.947266"/>
     <use xlink:href="#TimesNewRomanPSMT-61" x="1740.730469"/>
     <use xlink:href="#TimesNewRomanPSMT-74" x="1785.115234"/>
     <use xlink:href="#TimesNewRomanPSMT-69" x="1812.898438"/>
     <use xlink:href="#TimesNewRomanPSMT-6f" x="1840.681641"/>
     <use xlink:href="#TimesNewRomanPSMT-6e" x="1890.681641"/>
     <use xlink:href="#TimesNewRomanPSMT-20" x="1940.681641"/>
     <use xlink:href="#TimesNewRomanPSMT-50" x="1965.681641"/>
     <use xlink:href="#TimesNewRomanPSMT-72" x="2021.296875"/>
     <use xlink:href="#TimesNewRomanPSMT-6f" x="2054.597656"/>
     <use xlink:href="#TimesNewRomanPSMT-62" x="2104.597656"/>
     <use xlink:href="#TimesNewRomanPSMT-6c" x="2154.597656"/>
     <use xlink:href="#TimesNewRomanPSMT-65" x="2182.380859"/>
     <use xlink:href="#TimesNewRomanPSMT-6d" x="2226.765625"/>
     <use xlink:href="#TimesNewRomanPSMT-20" x="2304.548828"/>
     <use xlink:href="#TimesNewRomanPSMT-28" x="2329.548828"/>
     <use xlink:href="#TimesNewRomanPSMT-6d" x="2362.849609"/>
     <use xlink:href="#TimesNewRomanPSMT-69" x="2440.632812"/>
     <use xlink:href="#TimesNewRomanPSMT-6e" x="2468.416016"/>
     <use xlink:href="#TimesNewRomanPSMT-20" x="2518.416016"/>
     <use xlink:href="#TimesNewRomanPSMT-63" x="2543.416016"/>
     <use xlink:href="#TimesNewRomanPSMT-68" x="2587.800781"/>
     <use xlink:href="#TimesNewRomanPSMT-61" x="2637.800781"/>
     <use xlink:href="#TimesNewRomanPSMT-74" x="2682.185547"/>
     <use xlink:href="#TimesNewRomanPSMT-73" x="2709.96875"/>
     <use xlink:href="#TimesNewRomanPSMT-20" x="2748.884766"/>
     <use xlink:href="#TimesNewRomanPSMT-3d" x="2773.884766"/>
     <use xlink:href="#TimesNewRomanPSMT-20" x="2830.28125"/>
     <use xlink:href="#TimesNewRomanPSMT-35" x="2855.28125"/>
     <use xlink:href="#TimesNewRomanPSMT-29" x="2905.28125"/>
    </g>
   </g>
   <g id="legend_1">
    <g id="patch_17">
     <path d="M 657.8 236.814687 
L 854.815 236.814687 
Q 857.615 236.814687 857.615 234.014687 
L 857.615 195.825312 
Q 857.615 193.025312 854.815 193.025312 
L 657.8 193.025312 
Q 655 193.025312 655 195.825312 
L 655 234.014687 
Q 655 236.814687 657.8 236.814687 
z
" style="fill: #ffffff; opacity: 0.8; stroke: #cccccc; stroke-linejoin: miter"/>
    </g>
    <g id="line2d_20">
     <path d="M 660.6 203.525312 
L 674.6 203.525312 
L 688.6 203.525312 
" style="fill: none; stroke: #ffb6c1; stroke-width: 4; stroke-linecap: square"/>
    </g>
    <g id="text_32">
     <!-- Team Composition Feature -->
     <g transform="translate(699.8 208.425312) scale(0.14 -0.14)">
      <defs>
       <path id="TimesNewRomanPSMT-46" d="M 1309 4006 
L 1309 2341 
L 2081 2341 
Q 2347 2341 2470 2458 
Q 2594 2575 2634 2922 
L 2750 2922 
L 2750 1488 
L 2634 1488 
Q 2631 1734 2570 1850 
Q 2509 1966 2401 2023 
Q 2294 2081 2081 2081 
L 1309 2081 
L 1309 750 
Q 1309 428 1350 325 
Q 1381 247 1481 191 
Q 1619 116 1769 116 
L 1922 116 
L 1922 0 
L 103 0 
L 103 116 
L 253 116 
Q 516 116 634 269 
Q 709 369 709 750 
L 709 3488 
Q 709 3809 669 3913 
Q 638 3991 541 4047 
Q 406 4122 253 4122 
L 103 4122 
L 103 4238 
L 3256 4238 
L 3297 3306 
L 3188 3306 
Q 3106 3603 2998 3742 
Q 2891 3881 2733 3943 
Q 2575 4006 2244 4006 
L 1309 4006 
z
" transform="scale(0.015625)"/>
      </defs>
      <use xlink:href="#TimesNewRomanPSMT-54"/>
      <use xlink:href="#TimesNewRomanPSMT-65" x="54.083984"/>
      <use xlink:href="#TimesNewRomanPSMT-61" x="98.46875"/>
      <use xlink:href="#TimesNewRomanPSMT-6d" x="142.853516"/>
      <use xlink:href="#TimesNewRomanPSMT-20" x="220.636719"/>
      <use xlink:href="#TimesNewRomanPSMT-43" x="245.636719"/>
      <use xlink:href="#TimesNewRomanPSMT-6f" x="312.335938"/>
      <use xlink:href="#TimesNewRomanPSMT-6d" x="362.335938"/>
      <use xlink:href="#TimesNewRomanPSMT-70" x="440.119141"/>
      <use xlink:href="#TimesNewRomanPSMT-6f" x="490.119141"/>
      <use xlink:href="#TimesNewRomanPSMT-73" x="540.119141"/>
      <use xlink:href="#TimesNewRomanPSMT-69" x="579.035156"/>
      <use xlink:href="#TimesNewRomanPSMT-74" x="606.818359"/>
      <use xlink:href="#TimesNewRomanPSMT-69" x="634.601562"/>
      <use xlink:href="#TimesNewRomanPSMT-6f" x="662.384766"/>
      <use xlink:href="#TimesNewRomanPSMT-6e" x="712.384766"/>
      <use xlink:href="#TimesNewRomanPSMT-20" x="762.384766"/>
      <use xlink:href="#TimesNewRomanPSMT-46" x="787.384766"/>
      <use xlink:href="#TimesNewRomanPSMT-65" x="843"/>
      <use xlink:href="#TimesNewRomanPSMT-61" x="887.384766"/>
      <use xlink:href="#TimesNewRomanPSMT-74" x="931.769531"/>
      <use xlink:href="#TimesNewRomanPSMT-75" x="959.552734"/>
      <use xlink:href="#TimesNewRomanPSMT-72" x="1009.552734"/>
      <use xlink:href="#TimesNewRomanPSMT-65" x="1042.853516"/>
     </g>
    </g>
    <g id="line2d_21">
     <path d="M 660.6 223.32 
L 674.6 223.32 
L 688.6 223.32 
" style="fill: none; stroke: #b0e0e6; stroke-width: 4; stroke-linecap: square"/>
    </g>
    <g id="text_33">
     <!-- Conversation Feature -->
     <g transform="translate(699.8 228.22) scale(0.14 -0.14)">
      <use xlink:href="#TimesNewRomanPSMT-43"/>
      <use xlink:href="#TimesNewRomanPSMT-6f" x="66.699219"/>
      <use xlink:href="#TimesNewRomanPSMT-6e" x="116.699219"/>
      <use xlink:href="#TimesNewRomanPSMT-76" x="166.699219"/>
      <use xlink:href="#TimesNewRomanPSMT-65" x="216.699219"/>
      <use xlink:href="#TimesNewRomanPSMT-72" x="261.083984"/>
      <use xlink:href="#TimesNewRomanPSMT-73" x="294.384766"/>
      <use xlink:href="#TimesNewRomanPSMT-61" x="333.300781"/>
      <use xlink:href="#TimesNewRomanPSMT-74" x="377.685547"/>
      <use xlink:href="#TimesNewRomanPSMT-69" x="405.46875"/>
      <use xlink:href="#TimesNewRomanPSMT-6f" x="433.251953"/>
      <use xlink:href="#TimesNewRomanPSMT-6e" x="483.251953"/>
      <use xlink:href="#TimesNewRomanPSMT-20" x="533.251953"/>
      <use xlink:href="#TimesNewRomanPSMT-46" x="558.251953"/>
      <use xlink:href="#TimesNewRomanPSMT-65" x="613.867188"/>
      <use xlink:href="#TimesNewRomanPSMT-61" x="658.251953"/>
      <use xlink:href="#TimesNewRomanPSMT-74" x="702.636719"/>
      <use xlink:href="#TimesNewRomanPSMT-75" x="730.419922"/>
      <use xlink:href="#TimesNewRomanPSMT-72" x="780.419922"/>
      <use xlink:href="#TimesNewRomanPSMT-65" x="813.720703"/>
     </g>
    </g>
   </g>
  </g>
 </g>
 <defs>
  <clipPath id="pc5606c415a">
   <rect x="90" y="51.84" width="558" height="326.16"/>
  </clipPath>
 </defs>
</svg>
