<?xml version="1.0" encoding="utf-8" standalone="no"?>
<!DOCTYPE svg PUBLIC "-//W3C//DTD SVG 1.1//EN"
  "http://www.w3.org/Graphics/SVG/1.1/DTD/svg11.dtd">
<svg xmlns:xlink="http://www.w3.org/1999/xlink" width="720pt" height="720pt" viewBox="0 0 720 720" xmlns="http://www.w3.org/2000/svg" version="1.1">
 <metadata>
  <rdf:RDF xmlns:dc="http://purl.org/dc/elements/1.1/" xmlns:cc="http://creativecommons.org/ns#" xmlns:rdf="http://www.w3.org/1999/02/22-rdf-syntax-ns#">
   <cc:Work>
    <dc:type rdf:resource="http://purl.org/dc/dcmitype/StillImage"/>
    <dc:date>2023-09-02T13:18:51.766932</dc:date>
    <dc:format>image/svg+xml</dc:format>
    <dc:creator>
     <cc:Agent>
      <dc:title>Matplotlib v3.7.1, https://matplotlib.org/</dc:title>
     </cc:Agent>
    </dc:creator>
   </cc:Work>
  </rdf:RDF>
 </metadata>
 <defs>
  <style type="text/css">*{stroke-linejoin: round; stroke-linecap: butt}</style>
 </defs>
 <g id="figure_1">
  <g id="patch_1">
   <path d="M 0 720 
L 720 720 
L 720 0 
L 0 0 
L 0 720 
z
" style="fill: none"/>
  </g>
  <g id="axes_1">
   <g id="patch_2">
    <path d="M 90.966 630.284 
L 692.784 630.284 
L 692.784 27.216 
L 90.966 27.216 
z
" style="fill: #ffffff"/>
   </g>
   <g id="PathCollection_1">
    <defs>
     <path id="m84439cc6db" d="M 0 4.5 
C 1.193414 4.5 2.338109 4.025852 3.181981 3.181981 
C 4.025852 2.338109 4.5 1.193414 4.5 0 
C 4.5 -1.193414 4.025852 -2.338109 3.181981 -3.181981 
C 2.338109 -4.025852 1.193414 -4.5 0 -4.5 
C -1.193414 -4.5 -2.338109 -4.025852 -3.181981 -3.181981 
C -4.025852 -2.338109 -4.5 -1.193414 -4.5 0 
C -4.5 1.193414 -4.025852 2.338109 -3.181981 3.181981 
C -2.338109 4.025852 -1.193414 4.5 0 4.5 
z
" style="stroke: #1f77b4; stroke-opacity: 0.8"/>
    </defs>
    <g clip-path="url(#pa436adebe5)">
     <use xlink:href="#m84439cc6db" x="259.692947" y="602.756245" style="fill: #1f77b4; fill-opacity: 0.8; stroke: #1f77b4; stroke-opacity: 0.8"/>
     <use xlink:href="#m84439cc6db" x="227.582193" y="602.818097" style="fill: #1f77b4; fill-opacity: 0.8; stroke: #1f77b4; stroke-opacity: 0.8"/>
     <use xlink:href="#m84439cc6db" x="323.143961" y="602.871818" style="fill: #1f77b4; fill-opacity: 0.8; stroke: #1f77b4; stroke-opacity: 0.8"/>
     <use xlink:href="#m84439cc6db" x="294.624068" y="598.840511" style="fill: #1f77b4; fill-opacity: 0.8; stroke: #1f77b4; stroke-opacity: 0.8"/>
     <use xlink:href="#m84439cc6db" x="226.174674" y="602.79579" style="fill: #1f77b4; fill-opacity: 0.8; stroke: #1f77b4; stroke-opacity: 0.8"/>
     <use xlink:href="#m84439cc6db" x="204.238842" y="602.844916" style="fill: #1f77b4; fill-opacity: 0.8; stroke: #1f77b4; stroke-opacity: 0.8"/>
     <use xlink:href="#m84439cc6db" x="266.031217" y="602.748466" style="fill: #1f77b4; fill-opacity: 0.8; stroke: #1f77b4; stroke-opacity: 0.8"/>
     <use xlink:href="#m84439cc6db" x="222.983386" y="602.847211" style="fill: #1f77b4; fill-opacity: 0.8; stroke: #1f77b4; stroke-opacity: 0.8"/>
     <use xlink:href="#m84439cc6db" x="310.533032" y="602.828104" style="fill: #1f77b4; fill-opacity: 0.8; stroke: #1f77b4; stroke-opacity: 0.8"/>
     <use xlink:href="#m84439cc6db" x="246.475532" y="602.861997" style="fill: #1f77b4; fill-opacity: 0.8; stroke: #1f77b4; stroke-opacity: 0.8"/>
     <use xlink:href="#m84439cc6db" x="352.798906" y="437.558328" style="fill: #1f77b4; fill-opacity: 0.8; stroke: #1f77b4; stroke-opacity: 0.8"/>
     <use xlink:href="#m84439cc6db" x="232.51065" y="602.844106" style="fill: #1f77b4; fill-opacity: 0.8; stroke: #1f77b4; stroke-opacity: 0.8"/>
     <use xlink:href="#m84439cc6db" x="194.997727" y="599.257231" style="fill: #1f77b4; fill-opacity: 0.8; stroke: #1f77b4; stroke-opacity: 0.8"/>
     <use xlink:href="#m84439cc6db" x="291.140202" y="446.531475" style="fill: #1f77b4; fill-opacity: 0.8; stroke: #1f77b4; stroke-opacity: 0.8"/>
     <use xlink:href="#m84439cc6db" x="305.856196" y="602.835467" style="fill: #1f77b4; fill-opacity: 0.8; stroke: #1f77b4; stroke-opacity: 0.8"/>
     <use xlink:href="#m84439cc6db" x="254.216523" y="602.859926" style="fill: #1f77b4; fill-opacity: 0.8; stroke: #1f77b4; stroke-opacity: 0.8"/>
     <use xlink:href="#m84439cc6db" x="333.053819" y="587.670797" style="fill: #1f77b4; fill-opacity: 0.8; stroke: #1f77b4; stroke-opacity: 0.8"/>
     <use xlink:href="#m84439cc6db" x="400.963563" y="580.723205" style="fill: #1f77b4; fill-opacity: 0.8; stroke: #1f77b4; stroke-opacity: 0.8"/>
     <use xlink:href="#m84439cc6db" x="215.023677" y="587.662434" style="fill: #1f77b4; fill-opacity: 0.8; stroke: #1f77b4; stroke-opacity: 0.8"/>
     <use xlink:href="#m84439cc6db" x="234.333293" y="587.66484" style="fill: #1f77b4; fill-opacity: 0.8; stroke: #1f77b4; stroke-opacity: 0.8"/>
     <use xlink:href="#m84439cc6db" x="126.924469" y="587.65422" style="fill: #1f77b4; fill-opacity: 0.8; stroke: #1f77b4; stroke-opacity: 0.8"/>
     <use xlink:href="#m84439cc6db" x="186.328053" y="587.648901" style="fill: #1f77b4; fill-opacity: 0.8; stroke: #1f77b4; stroke-opacity: 0.8"/>
     <use xlink:href="#m84439cc6db" x="324.280325" y="587.667679" style="fill: #1f77b4; fill-opacity: 0.8; stroke: #1f77b4; stroke-opacity: 0.8"/>
     <use xlink:href="#m84439cc6db" x="286.956626" y="587.662312" style="fill: #1f77b4; fill-opacity: 0.8; stroke: #1f77b4; stroke-opacity: 0.8"/>
     <use xlink:href="#m84439cc6db" x="427.42946" y="587.677053" style="fill: #1f77b4; fill-opacity: 0.8; stroke: #1f77b4; stroke-opacity: 0.8"/>
     <use xlink:href="#m84439cc6db" x="318.481271" y="587.65931" style="fill: #1f77b4; fill-opacity: 0.8; stroke: #1f77b4; stroke-opacity: 0.8"/>
     <use xlink:href="#m84439cc6db" x="151.234081" y="587.651022" style="fill: #1f77b4; fill-opacity: 0.8; stroke: #1f77b4; stroke-opacity: 0.8"/>
     <use xlink:href="#m84439cc6db" x="287.362031" y="587.661424" style="fill: #1f77b4; fill-opacity: 0.8; stroke: #1f77b4; stroke-opacity: 0.8"/>
     <use xlink:href="#m84439cc6db" x="231.068021" y="587.641426" style="fill: #1f77b4; fill-opacity: 0.8; stroke: #1f77b4; stroke-opacity: 0.8"/>
     <use xlink:href="#m84439cc6db" x="177.699977" y="587.661195" style="fill: #1f77b4; fill-opacity: 0.8; stroke: #1f77b4; stroke-opacity: 0.8"/>
     <use xlink:href="#m84439cc6db" x="213.666451" y="587.666678" style="fill: #1f77b4; fill-opacity: 0.8; stroke: #1f77b4; stroke-opacity: 0.8"/>
     <use xlink:href="#m84439cc6db" x="358.59874" y="587.663511" style="fill: #1f77b4; fill-opacity: 0.8; stroke: #1f77b4; stroke-opacity: 0.8"/>
     <use xlink:href="#m84439cc6db" x="252.492794" y="587.65059" style="fill: #1f77b4; fill-opacity: 0.8; stroke: #1f77b4; stroke-opacity: 0.8"/>
     <use xlink:href="#m84439cc6db" x="139.115996" y="587.634543" style="fill: #1f77b4; fill-opacity: 0.8; stroke: #1f77b4; stroke-opacity: 0.8"/>
     <use xlink:href="#m84439cc6db" x="298.37994" y="587.639186" style="fill: #1f77b4; fill-opacity: 0.8; stroke: #1f77b4; stroke-opacity: 0.8"/>
     <use xlink:href="#m84439cc6db" x="293.1934" y="587.666129" style="fill: #1f77b4; fill-opacity: 0.8; stroke: #1f77b4; stroke-opacity: 0.8"/>
     <use xlink:href="#m84439cc6db" x="480.991392" y="587.666464" style="fill: #1f77b4; fill-opacity: 0.8; stroke: #1f77b4; stroke-opacity: 0.8"/>
     <use xlink:href="#m84439cc6db" x="239.793041" y="587.661825" style="fill: #1f77b4; fill-opacity: 0.8; stroke: #1f77b4; stroke-opacity: 0.8"/>
     <use xlink:href="#m84439cc6db" x="173.628301" y="587.367205" style="fill: #1f77b4; fill-opacity: 0.8; stroke: #1f77b4; stroke-opacity: 0.8"/>
     <use xlink:href="#m84439cc6db" x="147.841017" y="587.666905" style="fill: #1f77b4; fill-opacity: 0.8; stroke: #1f77b4; stroke-opacity: 0.8"/>
     <use xlink:href="#m84439cc6db" x="279.67086" y="587.655468" style="fill: #1f77b4; fill-opacity: 0.8; stroke: #1f77b4; stroke-opacity: 0.8"/>
     <use xlink:href="#m84439cc6db" x="347.861383" y="587.665343" style="fill: #1f77b4; fill-opacity: 0.8; stroke: #1f77b4; stroke-opacity: 0.8"/>
     <use xlink:href="#m84439cc6db" x="200.094197" y="587.671669" style="fill: #1f77b4; fill-opacity: 0.8; stroke: #1f77b4; stroke-opacity: 0.8"/>
     <use xlink:href="#m84439cc6db" x="222.585361" y="587.665167" style="fill: #1f77b4; fill-opacity: 0.8; stroke: #1f77b4; stroke-opacity: 0.8"/>
     <use xlink:href="#m84439cc6db" x="159.959102" y="587.659455" style="fill: #1f77b4; fill-opacity: 0.8; stroke: #1f77b4; stroke-opacity: 0.8"/>
     <use xlink:href="#m84439cc6db" x="268.634082" y="587.655213" style="fill: #1f77b4; fill-opacity: 0.8; stroke: #1f77b4; stroke-opacity: 0.8"/>
     <use xlink:href="#m84439cc6db" x="172.804271" y="587.672537" style="fill: #1f77b4; fill-opacity: 0.8; stroke: #1f77b4; stroke-opacity: 0.8"/>
     <use xlink:href="#m84439cc6db" x="368.163948" y="587.670631" style="fill: #1f77b4; fill-opacity: 0.8; stroke: #1f77b4; stroke-opacity: 0.8"/>
     <use xlink:href="#m84439cc6db" x="367.032927" y="587.669867" style="fill: #1f77b4; fill-opacity: 0.8; stroke: #1f77b4; stroke-opacity: 0.8"/>
     <use xlink:href="#m84439cc6db" x="271.687839" y="587.669865" style="fill: #1f77b4; fill-opacity: 0.8; stroke: #1f77b4; stroke-opacity: 0.8"/>
     <use xlink:href="#m84439cc6db" x="351.764141" y="587.66469" style="fill: #1f77b4; fill-opacity: 0.8; stroke: #1f77b4; stroke-opacity: 0.8"/>
     <use xlink:href="#m84439cc6db" x="230.534825" y="587.616677" style="fill: #1f77b4; fill-opacity: 0.8; stroke: #1f77b4; stroke-opacity: 0.8"/>
     <use xlink:href="#m84439cc6db" x="256.419053" y="587.662077" style="fill: #1f77b4; fill-opacity: 0.8; stroke: #1f77b4; stroke-opacity: 0.8"/>
     <use xlink:href="#m84439cc6db" x="216.768681" y="587.669722" style="fill: #1f77b4; fill-opacity: 0.8; stroke: #1f77b4; stroke-opacity: 0.8"/>
     <use xlink:href="#m84439cc6db" x="176.439696" y="587.654798" style="fill: #1f77b4; fill-opacity: 0.8; stroke: #1f77b4; stroke-opacity: 0.8"/>
     <use xlink:href="#m84439cc6db" x="118.321364" y="587.670796" style="fill: #1f77b4; fill-opacity: 0.8; stroke: #1f77b4; stroke-opacity: 0.8"/>
     <use xlink:href="#m84439cc6db" x="218.586394" y="587.600407" style="fill: #1f77b4; fill-opacity: 0.8; stroke: #1f77b4; stroke-opacity: 0.8"/>
     <use xlink:href="#m84439cc6db" x="170.041348" y="587.663376" style="fill: #1f77b4; fill-opacity: 0.8; stroke: #1f77b4; stroke-opacity: 0.8"/>
     <use xlink:href="#m84439cc6db" x="371.783216" y="587.661469" style="fill: #1f77b4; fill-opacity: 0.8; stroke: #1f77b4; stroke-opacity: 0.8"/>
     <use xlink:href="#m84439cc6db" x="244.204024" y="587.660596" style="fill: #1f77b4; fill-opacity: 0.8; stroke: #1f77b4; stroke-opacity: 0.8"/>
     <use xlink:href="#m84439cc6db" x="665.428636" y="587.666721" style="fill: #1f77b4; fill-opacity: 0.8; stroke: #1f77b4; stroke-opacity: 0.8"/>
     <use xlink:href="#m84439cc6db" x="279.491886" y="587.66245" style="fill: #1f77b4; fill-opacity: 0.8; stroke: #1f77b4; stroke-opacity: 0.8"/>
     <use xlink:href="#m84439cc6db" x="263.20518" y="587.611347" style="fill: #1f77b4; fill-opacity: 0.8; stroke: #1f77b4; stroke-opacity: 0.8"/>
     <use xlink:href="#m84439cc6db" x="182.789572" y="587.630051" style="fill: #1f77b4; fill-opacity: 0.8; stroke: #1f77b4; stroke-opacity: 0.8"/>
     <use xlink:href="#m84439cc6db" x="338.288831" y="587.670316" style="fill: #1f77b4; fill-opacity: 0.8; stroke: #1f77b4; stroke-opacity: 0.8"/>
     <use xlink:href="#m84439cc6db" x="150.523153" y="587.671882" style="fill: #1f77b4; fill-opacity: 0.8; stroke: #1f77b4; stroke-opacity: 0.8"/>
     <use xlink:href="#m84439cc6db" x="246.728992" y="587.654342" style="fill: #1f77b4; fill-opacity: 0.8; stroke: #1f77b4; stroke-opacity: 0.8"/>
     <use xlink:href="#m84439cc6db" x="261.847955" y="587.674682" style="fill: #1f77b4; fill-opacity: 0.8; stroke: #1f77b4; stroke-opacity: 0.8"/>
     <use xlink:href="#m84439cc6db" x="219.822438" y="587.658285" style="fill: #1f77b4; fill-opacity: 0.8; stroke: #1f77b4; stroke-opacity: 0.8"/>
     <use xlink:href="#m84439cc6db" x="316.686326" y="587.657615" style="fill: #1f77b4; fill-opacity: 0.8; stroke: #1f77b4; stroke-opacity: 0.8"/>
     <use xlink:href="#m84439cc6db" x="237.644101" y="587.667735" style="fill: #1f77b4; fill-opacity: 0.8; stroke: #1f77b4; stroke-opacity: 0.8"/>
     <use xlink:href="#m84439cc6db" x="252.347377" y="587.671216" style="fill: #1f77b4; fill-opacity: 0.8; stroke: #1f77b4; stroke-opacity: 0.8"/>
     <use xlink:href="#m84439cc6db" x="153.754642" y="587.669981" style="fill: #1f77b4; fill-opacity: 0.8; stroke: #1f77b4; stroke-opacity: 0.8"/>
     <use xlink:href="#m84439cc6db" x="170.502569" y="587.661901" style="fill: #1f77b4; fill-opacity: 0.8; stroke: #1f77b4; stroke-opacity: 0.8"/>
     <use xlink:href="#m84439cc6db" x="317.688088" y="587.660093" style="fill: #1f77b4; fill-opacity: 0.8; stroke: #1f77b4; stroke-opacity: 0.8"/>
     <use xlink:href="#m84439cc6db" x="372.07405" y="587.647662" style="fill: #1f77b4; fill-opacity: 0.8; stroke: #1f77b4; stroke-opacity: 0.8"/>
     <use xlink:href="#m84439cc6db" x="305.957782" y="587.675351" style="fill: #1f77b4; fill-opacity: 0.8; stroke: #1f77b4; stroke-opacity: 0.8"/>
     <use xlink:href="#m84439cc6db" x="177.699977" y="587.663011" style="fill: #1f77b4; fill-opacity: 0.8; stroke: #1f77b4; stroke-opacity: 0.8"/>
     <use xlink:href="#m84439cc6db" x="338.936598" y="587.660156" style="fill: #1f77b4; fill-opacity: 0.8; stroke: #1f77b4; stroke-opacity: 0.8"/>
     <use xlink:href="#m84439cc6db" x="236.836229" y="587.662201" style="fill: #1f77b4; fill-opacity: 0.8; stroke: #1f77b4; stroke-opacity: 0.8"/>
     <use xlink:href="#m84439cc6db" x="322.050598" y="587.673315" style="fill: #1f77b4; fill-opacity: 0.8; stroke: #1f77b4; stroke-opacity: 0.8"/>
     <use xlink:href="#m84439cc6db" x="239.259846" y="587.637687" style="fill: #1f77b4; fill-opacity: 0.8; stroke: #1f77b4; stroke-opacity: 0.8"/>
     <use xlink:href="#m84439cc6db" x="148.972038" y="587.664464" style="fill: #1f77b4; fill-opacity: 0.8; stroke: #1f77b4; stroke-opacity: 0.8"/>
     <use xlink:href="#m84439cc6db" x="124.089572" y="587.661404" style="fill: #1f77b4; fill-opacity: 0.8; stroke: #1f77b4; stroke-opacity: 0.8"/>
     <use xlink:href="#m84439cc6db" x="252.347377" y="587.661876" style="fill: #1f77b4; fill-opacity: 0.8; stroke: #1f77b4; stroke-opacity: 0.8"/>
     <use xlink:href="#m84439cc6db" x="181.771653" y="587.658612" style="fill: #1f77b4; fill-opacity: 0.8; stroke: #1f77b4; stroke-opacity: 0.8"/>
     <use xlink:href="#m84439cc6db" x="253.607657" y="587.653611" style="fill: #1f77b4; fill-opacity: 0.8; stroke: #1f77b4; stroke-opacity: 0.8"/>
     <use xlink:href="#m84439cc6db" x="196.895023" y="587.65696" style="fill: #1f77b4; fill-opacity: 0.8; stroke: #1f77b4; stroke-opacity: 0.8"/>
     <use xlink:href="#m84439cc6db" x="202.517814" y="587.675105" style="fill: #1f77b4; fill-opacity: 0.8; stroke: #1f77b4; stroke-opacity: 0.8"/>
     <use xlink:href="#m84439cc6db" x="169.023429" y="587.670456" style="fill: #1f77b4; fill-opacity: 0.8; stroke: #1f77b4; stroke-opacity: 0.8"/>
     <use xlink:href="#m84439cc6db" x="289.671076" y="587.667993" style="fill: #1f77b4; fill-opacity: 0.8; stroke: #1f77b4; stroke-opacity: 0.8"/>
     <use xlink:href="#m84439cc6db" x="204.456707" y="587.676061" style="fill: #1f77b4; fill-opacity: 0.8; stroke: #1f77b4; stroke-opacity: 0.8"/>
     <use xlink:href="#m84439cc6db" x="306.636395" y="587.662808" style="fill: #1f77b4; fill-opacity: 0.8; stroke: #1f77b4; stroke-opacity: 0.8"/>
     <use xlink:href="#m84439cc6db" x="267.082967" y="587.668338" style="fill: #1f77b4; fill-opacity: 0.8; stroke: #1f77b4; stroke-opacity: 0.8"/>
     <use xlink:href="#m84439cc6db" x="210.099385" y="587.621285" style="fill: #1f77b4; fill-opacity: 0.8; stroke: #1f77b4; stroke-opacity: 0.8"/>
     <use xlink:href="#m84439cc6db" x="255.74044" y="587.661249" style="fill: #1f77b4; fill-opacity: 0.8; stroke: #1f77b4; stroke-opacity: 0.8"/>
     <use xlink:href="#m84439cc6db" x="160.734659" y="587.668005" style="fill: #1f77b4; fill-opacity: 0.8; stroke: #1f77b4; stroke-opacity: 0.8"/>
     <use xlink:href="#m84439cc6db" x="220.161745" y="587.676837" style="fill: #1f77b4; fill-opacity: 0.8; stroke: #1f77b4; stroke-opacity: 0.8"/>
     <use xlink:href="#m84439cc6db" x="296.79651" y="587.666895" style="fill: #1f77b4; fill-opacity: 0.8; stroke: #1f77b4; stroke-opacity: 0.8"/>
     <use xlink:href="#m84439cc6db" x="157.764627" y="587.667934" style="fill: #1f77b4; fill-opacity: 0.8; stroke: #1f77b4; stroke-opacity: 0.8"/>
     <use xlink:href="#m84439cc6db" x="199.415584" y="587.672281" style="fill: #1f77b4; fill-opacity: 0.8; stroke: #1f77b4; stroke-opacity: 0.8"/>
     <use xlink:href="#m84439cc6db" x="290.834413" y="587.674528" style="fill: #1f77b4; fill-opacity: 0.8; stroke: #1f77b4; stroke-opacity: 0.8"/>
     <use xlink:href="#m84439cc6db" x="249.972232" y="587.664695" style="fill: #1f77b4; fill-opacity: 0.8; stroke: #1f77b4; stroke-opacity: 0.8"/>
     <use xlink:href="#m84439cc6db" x="212.406171" y="587.613124" style="fill: #1f77b4; fill-opacity: 0.8; stroke: #1f77b4; stroke-opacity: 0.8"/>
     <use xlink:href="#m84439cc6db" x="205.13532" y="587.641616" style="fill: #1f77b4; fill-opacity: 0.8; stroke: #1f77b4; stroke-opacity: 0.8"/>
     <use xlink:href="#m84439cc6db" x="350.067609" y="587.656987" style="fill: #1f77b4; fill-opacity: 0.8; stroke: #1f77b4; stroke-opacity: 0.8"/>
     <use xlink:href="#m84439cc6db" x="290.182239" y="54.628182" style="fill: #1f77b4; fill-opacity: 0.8; stroke: #1f77b4; stroke-opacity: 0.8"/>
     <use xlink:href="#m84439cc6db" x="257.630861" y="587.663217" style="fill: #1f77b4; fill-opacity: 0.8; stroke: #1f77b4; stroke-opacity: 0.8"/>
     <use xlink:href="#m84439cc6db" x="148.061346" y="587.659065" style="fill: #1f77b4; fill-opacity: 0.8; stroke: #1f77b4; stroke-opacity: 0.8"/>
     <use xlink:href="#m84439cc6db" x="229.61385" y="587.667395" style="fill: #1f77b4; fill-opacity: 0.8; stroke: #1f77b4; stroke-opacity: 0.8"/>
     <use xlink:href="#m84439cc6db" x="233.055386" y="587.553393" style="fill: #1f77b4; fill-opacity: 0.8; stroke: #1f77b4; stroke-opacity: 0.8"/>
     <use xlink:href="#m84439cc6db" x="437.80254" y="587.667207" style="fill: #1f77b4; fill-opacity: 0.8; stroke: #1f77b4; stroke-opacity: 0.8"/>
     <use xlink:href="#m84439cc6db" x="227.238706" y="587.668137" style="fill: #1f77b4; fill-opacity: 0.8; stroke: #1f77b4; stroke-opacity: 0.8"/>
     <use xlink:href="#m84439cc6db" x="198.736971" y="587.660916" style="fill: #1f77b4; fill-opacity: 0.8; stroke: #1f77b4; stroke-opacity: 0.8"/>
     <use xlink:href="#m84439cc6db" x="221.325081" y="587.669084" style="fill: #1f77b4; fill-opacity: 0.8; stroke: #1f77b4; stroke-opacity: 0.8"/>
     <use xlink:href="#m84439cc6db" x="235.091225" y="587.646648" style="fill: #1f77b4; fill-opacity: 0.8; stroke: #1f77b4; stroke-opacity: 0.8"/>
    </g>
   </g>
   <g id="PolyCollection_1">
    <path d="M 118.321364 582.958474 
L 118.321364 597.008048 
L 123.8477 596.275583 
L 129.374036 595.516523 
L 134.900372 594.767848 
L 140.426708 594.001501 
L 145.953044 593.415318 
L 151.47938 592.785044 
L 157.005716 592.226353 
L 162.532052 591.778969 
L 168.058388 591.394966 
L 173.584725 591.037691 
L 179.111061 590.704957 
L 184.637397 590.472249 
L 190.163733 590.20364 
L 195.690069 589.973469 
L 201.216405 589.80102 
L 206.742741 589.740356 
L 212.269077 589.635894 
L 217.795413 589.604913 
L 223.321749 589.467245 
L 228.848085 589.45214 
L 234.374421 589.447642 
L 239.900758 589.4259 
L 245.427094 589.422782 
L 250.95343 589.413202 
L 256.479766 589.413992 
L 262.006102 589.424138 
L 267.532438 589.442279 
L 273.058774 589.45922 
L 278.58511 589.424066 
L 284.111446 589.444052 
L 289.637782 589.470392 
L 295.164118 589.474165 
L 300.690455 589.490663 
L 306.216791 589.489625 
L 311.743127 589.482651 
L 317.269463 589.475301 
L 322.795799 589.467074 
L 328.322135 589.460262 
L 333.848471 589.451979 
L 339.374807 589.444807 
L 344.901143 589.437229 
L 350.427479 589.440043 
L 355.953815 589.45298 
L 361.480152 589.438778 
L 367.006488 589.424577 
L 372.532824 589.410375 
L 378.05916 589.395841 
L 383.585496 589.394784 
L 389.111832 589.3958 
L 394.638168 589.396816 
L 400.164504 589.399332 
L 405.69084 589.390619 
L 411.217176 589.362584 
L 416.743512 589.339052 
L 422.269848 589.339963 
L 427.796185 589.346931 
L 433.322521 589.353898 
L 438.848857 589.360866 
L 444.375193 589.367833 
L 449.901529 589.3748 
L 455.427865 589.381768 
L 460.954201 589.388735 
L 466.480537 589.395703 
L 472.006873 589.40267 
L 477.533209 589.409637 
L 483.059545 589.416605 
L 488.585882 589.423572 
L 494.112218 589.426993 
L 499.638554 589.428862 
L 505.16489 589.43073 
L 510.691226 589.432599 
L 516.217562 589.434468 
L 521.743898 589.436336 
L 527.270234 589.438205 
L 532.79657 589.440074 
L 538.322906 589.441943 
L 543.849242 589.443606 
L 549.375579 589.445217 
L 554.901915 589.446829 
L 560.428251 589.44844 
L 565.954587 589.450052 
L 571.480923 589.451664 
L 577.007259 589.453275 
L 582.533595 589.454887 
L 588.059931 589.456498 
L 593.586267 589.457689 
L 599.112603 589.454628 
L 604.638939 589.451568 
L 610.165275 589.458599 
L 615.691612 589.465184 
L 621.217948 589.466937 
L 626.744284 589.468536 
L 632.27062 589.465263 
L 637.796956 589.461697 
L 643.323292 589.458132 
L 648.849628 589.454567 
L 654.375964 589.451001 
L 659.9023 589.447436 
L 665.428636 589.44387 
L 665.428636 508.114736 
L 665.428636 508.114736 
L 659.9023 508.978178 
L 654.375964 509.730129 
L 648.849628 510.48208 
L 643.323292 511.330188 
L 637.796956 512.21677 
L 632.27062 513.103352 
L 626.744284 513.989934 
L 621.217948 514.87813 
L 615.691612 515.768641 
L 610.165275 516.659288 
L 604.638939 517.549936 
L 599.112603 518.440583 
L 593.586267 519.33123 
L 588.059931 520.221878 
L 582.533595 521.112525 
L 577.007259 522.003172 
L 571.480923 522.893819 
L 565.954587 523.784467 
L 560.428251 524.675114 
L 554.901915 525.565761 
L 549.375579 526.456409 
L 543.849242 527.347056 
L 538.322906 528.237703 
L 532.79657 529.12835 
L 527.270234 530.018998 
L 521.743898 530.910848 
L 516.217562 531.80348 
L 510.691226 532.711152 
L 505.16489 533.604748 
L 499.638554 534.473638 
L 494.112218 535.362881 
L 488.585882 536.253529 
L 483.059545 537.144176 
L 477.533209 538.034823 
L 472.006873 538.893971 
L 466.480537 539.789663 
L 460.954201 540.697203 
L 455.427865 541.552944 
L 449.901529 542.38682 
L 444.375193 543.220695 
L 438.848857 544.05457 
L 433.322521 544.889268 
L 427.796185 545.726813 
L 422.269848 546.564358 
L 416.743512 547.401903 
L 411.217176 548.239448 
L 405.69084 549.076992 
L 400.164504 549.914537 
L 394.638168 550.7479 
L 389.111832 551.580794 
L 383.585496 552.418429 
L 378.05916 553.256063 
L 372.532824 554.090132 
L 367.006488 554.924968 
L 361.480152 555.757406 
L 355.953815 556.589844 
L 350.427479 557.422282 
L 344.901143 558.239725 
L 339.374807 558.981423 
L 333.848471 559.72357 
L 328.322135 560.357057 
L 322.795799 560.965961 
L 317.269463 561.643773 
L 311.743127 562.501142 
L 306.216791 563.363987 
L 300.690455 564.193966 
L 295.164118 565.090651 
L 289.637782 565.945949 
L 284.111446 566.778299 
L 278.58511 567.667446 
L 273.058774 568.175307 
L 267.532438 568.88254 
L 262.006102 569.389343 
L 256.479766 570.309903 
L 250.95343 571.049879 
L 245.427094 571.737308 
L 239.900758 572.452331 
L 234.374421 573.165154 
L 228.848085 573.841626 
L 223.321749 574.485214 
L 217.795413 575.285269 
L 212.269077 575.988722 
L 206.742741 576.42002 
L 201.216405 576.865167 
L 195.690069 577.546638 
L 190.163733 578.03467 
L 184.637397 578.520122 
L 179.111061 579.044316 
L 173.584725 579.499079 
L 168.058388 580.179206 
L 162.532052 580.559319 
L 157.005716 580.938884 
L 151.47938 581.138772 
L 145.953044 581.42574 
L 140.426708 581.719835 
L 134.900372 582.058408 
L 129.374036 582.300759 
L 123.8477 582.613672 
L 118.321364 582.958474 
z
" clip-path="url(#pa436adebe5)" style="fill: #ff0000; fill-opacity: 0.15"/>
   </g>
   <g id="matplotlib.axis_1">
    <g id="xtick_1">
     <g id="line2d_1">
      <defs>
       <path id="m50c42a0f5d" d="M 0 0 
L 0 9 
" style="stroke: #000000; stroke-width: 1.875"/>
      </defs>
      <g>
       <use xlink:href="#m50c42a0f5d" x="92.750713" y="630.284" style="stroke: #000000; stroke-width: 1.875"/>
      </g>
     </g>
     <g id="text_1">
      <!-- −2 -->
      <g transform="translate(80.462596 658.824062) scale(0.231 -0.231)">
       <defs>
        <path id="TimesNewRomanPSMT-2212" d="M 3484 2000 
L 116 2000 
L 116 2256 
L 3484 2256 
L 3484 2000 
z
" transform="scale(0.015625)"/>
        <path id="TimesNewRomanPSMT-32" d="M 2934 816 
L 2638 0 
L 138 0 
L 138 116 
Q 1241 1122 1691 1759 
Q 2141 2397 2141 2925 
Q 2141 3328 1894 3587 
Q 1647 3847 1303 3847 
Q 991 3847 742 3664 
Q 494 3481 375 3128 
L 259 3128 
Q 338 3706 661 4015 
Q 984 4325 1469 4325 
Q 1984 4325 2329 3994 
Q 2675 3663 2675 3213 
Q 2675 2891 2525 2569 
Q 2294 2063 1775 1497 
Q 997 647 803 472 
L 1909 472 
Q 2247 472 2383 497 
Q 2519 522 2628 598 
Q 2738 675 2819 816 
L 2934 816 
z
" transform="scale(0.015625)"/>
       </defs>
       <use xlink:href="#TimesNewRomanPSMT-2212"/>
       <use xlink:href="#TimesNewRomanPSMT-32" x="56.396484"/>
      </g>
     </g>
    </g>
    <g id="xtick_2">
     <g id="line2d_2">
      <g>
       <use xlink:href="#m50c42a0f5d" x="173.356822" y="630.284" style="stroke: #000000; stroke-width: 1.875"/>
      </g>
     </g>
     <g id="text_2">
      <!-- −1 -->
      <g transform="translate(161.068705 658.824062) scale(0.231 -0.231)">
       <defs>
        <path id="TimesNewRomanPSMT-31" d="M 750 3822 
L 1781 4325 
L 1884 4325 
L 1884 747 
Q 1884 391 1914 303 
Q 1944 216 2037 169 
Q 2131 122 2419 116 
L 2419 0 
L 825 0 
L 825 116 
Q 1125 122 1212 167 
Q 1300 213 1334 289 
Q 1369 366 1369 747 
L 1369 3034 
Q 1369 3497 1338 3628 
Q 1316 3728 1258 3775 
Q 1200 3822 1119 3822 
Q 1003 3822 797 3725 
L 750 3822 
z
" transform="scale(0.015625)"/>
       </defs>
       <use xlink:href="#TimesNewRomanPSMT-2212"/>
       <use xlink:href="#TimesNewRomanPSMT-31" x="56.396484"/>
      </g>
     </g>
    </g>
    <g id="xtick_3">
     <g id="line2d_3">
      <g>
       <use xlink:href="#m50c42a0f5d" x="253.962931" y="630.284" style="stroke: #000000; stroke-width: 1.875"/>
      </g>
     </g>
     <g id="text_3">
      <!-- 0 -->
      <g transform="translate(248.187931 658.824062) scale(0.231 -0.231)">
       <defs>
        <path id="TimesNewRomanPSMT-30" d="M 231 2094 
Q 231 2819 450 3342 
Q 669 3866 1031 4122 
Q 1313 4325 1613 4325 
Q 2100 4325 2488 3828 
Q 2972 3213 2972 2159 
Q 2972 1422 2759 906 
Q 2547 391 2217 158 
Q 1888 -75 1581 -75 
Q 975 -75 572 641 
Q 231 1244 231 2094 
z
M 844 2016 
Q 844 1141 1059 588 
Q 1238 122 1591 122 
Q 1759 122 1940 273 
Q 2122 425 2216 781 
Q 2359 1319 2359 2297 
Q 2359 3022 2209 3506 
Q 2097 3866 1919 4016 
Q 1791 4119 1609 4119 
Q 1397 4119 1231 3928 
Q 1006 3669 925 3112 
Q 844 2556 844 2016 
z
" transform="scale(0.015625)"/>
       </defs>
       <use xlink:href="#TimesNewRomanPSMT-30"/>
      </g>
     </g>
    </g>
    <g id="xtick_4">
     <g id="line2d_4">
      <g>
       <use xlink:href="#m50c42a0f5d" x="334.569039" y="630.284" style="stroke: #000000; stroke-width: 1.875"/>
      </g>
     </g>
     <g id="text_4">
      <!-- 1 -->
      <g transform="translate(328.794039 658.824062) scale(0.231 -0.231)">
       <use xlink:href="#TimesNewRomanPSMT-31"/>
      </g>
     </g>
    </g>
    <g id="xtick_5">
     <g id="line2d_5">
      <g>
       <use xlink:href="#m50c42a0f5d" x="415.175148" y="630.284" style="stroke: #000000; stroke-width: 1.875"/>
      </g>
     </g>
     <g id="text_5">
      <!-- 2 -->
      <g transform="translate(409.400148 658.824062) scale(0.231 -0.231)">
       <use xlink:href="#TimesNewRomanPSMT-32"/>
      </g>
     </g>
    </g>
    <g id="xtick_6">
     <g id="line2d_6">
      <g>
       <use xlink:href="#m50c42a0f5d" x="495.781257" y="630.284" style="stroke: #000000; stroke-width: 1.875"/>
      </g>
     </g>
     <g id="text_6">
      <!-- 3 -->
      <g transform="translate(490.006257 658.824062) scale(0.231 -0.231)">
       <defs>
        <path id="TimesNewRomanPSMT-33" d="M 325 3431 
Q 506 3859 782 4092 
Q 1059 4325 1472 4325 
Q 1981 4325 2253 3994 
Q 2459 3747 2459 3466 
Q 2459 3003 1878 2509 
Q 2269 2356 2469 2072 
Q 2669 1788 2669 1403 
Q 2669 853 2319 450 
Q 1863 -75 997 -75 
Q 569 -75 414 31 
Q 259 138 259 259 
Q 259 350 332 419 
Q 406 488 509 488 
Q 588 488 669 463 
Q 722 447 909 348 
Q 1097 250 1169 231 
Q 1284 197 1416 197 
Q 1734 197 1970 444 
Q 2206 691 2206 1028 
Q 2206 1275 2097 1509 
Q 2016 1684 1919 1775 
Q 1784 1900 1550 2001 
Q 1316 2103 1072 2103 
L 972 2103 
L 972 2197 
Q 1219 2228 1467 2375 
Q 1716 2522 1828 2728 
Q 1941 2934 1941 3181 
Q 1941 3503 1739 3701 
Q 1538 3900 1238 3900 
Q 753 3900 428 3381 
L 325 3431 
z
" transform="scale(0.015625)"/>
       </defs>
       <use xlink:href="#TimesNewRomanPSMT-33"/>
      </g>
     </g>
    </g>
    <g id="xtick_7">
     <g id="line2d_7">
      <g>
       <use xlink:href="#m50c42a0f5d" x="576.387365" y="630.284" style="stroke: #000000; stroke-width: 1.875"/>
      </g>
     </g>
     <g id="text_7">
      <!-- 4 -->
      <g transform="translate(570.612365 658.824062) scale(0.231 -0.231)">
       <defs>
        <path id="TimesNewRomanPSMT-34" d="M 2978 1563 
L 2978 1119 
L 2409 1119 
L 2409 0 
L 1894 0 
L 1894 1119 
L 100 1119 
L 100 1519 
L 2066 4325 
L 2409 4325 
L 2409 1563 
L 2978 1563 
z
M 1894 1563 
L 1894 3666 
L 406 1563 
L 1894 1563 
z
" transform="scale(0.015625)"/>
       </defs>
       <use xlink:href="#TimesNewRomanPSMT-34"/>
      </g>
     </g>
    </g>
    <g id="xtick_8">
     <g id="line2d_8">
      <g>
       <use xlink:href="#m50c42a0f5d" x="656.993474" y="630.284" style="stroke: #000000; stroke-width: 1.875"/>
      </g>
     </g>
     <g id="text_8">
      <!-- 5 -->
      <g transform="translate(651.218474 658.824062) scale(0.231 -0.231)">
       <defs>
        <path id="TimesNewRomanPSMT-35" d="M 2778 4238 
L 2534 3706 
L 1259 3706 
L 981 3138 
Q 1809 3016 2294 2522 
Q 2709 2097 2709 1522 
Q 2709 1188 2573 903 
Q 2438 619 2231 419 
Q 2025 219 1772 97 
Q 1413 -75 1034 -75 
Q 653 -75 479 54 
Q 306 184 306 341 
Q 306 428 378 495 
Q 450 563 559 563 
Q 641 563 702 538 
Q 763 513 909 409 
Q 1144 247 1384 247 
Q 1750 247 2026 523 
Q 2303 800 2303 1197 
Q 2303 1581 2056 1914 
Q 1809 2247 1375 2428 
Q 1034 2569 447 2591 
L 1259 4238 
L 2778 4238 
z
" transform="scale(0.015625)"/>
       </defs>
       <use xlink:href="#TimesNewRomanPSMT-35"/>
      </g>
     </g>
    </g>
    <g id="text_9">
     <!-- average_user_avg_indefinite_pronoun -->
     <g transform="translate(198.041719 685.263547) scale(0.252 -0.252)">
      <defs>
       <path id="TimesNewRomanPSMT-61" d="M 1822 413 
Q 1381 72 1269 19 
Q 1100 -59 909 -59 
Q 613 -59 420 144 
Q 228 347 228 678 
Q 228 888 322 1041 
Q 450 1253 767 1440 
Q 1084 1628 1822 1897 
L 1822 2009 
Q 1822 2438 1686 2597 
Q 1550 2756 1291 2756 
Q 1094 2756 978 2650 
Q 859 2544 859 2406 
L 866 2225 
Q 866 2081 792 2003 
Q 719 1925 600 1925 
Q 484 1925 411 2006 
Q 338 2088 338 2228 
Q 338 2497 613 2722 
Q 888 2947 1384 2947 
Q 1766 2947 2009 2819 
Q 2194 2722 2281 2516 
Q 2338 2381 2338 1966 
L 2338 994 
Q 2338 584 2353 492 
Q 2369 400 2405 369 
Q 2441 338 2488 338 
Q 2538 338 2575 359 
Q 2641 400 2828 588 
L 2828 413 
Q 2478 -56 2159 -56 
Q 2006 -56 1915 50 
Q 1825 156 1822 413 
z
M 1822 616 
L 1822 1706 
Q 1350 1519 1213 1441 
Q 966 1303 859 1153 
Q 753 1003 753 825 
Q 753 600 887 451 
Q 1022 303 1197 303 
Q 1434 303 1822 616 
z
" transform="scale(0.015625)"/>
       <path id="TimesNewRomanPSMT-76" d="M 53 2863 
L 1400 2863 
L 1400 2747 
L 1313 2747 
Q 1191 2747 1127 2687 
Q 1063 2628 1063 2528 
Q 1063 2419 1128 2269 
L 1794 688 
L 2463 2328 
Q 2534 2503 2534 2594 
Q 2534 2638 2509 2666 
Q 2475 2713 2422 2730 
Q 2369 2747 2206 2747 
L 2206 2863 
L 3141 2863 
L 3141 2747 
Q 2978 2734 2916 2681 
Q 2806 2588 2719 2369 
L 1703 -88 
L 1575 -88 
L 553 2328 
Q 484 2497 421 2570 
Q 359 2644 263 2694 
Q 209 2722 53 2747 
L 53 2863 
z
" transform="scale(0.015625)"/>
       <path id="TimesNewRomanPSMT-65" d="M 681 1784 
Q 678 1147 991 784 
Q 1303 422 1725 422 
Q 2006 422 2214 576 
Q 2422 731 2563 1106 
L 2659 1044 
Q 2594 616 2278 264 
Q 1963 -88 1488 -88 
Q 972 -88 605 314 
Q 238 716 238 1394 
Q 238 2128 614 2539 
Q 991 2950 1559 2950 
Q 2041 2950 2350 2633 
Q 2659 2316 2659 1784 
L 681 1784 
z
M 681 1966 
L 2006 1966 
Q 1991 2241 1941 2353 
Q 1863 2528 1708 2628 
Q 1553 2728 1384 2728 
Q 1125 2728 920 2526 
Q 716 2325 681 1966 
z
" transform="scale(0.015625)"/>
       <path id="TimesNewRomanPSMT-72" d="M 1038 2947 
L 1038 2303 
Q 1397 2947 1775 2947 
Q 1947 2947 2059 2842 
Q 2172 2738 2172 2600 
Q 2172 2478 2090 2393 
Q 2009 2309 1897 2309 
Q 1788 2309 1652 2417 
Q 1516 2525 1450 2525 
Q 1394 2525 1328 2463 
Q 1188 2334 1038 2041 
L 1038 669 
Q 1038 431 1097 309 
Q 1138 225 1241 169 
Q 1344 113 1538 113 
L 1538 0 
L 72 0 
L 72 113 
Q 291 113 397 181 
Q 475 231 506 341 
Q 522 394 522 644 
L 522 1753 
Q 522 2253 501 2348 
Q 481 2444 426 2487 
Q 372 2531 291 2531 
Q 194 2531 72 2484 
L 41 2597 
L 906 2947 
L 1038 2947 
z
" transform="scale(0.015625)"/>
       <path id="TimesNewRomanPSMT-67" d="M 966 1044 
Q 703 1172 562 1401 
Q 422 1631 422 1909 
Q 422 2334 742 2640 
Q 1063 2947 1563 2947 
Q 1972 2947 2272 2747 
L 2878 2747 
Q 3013 2747 3034 2739 
Q 3056 2731 3066 2713 
Q 3084 2684 3084 2613 
Q 3084 2531 3069 2500 
Q 3059 2484 3036 2475 
Q 3013 2466 2878 2466 
L 2506 2466 
Q 2681 2241 2681 1891 
Q 2681 1491 2375 1206 
Q 2069 922 1553 922 
Q 1341 922 1119 984 
Q 981 866 932 777 
Q 884 688 884 625 
Q 884 572 936 522 
Q 988 472 1138 450 
Q 1225 438 1575 428 
Q 2219 413 2409 384 
Q 2700 344 2873 169 
Q 3047 -6 3047 -263 
Q 3047 -616 2716 -925 
Q 2228 -1381 1444 -1381 
Q 841 -1381 425 -1109 
Q 191 -953 191 -784 
Q 191 -709 225 -634 
Q 278 -519 444 -313 
Q 466 -284 763 25 
Q 600 122 533 198 
Q 466 275 466 372 
Q 466 481 555 628 
Q 644 775 966 1044 
z
M 1509 2797 
Q 1278 2797 1122 2612 
Q 966 2428 966 2047 
Q 966 1553 1178 1281 
Q 1341 1075 1591 1075 
Q 1828 1075 1981 1253 
Q 2134 1431 2134 1813 
Q 2134 2309 1919 2591 
Q 1759 2797 1509 2797 
z
M 934 0 
Q 788 -159 713 -296 
Q 638 -434 638 -550 
Q 638 -700 819 -813 
Q 1131 -1006 1722 -1006 
Q 2284 -1006 2551 -807 
Q 2819 -609 2819 -384 
Q 2819 -222 2659 -153 
Q 2497 -84 2016 -72 
Q 1313 -53 934 0 
z
" transform="scale(0.015625)"/>
       <path id="TimesNewRomanPSMT-5f" d="M 3256 -1381 
L -53 -1381 
L -53 -1119 
L 3256 -1119 
L 3256 -1381 
z
" transform="scale(0.015625)"/>
       <path id="TimesNewRomanPSMT-75" d="M 2709 2863 
L 2709 1128 
Q 2709 631 2732 520 
Q 2756 409 2807 365 
Q 2859 322 2928 322 
Q 3025 322 3147 375 
L 3191 266 
L 2334 -88 
L 2194 -88 
L 2194 519 
Q 1825 119 1631 15 
Q 1438 -88 1222 -88 
Q 981 -88 804 51 
Q 628 191 559 409 
Q 491 628 491 1028 
L 491 2306 
Q 491 2509 447 2587 
Q 403 2666 317 2708 
Q 231 2750 6 2747 
L 6 2863 
L 1009 2863 
L 1009 947 
Q 1009 547 1148 422 
Q 1288 297 1484 297 
Q 1619 297 1789 381 
Q 1959 466 2194 703 
L 2194 2325 
Q 2194 2569 2105 2655 
Q 2016 2741 1734 2747 
L 1734 2863 
L 2709 2863 
z
" transform="scale(0.015625)"/>
       <path id="TimesNewRomanPSMT-73" d="M 2050 2947 
L 2050 1972 
L 1947 1972 
Q 1828 2431 1642 2597 
Q 1456 2763 1169 2763 
Q 950 2763 815 2647 
Q 681 2531 681 2391 
Q 681 2216 781 2091 
Q 878 1963 1175 1819 
L 1631 1597 
Q 2266 1288 2266 781 
Q 2266 391 1970 151 
Q 1675 -88 1309 -88 
Q 1047 -88 709 6 
Q 606 38 541 38 
Q 469 38 428 -44 
L 325 -44 
L 325 978 
L 428 978 
Q 516 541 762 319 
Q 1009 97 1316 97 
Q 1531 97 1667 223 
Q 1803 350 1803 528 
Q 1803 744 1651 891 
Q 1500 1038 1047 1263 
Q 594 1488 453 1669 
Q 313 1847 313 2119 
Q 313 2472 555 2709 
Q 797 2947 1181 2947 
Q 1350 2947 1591 2875 
Q 1750 2828 1803 2828 
Q 1853 2828 1881 2850 
Q 1909 2872 1947 2947 
L 2050 2947 
z
" transform="scale(0.015625)"/>
       <path id="TimesNewRomanPSMT-69" d="M 928 4444 
Q 1059 4444 1151 4351 
Q 1244 4259 1244 4128 
Q 1244 3997 1151 3903 
Q 1059 3809 928 3809 
Q 797 3809 703 3903 
Q 609 3997 609 4128 
Q 609 4259 701 4351 
Q 794 4444 928 4444 
z
M 1188 2947 
L 1188 647 
Q 1188 378 1227 289 
Q 1266 200 1342 156 
Q 1419 113 1622 113 
L 1622 0 
L 231 0 
L 231 113 
Q 441 113 512 153 
Q 584 194 626 287 
Q 669 381 669 647 
L 669 1750 
Q 669 2216 641 2353 
Q 619 2453 572 2492 
Q 525 2531 444 2531 
Q 356 2531 231 2484 
L 188 2597 
L 1050 2947 
L 1188 2947 
z
" transform="scale(0.015625)"/>
       <path id="TimesNewRomanPSMT-6e" d="M 1034 2341 
Q 1538 2947 1994 2947 
Q 2228 2947 2397 2830 
Q 2566 2713 2666 2444 
Q 2734 2256 2734 1869 
L 2734 647 
Q 2734 375 2778 278 
Q 2813 200 2889 156 
Q 2966 113 3172 113 
L 3172 0 
L 1756 0 
L 1756 113 
L 1816 113 
Q 2016 113 2095 173 
Q 2175 234 2206 353 
Q 2219 400 2219 647 
L 2219 1819 
Q 2219 2209 2117 2386 
Q 2016 2563 1775 2563 
Q 1403 2563 1034 2156 
L 1034 647 
Q 1034 356 1069 288 
Q 1113 197 1189 155 
Q 1266 113 1500 113 
L 1500 0 
L 84 0 
L 84 113 
L 147 113 
Q 366 113 442 223 
Q 519 334 519 647 
L 519 1709 
Q 519 2225 495 2337 
Q 472 2450 423 2490 
Q 375 2531 294 2531 
Q 206 2531 84 2484 
L 38 2597 
L 900 2947 
L 1034 2947 
L 1034 2341 
z
" transform="scale(0.015625)"/>
       <path id="TimesNewRomanPSMT-64" d="M 2222 322 
Q 2013 103 1813 7 
Q 1613 -88 1381 -88 
Q 913 -88 563 304 
Q 213 697 213 1313 
Q 213 1928 600 2439 
Q 988 2950 1597 2950 
Q 1975 2950 2222 2709 
L 2222 3238 
Q 2222 3728 2198 3840 
Q 2175 3953 2125 3993 
Q 2075 4034 2000 4034 
Q 1919 4034 1784 3984 
L 1744 4094 
L 2597 4444 
L 2738 4444 
L 2738 1134 
Q 2738 631 2761 520 
Q 2784 409 2836 365 
Q 2888 322 2956 322 
Q 3041 322 3181 375 
L 3216 266 
L 2366 -88 
L 2222 -88 
L 2222 322 
z
M 2222 541 
L 2222 2016 
Q 2203 2228 2109 2403 
Q 2016 2578 1861 2667 
Q 1706 2756 1559 2756 
Q 1284 2756 1069 2509 
Q 784 2184 784 1559 
Q 784 928 1059 592 
Q 1334 256 1672 256 
Q 1956 256 2222 541 
z
" transform="scale(0.015625)"/>
       <path id="TimesNewRomanPSMT-66" d="M 1319 2638 
L 1319 756 
Q 1319 356 1406 250 
Q 1522 113 1716 113 
L 1975 113 
L 1975 0 
L 266 0 
L 266 113 
L 394 113 
Q 519 113 622 175 
Q 725 238 764 344 
Q 803 450 803 756 
L 803 2638 
L 247 2638 
L 247 2863 
L 803 2863 
L 803 3050 
Q 803 3478 940 3775 
Q 1078 4072 1361 4255 
Q 1644 4438 1997 4438 
Q 2325 4438 2600 4225 
Q 2781 4084 2781 3909 
Q 2781 3816 2700 3733 
Q 2619 3650 2525 3650 
Q 2453 3650 2373 3701 
Q 2294 3753 2178 3923 
Q 2063 4094 1966 4153 
Q 1869 4213 1750 4213 
Q 1606 4213 1506 4136 
Q 1406 4059 1362 3898 
Q 1319 3738 1319 3069 
L 1319 2863 
L 2056 2863 
L 2056 2638 
L 1319 2638 
z
" transform="scale(0.015625)"/>
       <path id="TimesNewRomanPSMT-74" d="M 1031 3803 
L 1031 2863 
L 1700 2863 
L 1700 2644 
L 1031 2644 
L 1031 788 
Q 1031 509 1111 412 
Q 1191 316 1316 316 
Q 1419 316 1516 380 
Q 1613 444 1666 569 
L 1788 569 
Q 1678 263 1478 108 
Q 1278 -47 1066 -47 
Q 922 -47 784 33 
Q 647 113 581 261 
Q 516 409 516 719 
L 516 2644 
L 63 2644 
L 63 2747 
Q 234 2816 414 2980 
Q 594 3144 734 3369 
Q 806 3488 934 3803 
L 1031 3803 
z
" transform="scale(0.015625)"/>
       <path id="TimesNewRomanPSMT-70" d="M -6 2578 
L 875 2934 
L 994 2934 
L 994 2266 
Q 1216 2644 1439 2795 
Q 1663 2947 1909 2947 
Q 2341 2947 2628 2609 
Q 2981 2197 2981 1534 
Q 2981 794 2556 309 
Q 2206 -88 1675 -88 
Q 1444 -88 1275 -22 
Q 1150 25 994 166 
L 994 -706 
Q 994 -1000 1030 -1079 
Q 1066 -1159 1155 -1206 
Q 1244 -1253 1478 -1253 
L 1478 -1369 
L -22 -1369 
L -22 -1253 
L 56 -1253 
Q 228 -1256 350 -1188 
Q 409 -1153 442 -1076 
Q 475 -1000 475 -688 
L 475 2019 
Q 475 2297 450 2372 
Q 425 2447 370 2484 
Q 316 2522 222 2522 
Q 147 2522 31 2478 
L -6 2578 
z
M 994 2081 
L 994 1013 
Q 994 666 1022 556 
Q 1066 375 1236 237 
Q 1406 100 1666 100 
Q 1978 100 2172 344 
Q 2425 663 2425 1241 
Q 2425 1897 2138 2250 
Q 1938 2494 1663 2494 
Q 1513 2494 1366 2419 
Q 1253 2363 994 2081 
z
" transform="scale(0.015625)"/>
       <path id="TimesNewRomanPSMT-6f" d="M 1600 2947 
Q 2250 2947 2644 2453 
Q 2978 2031 2978 1484 
Q 2978 1100 2793 706 
Q 2609 313 2286 112 
Q 1963 -88 1566 -88 
Q 919 -88 538 428 
Q 216 863 216 1403 
Q 216 1797 411 2186 
Q 606 2575 925 2761 
Q 1244 2947 1600 2947 
z
M 1503 2744 
Q 1338 2744 1170 2645 
Q 1003 2547 900 2300 
Q 797 2053 797 1666 
Q 797 1041 1045 587 
Q 1294 134 1700 134 
Q 2003 134 2200 384 
Q 2397 634 2397 1244 
Q 2397 2006 2069 2444 
Q 1847 2744 1503 2744 
z
" transform="scale(0.015625)"/>
      </defs>
      <use xlink:href="#TimesNewRomanPSMT-61"/>
      <use xlink:href="#TimesNewRomanPSMT-76" x="44.384766"/>
      <use xlink:href="#TimesNewRomanPSMT-65" x="94.384766"/>
      <use xlink:href="#TimesNewRomanPSMT-72" x="138.769531"/>
      <use xlink:href="#TimesNewRomanPSMT-61" x="172.070312"/>
      <use xlink:href="#TimesNewRomanPSMT-67" x="216.455078"/>
      <use xlink:href="#TimesNewRomanPSMT-65" x="266.455078"/>
      <use xlink:href="#TimesNewRomanPSMT-5f" x="310.839844"/>
      <use xlink:href="#TimesNewRomanPSMT-75" x="360.839844"/>
      <use xlink:href="#TimesNewRomanPSMT-73" x="410.839844"/>
      <use xlink:href="#TimesNewRomanPSMT-65" x="449.755859"/>
      <use xlink:href="#TimesNewRomanPSMT-72" x="494.140625"/>
      <use xlink:href="#TimesNewRomanPSMT-5f" x="527.441406"/>
      <use xlink:href="#TimesNewRomanPSMT-61" x="577.441406"/>
      <use xlink:href="#TimesNewRomanPSMT-76" x="621.826172"/>
      <use xlink:href="#TimesNewRomanPSMT-67" x="671.826172"/>
      <use xlink:href="#TimesNewRomanPSMT-5f" x="721.826172"/>
      <use xlink:href="#TimesNewRomanPSMT-69" x="771.826172"/>
      <use xlink:href="#TimesNewRomanPSMT-6e" x="799.609375"/>
      <use xlink:href="#TimesNewRomanPSMT-64" x="849.609375"/>
      <use xlink:href="#TimesNewRomanPSMT-65" x="899.609375"/>
      <use xlink:href="#TimesNewRomanPSMT-66" x="943.994141"/>
      <use xlink:href="#TimesNewRomanPSMT-69" x="977.294922"/>
      <use xlink:href="#TimesNewRomanPSMT-6e" x="1005.078125"/>
      <use xlink:href="#TimesNewRomanPSMT-69" x="1055.078125"/>
      <use xlink:href="#TimesNewRomanPSMT-74" x="1082.861328"/>
      <use xlink:href="#TimesNewRomanPSMT-65" x="1110.644531"/>
      <use xlink:href="#TimesNewRomanPSMT-5f" x="1155.029297"/>
      <use xlink:href="#TimesNewRomanPSMT-70" x="1205.029297"/>
      <use xlink:href="#TimesNewRomanPSMT-72" x="1255.029297"/>
      <use xlink:href="#TimesNewRomanPSMT-6f" x="1288.330078"/>
      <use xlink:href="#TimesNewRomanPSMT-6e" x="1338.330078"/>
      <use xlink:href="#TimesNewRomanPSMT-6f" x="1388.330078"/>
      <use xlink:href="#TimesNewRomanPSMT-75" x="1438.330078"/>
      <use xlink:href="#TimesNewRomanPSMT-6e" x="1488.330078"/>
     </g>
    </g>
   </g>
   <g id="matplotlib.axis_2">
    <g id="ytick_1">
     <g id="line2d_9">
      <defs>
       <path id="m625d9701ae" d="M 0 0 
L -9 0 
" style="stroke: #000000; stroke-width: 1.875"/>
      </defs>
      <g>
       <use xlink:href="#m625d9701ae" x="90.966" y="582.25623" style="stroke: #000000; stroke-width: 1.875"/>
      </g>
     </g>
     <g id="text_10">
      <!-- 0 -->
      <g transform="translate(66.916 590.276262) scale(0.231 -0.231)">
       <use xlink:href="#TimesNewRomanPSMT-30"/>
      </g>
     </g>
    </g>
    <g id="ytick_2">
     <g id="line2d_10">
      <g>
       <use xlink:href="#m625d9701ae" x="90.966" y="476.190009" style="stroke: #000000; stroke-width: 1.875"/>
      </g>
     </g>
     <g id="text_11">
      <!-- 2 -->
      <g transform="translate(66.916 484.21004) scale(0.231 -0.231)">
       <use xlink:href="#TimesNewRomanPSMT-32"/>
      </g>
     </g>
    </g>
    <g id="ytick_3">
     <g id="line2d_11">
      <g>
       <use xlink:href="#m625d9701ae" x="90.966" y="370.123788" style="stroke: #000000; stroke-width: 1.875"/>
      </g>
     </g>
     <g id="text_12">
      <!-- 4 -->
      <g transform="translate(66.916 378.143819) scale(0.231 -0.231)">
       <use xlink:href="#TimesNewRomanPSMT-34"/>
      </g>
     </g>
    </g>
    <g id="ytick_4">
     <g id="line2d_12">
      <g>
       <use xlink:href="#m625d9701ae" x="90.966" y="264.057566" style="stroke: #000000; stroke-width: 1.875"/>
      </g>
     </g>
     <g id="text_13">
      <!-- 6 -->
      <g transform="translate(66.916 272.077597) scale(0.231 -0.231)">
       <defs>
        <path id="TimesNewRomanPSMT-36" d="M 2869 4325 
L 2869 4209 
Q 2456 4169 2195 4045 
Q 1934 3922 1679 3669 
Q 1425 3416 1258 3105 
Q 1091 2794 978 2366 
Q 1428 2675 1881 2675 
Q 2316 2675 2634 2325 
Q 2953 1975 2953 1425 
Q 2953 894 2631 456 
Q 2244 -75 1606 -75 
Q 1172 -75 869 213 
Q 275 772 275 1663 
Q 275 2231 503 2743 
Q 731 3256 1154 3653 
Q 1578 4050 1965 4187 
Q 2353 4325 2688 4325 
L 2869 4325 
z
M 925 2138 
Q 869 1716 869 1456 
Q 869 1156 980 804 
Q 1091 453 1309 247 
Q 1469 100 1697 100 
Q 1969 100 2183 356 
Q 2397 613 2397 1088 
Q 2397 1622 2184 2012 
Q 1972 2403 1581 2403 
Q 1463 2403 1327 2353 
Q 1191 2303 925 2138 
z
" transform="scale(0.015625)"/>
       </defs>
       <use xlink:href="#TimesNewRomanPSMT-36"/>
      </g>
     </g>
    </g>
    <g id="ytick_5">
     <g id="line2d_13">
      <g>
       <use xlink:href="#m625d9701ae" x="90.966" y="157.991345" style="stroke: #000000; stroke-width: 1.875"/>
      </g>
     </g>
     <g id="text_14">
      <!-- 8 -->
      <g transform="translate(66.916 166.011376) scale(0.231 -0.231)">
       <defs>
        <path id="TimesNewRomanPSMT-38" d="M 1228 2134 
Q 725 2547 579 2797 
Q 434 3047 434 3316 
Q 434 3728 753 4026 
Q 1072 4325 1600 4325 
Q 2113 4325 2425 4047 
Q 2738 3769 2738 3413 
Q 2738 3175 2569 2928 
Q 2400 2681 1866 2347 
Q 2416 1922 2594 1678 
Q 2831 1359 2831 1006 
Q 2831 559 2490 242 
Q 2150 -75 1597 -75 
Q 994 -75 656 303 
Q 388 606 388 966 
Q 388 1247 577 1523 
Q 766 1800 1228 2134 
z
M 1719 2469 
Q 2094 2806 2194 3001 
Q 2294 3197 2294 3444 
Q 2294 3772 2109 3958 
Q 1925 4144 1606 4144 
Q 1288 4144 1088 3959 
Q 888 3775 888 3528 
Q 888 3366 970 3203 
Q 1053 3041 1206 2894 
L 1719 2469 
z
M 1375 2016 
Q 1116 1797 991 1539 
Q 866 1281 866 981 
Q 866 578 1086 336 
Q 1306 94 1647 94 
Q 1984 94 2187 284 
Q 2391 475 2391 747 
Q 2391 972 2272 1150 
Q 2050 1481 1375 2016 
z
" transform="scale(0.015625)"/>
       </defs>
       <use xlink:href="#TimesNewRomanPSMT-38"/>
      </g>
     </g>
    </g>
    <g id="ytick_6">
     <g id="line2d_14">
      <g>
       <use xlink:href="#m625d9701ae" x="90.966" y="51.925123" style="stroke: #000000; stroke-width: 1.875"/>
      </g>
     </g>
     <g id="text_15">
      <!-- 10 -->
      <g transform="translate(55.366 59.945155) scale(0.231 -0.231)">
       <use xlink:href="#TimesNewRomanPSMT-31"/>
       <use xlink:href="#TimesNewRomanPSMT-30" x="50"/>
      </g>
     </g>
    </g>
    <g id="text_16">
     <!-- target_std -->
     <g transform="translate(45.928312 378.216813) rotate(-90) scale(0.252 -0.252)">
      <use xlink:href="#TimesNewRomanPSMT-74"/>
      <use xlink:href="#TimesNewRomanPSMT-61" x="27.783203"/>
      <use xlink:href="#TimesNewRomanPSMT-72" x="72.167969"/>
      <use xlink:href="#TimesNewRomanPSMT-67" x="103.71875"/>
      <use xlink:href="#TimesNewRomanPSMT-65" x="153.71875"/>
      <use xlink:href="#TimesNewRomanPSMT-74" x="198.103516"/>
      <use xlink:href="#TimesNewRomanPSMT-5f" x="225.886719"/>
      <use xlink:href="#TimesNewRomanPSMT-73" x="275.886719"/>
      <use xlink:href="#TimesNewRomanPSMT-74" x="314.802734"/>
      <use xlink:href="#TimesNewRomanPSMT-64" x="342.585938"/>
     </g>
    </g>
   </g>
   <g id="line2d_15">
    <path d="M 118.321364 589.474678 
L 123.8477 589.180583 
L 129.374036 588.886487 
L 134.900372 588.592392 
L 140.426708 588.298296 
L 145.953044 588.004201 
L 151.47938 587.710106 
L 157.005716 587.41601 
L 162.532052 587.121915 
L 168.058388 586.827819 
L 173.584725 586.533724 
L 179.111061 586.239628 
L 184.637397 585.945533 
L 190.163733 585.651437 
L 195.690069 585.357342 
L 201.216405 585.063246 
L 206.742741 584.769151 
L 212.269077 584.475055 
L 217.795413 584.18096 
L 223.321749 583.886865 
L 228.848085 583.592769 
L 234.374421 583.298674 
L 239.900758 583.004578 
L 245.427094 582.710483 
L 250.95343 582.416387 
L 256.479766 582.122292 
L 262.006102 581.828196 
L 267.532438 581.534101 
L 273.058774 581.240005 
L 278.58511 580.94591 
L 284.111446 580.651814 
L 289.637782 580.357719 
L 295.164118 580.063624 
L 300.690455 579.769528 
L 306.216791 579.475433 
L 311.743127 579.181337 
L 317.269463 578.887242 
L 322.795799 578.593146 
L 328.322135 578.299051 
L 333.848471 578.004955 
L 339.374807 577.71086 
L 344.901143 577.416764 
L 350.427479 577.122669 
L 355.953815 576.828574 
L 361.480152 576.534478 
L 367.006488 576.240383 
L 372.532824 575.946287 
L 378.05916 575.652192 
L 383.585496 575.358096 
L 389.111832 575.064001 
L 394.638168 574.769905 
L 400.164504 574.47581 
L 405.69084 574.181714 
L 411.217176 573.887619 
L 416.743512 573.593523 
L 422.269848 573.299428 
L 427.796185 573.005333 
L 433.322521 572.711237 
L 438.848857 572.417142 
L 444.375193 572.123046 
L 449.901529 571.828951 
L 455.427865 571.534855 
L 460.954201 571.24076 
L 466.480537 570.946664 
L 472.006873 570.652569 
L 477.533209 570.358473 
L 483.059545 570.064378 
L 488.585882 569.770282 
L 494.112218 569.476187 
L 499.638554 569.182092 
L 505.16489 568.887996 
L 510.691226 568.593901 
L 516.217562 568.299805 
L 521.743898 568.00571 
L 527.270234 567.711614 
L 532.79657 567.417519 
L 538.322906 567.123423 
L 543.849242 566.829328 
L 549.375579 566.535232 
L 554.901915 566.241137 
L 560.428251 565.947041 
L 565.954587 565.652946 
L 571.480923 565.358851 
L 577.007259 565.064755 
L 582.533595 564.77066 
L 588.059931 564.476564 
L 593.586267 564.182469 
L 599.112603 563.888373 
L 604.638939 563.594278 
L 610.165275 563.300182 
L 615.691612 563.006087 
L 621.217948 562.711991 
L 626.744284 562.417896 
L 632.27062 562.1238 
L 637.796956 561.829705 
L 643.323292 561.53561 
L 648.849628 561.241514 
L 654.375964 560.947419 
L 659.9023 560.653323 
L 665.428636 560.359228 
" clip-path="url(#pa436adebe5)" style="fill: none; stroke: #ff0000; stroke-width: 3.375; stroke-linecap: square"/>
   </g>
   <g id="patch_3">
    <path d="M 90.966 630.284 
L 90.966 27.216 
" style="fill: none; stroke: #000000; stroke-width: 1.875; stroke-linejoin: miter; stroke-linecap: square"/>
   </g>
   <g id="patch_4">
    <path d="M 90.966 630.284 
L 692.784 630.284 
" style="fill: none; stroke: #000000; stroke-width: 1.875; stroke-linejoin: miter; stroke-linecap: square"/>
   </g>
  </g>
 </g>
 <defs>
  <clipPath id="pa436adebe5">
   <rect x="90.966" y="27.216" width="601.818" height="603.068"/>
  </clipPath>
 </defs>
</svg>
